<svg width="768" height="459" xmlns="http://www.w3.org/2000/svg" xmlns:xlink="http://www.w3.org/1999/xlink" xml:space="preserve" overflow="hidden"><g transform="translate(-271 -187)"><path d="M1429.72 1520.29 2196.33 1520.29 2196.33 1977.76 1429.72 1977.76Z" fill="#FFFFFF" transform="matrix(1 0 0 1.00031 -1158.26 -1333.29)"/><path d="M1525.14 1826.95 2173 1826.95M1525.14 1770.11 2173 1770.11M1525.14 1713.73 2173 1713.73M1525.14 1656.89 2173 1656.89M1525.14 1600.05 2173 1600.05M1525.14 1543.62 2173 1543.62" stroke="#D9D9D9" stroke-width="1.58845" stroke-linejoin="round" stroke-miterlimit="10" fill="none" transform="matrix(1 0 0 1.00031 -1158.26 -1333.29)"/><path d="M1599.31 1622.87 1667.23 1622.87 1667.23 1883.96 1599.31 1883.96Z" fill="#46B1E1" transform="matrix(1 0 0 1.00031 -1158.26 -1333.29)"/><path d="M1815.57 1611.32 1883.03 1611.32 1883.03 1883.96 1815.57 1883.96Z" fill="#F2AA84" transform="matrix(1 0 0 1.00031 -1158.26 -1333.29)"/><path d="M2031.36 1588.68 2099.29 1588.68 2099.29 1883.96 2031.36 1883.96Z" fill="#8ED973" transform="matrix(1 0 0 1.00031 -1158.26 -1333.29)"/><path d="M1525.14 1883.73 2173 1883.73" stroke="#D9D9D9" stroke-width="1.58845" stroke-linejoin="round" stroke-miterlimit="10" fill="none" fill-rule="evenodd" transform="matrix(1 0 0 1.00031 -1158.26 -1333.29)"/><text fill="#404040" font-family="Aptos Narrow,Aptos Narrow_MSFontService,sans-serif" font-weight="400" font-stretch="semi-condensed" font-size="41" transform="matrix(0.462094 0 0 0.462236 465.31 275)">23</text><text fill="#404040" font-family="Aptos Narrow,Aptos Narrow_MSFontService,sans-serif" font-weight="400" font-stretch="semi-condensed" font-size="41" transform="matrix(0.462094 0 0 0.462236 681.307 264)">24</text><text fill="#404040" font-family="Aptos Narrow,Aptos Narrow_MSFontService,sans-serif" font-weight="400" font-stretch="semi-condensed" font-size="41" transform="matrix(0.462094 0 0 0.462236 897.304 241)">26</text><text fill="#595959" font-family="Aptos Narrow,Aptos Narrow_MSFontService,sans-serif" font-weight="400" font-stretch="semi-condensed" font-size="41" transform="matrix(0.462094 0 0 0.462236 339.718 556)">0</text><text fill="#595959" font-family="Aptos Narrow,Aptos Narrow_MSFontService,sans-serif" font-weight="400" font-stretch="semi-condensed" font-size="41" transform="matrix(0.462094 0 0 0.462236 339.718 499)">5</text><text fill="#595959" font-family="Aptos Narrow,Aptos Narrow_MSFontService,sans-serif" font-weight="400" font-stretch="semi-condensed" font-size="41" transform="matrix(0.462094 0 0 0.462236 330.06 443)">10</text><text fill="#595959" font-family="Aptos Narrow,Aptos Narrow_MSFontService,sans-serif" font-weight="400" font-stretch="semi-condensed" font-size="41" transform="matrix(0.462094 0 0 0.462236 330.06 386)">15</text><text fill="#595959" font-family="Aptos Narrow,Aptos Narrow_MSFontService,sans-serif" font-weight="400" font-stretch="semi-condensed" font-size="41" transform="matrix(0.462094 0 0 0.462236 330.06 329)">20</text><text fill="#595959" font-family="Aptos Narrow,Aptos Narrow_MSFontService,sans-serif" font-weight="400" font-stretch="semi-condensed" font-size="41" transform="matrix(0.462094 0 0 0.462236 330.06 273)">25</text><text fill="#595959" font-family="Aptos Narrow,Aptos Narrow_MSFontService,sans-serif" font-weight="400" font-stretch="semi-condensed" font-size="41" transform="matrix(0.462094 0 0 0.462236 330.06 216)">30</text><text fill="#595959" font-family="Aptos Narrow,Aptos Narrow_MSFontService,sans-serif" font-weight="400" font-stretch="semi-condensed" font-size="41" transform="matrix(0.462094 0 0 0.462236 462.834 581)">0</text><text fill="#595959" font-family="Aptos Narrow,Aptos Narrow_MSFontService,sans-serif" font-weight="400" font-stretch="semi-condensed" font-size="41" transform="matrix(0.462094 0 0 0.462236 472.538 581)">.</text><text fill="#595959" font-family="Aptos Narrow,Aptos Narrow_MSFontService,sans-serif" font-weight="400" font-stretch="semi-condensed" font-size="41" transform="matrix(0.462094 0 0 0.462236 477.621 581)">2</text><text fill="#595959" font-family="Aptos Narrow,Aptos Narrow_MSFontService,sans-serif" font-weight="400" font-stretch="semi-condensed" font-size="41" transform="matrix(0.462094 0 0 0.462236 678.83 581)">0</text><text fill="#595959" font-family="Aptos Narrow,Aptos Narrow_MSFontService,sans-serif" font-weight="400" font-stretch="semi-condensed" font-size="41" transform="matrix(0.462094 0 0 0.462236 688.534 581)">.</text><text fill="#595959" font-family="Aptos Narrow,Aptos Narrow_MSFontService,sans-serif" font-weight="400" font-stretch="semi-condensed" font-size="41" transform="matrix(0.462094 0 0 0.462236 693.617 581)">5</text><text fill="#595959" font-family="Aptos Narrow,Aptos Narrow_MSFontService,sans-serif" font-weight="400" font-stretch="semi-condensed" font-size="41" transform="matrix(0.462094 0 0 0.462236 894.827 581)">1</text><text fill="#595959" font-family="Aptos Narrow,Aptos Narrow_MSFontService,sans-serif" font-weight="400" font-stretch="semi-condensed" font-size="41" transform="matrix(0.462094 0 0 0.462236 904.531 581)">.</text><text fill="#595959" font-family="Aptos Narrow,Aptos Narrow_MSFontService,sans-serif" font-weight="400" font-stretch="semi-condensed" font-size="41" transform="matrix(0.462094 0 0 0.462236 909.614 581)">0</text><text fill="#595959" font-family="Aptos Narrow,Aptos Narrow_MSFontService,sans-serif" font-weight="400" font-stretch="semi-condensed" font-size="46" transform="matrix(2.82951e-17 -0.462236 0.462094 2.83038e-17 317.722 484)">Correct Answer </text><text fill="#595959" font-family="Aptos Narrow,Aptos Narrow_MSFontService,sans-serif" font-weight="400" font-stretch="semi-condensed" font-size="46" transform="matrix(2.82951e-17 -0.462236 0.462094 2.83038e-17 317.722 351)">(</text><text fill="#595959" font-family="Aptos Narrow,Aptos Narrow_MSFontService,sans-serif" font-weight="400" font-stretch="semi-condensed" font-size="46" transform="matrix(2.82951e-17 -0.462236 0.462094 2.83038e-17 317.722 344)">Max </text><text fill="#595959" font-family="Aptos Narrow,Aptos Narrow_MSFontService,sans-serif" font-weight="400" font-stretch="semi-condensed" font-size="46" transform="matrix(2.82951e-17 -0.462236 0.462094 2.83038e-17 317.722 306)">30</text><text fill="#595959" font-family="Aptos Narrow,Aptos Narrow_MSFontService,sans-serif" font-weight="400" font-stretch="semi-condensed" font-size="46" transform="matrix(2.82951e-17 -0.462236 0.462094 2.83038e-17 317.722 285)">)</text><text fill="#595959" font-family="Aptos Narrow,Aptos Narrow_MSFontService,sans-serif" font-weight="400" font-stretch="semi-condensed" font-size="46" transform="matrix(0.462094 0 0 0.462236 626.184 612)">PWM cycle rate</text><path d="M1429.95 1520.52 2196.56 1520.52 2196.56 1977.99 1429.95 1977.99Z" stroke="#D9D9D9" stroke-width="1.58845" stroke-linejoin="round" stroke-miterlimit="10" fill="none" transform="matrix(1 0 0 1.00031 -1158.26 -1333.29)"/></g></svg>