<svg width="786" height="469" xmlns="http://www.w3.org/2000/svg" xmlns:xlink="http://www.w3.org/1999/xlink" xml:space="preserve" overflow="hidden"><g transform="translate(-262 -195)"><path d="M1463.9 1006.93 2248.48 1006.93 2248.48 1474.28 1463.9 1474.28Z" fill="#FFFFFF" transform="matrix(1 0 0 1.0005 -1201.42 -811.957)"/><path d="M1551.46 1286.67 2224.64 1286.67M1551.46 1243.72 2224.64 1243.72M1551.46 1201.23 2224.64 1201.23M1551.46 1158.74 2224.64 1158.74M1551.46 1116.25 2224.64 1116.25M1551.46 1073.29 2224.64 1073.29M1551.46 1030.77 2224.64 1030.77" stroke="#D9D9D9" stroke-width="1.62275" stroke-linejoin="round" stroke-miterlimit="10" fill="none" transform="matrix(1 0 0 1.0005 -1201.42 -811.957)"/><path d="M1594.71 1201.46 1633.89 1201.46 1633.89 1328.88 1594.71 1328.88ZM1818.95 1243.95 1858.14 1243.95 1858.14 1328.88 1818.95 1328.88Z" fill="#156082" transform="matrix(1 0 0 1.0005 -1201.42 -811.957)"/><path d="M1644.28 1201.46 1683.47 1201.46 1683.47 1328.88 1644.28 1328.88ZM1868.52 1158.5 1907.7 1158.5 1907.7 1328.88 1868.52 1328.88Z" fill="#E97132" transform="matrix(1 0 0 1.0005 -1201.42 -811.957)"/><path d="M2142.81 1073.52 2181.99 1073.52 2181.99 1328.88 2142.81 1328.88Z" fill="#196B24" transform="matrix(1 0 0 1.0005 -1201.42 -811.957)"/><path d="M1551.46 1329.12 2224.64 1329.12" stroke="#D9D9D9" stroke-width="1.62275" stroke-linejoin="round" stroke-miterlimit="10" fill="none" fill-rule="evenodd" transform="matrix(1 0 0 1.0005 -1201.42 -811.957)"/><text fill="#404040" font-family="Aptos Narrow,Aptos Narrow_MSFontService,sans-serif" font-weight="400" font-stretch="semi-condensed" font-size="41" transform="matrix(0.472072 0 0 0.472306 407.762 375)">3</text><text fill="#404040" font-family="Aptos Narrow,Aptos Narrow_MSFontService,sans-serif" font-weight="400" font-stretch="semi-condensed" font-size="41" transform="matrix(0.472072 0 0 0.472306 632.104 417)">2</text><text fill="#404040" font-family="Aptos Narrow,Aptos Narrow_MSFontService,sans-serif" font-weight="400" font-stretch="semi-condensed" font-size="41" transform="matrix(0.472072 0 0 0.472306 856.447 502)">0</text><text fill="#404040" font-family="Aptos Narrow,Aptos Narrow_MSFontService,sans-serif" font-weight="400" font-stretch="semi-condensed" font-size="41" transform="matrix(0.472072 0 0 0.472306 457.485 375)">3</text><text fill="#404040" font-family="Aptos Narrow,Aptos Narrow_MSFontService,sans-serif" font-weight="400" font-stretch="semi-condensed" font-size="41" transform="matrix(0.472072 0 0 0.472306 681.828 332)">4</text><text fill="#404040" font-family="Aptos Narrow,Aptos Narrow_MSFontService,sans-serif" font-weight="400" font-stretch="semi-condensed" font-size="41" transform="matrix(0.472072 0 0 0.472306 906.171 502)">0</text><text fill="#404040" font-family="Aptos Narrow,Aptos Narrow_MSFontService,sans-serif" font-weight="400" font-stretch="semi-condensed" font-size="41" transform="matrix(0.472072 0 0 0.472306 507.208 502)">0</text><text fill="#404040" font-family="Aptos Narrow,Aptos Narrow_MSFontService,sans-serif" font-weight="400" font-stretch="semi-condensed" font-size="41" transform="matrix(0.472072 0 0 0.472306 731.551 502)">0</text><text fill="#404040" font-family="Aptos Narrow,Aptos Narrow_MSFontService,sans-serif" font-weight="400" font-stretch="semi-condensed" font-size="41" transform="matrix(0.472072 0 0 0.472306 955.894 247)">6</text><text fill="#595959" font-family="Aptos Narrow,Aptos Narrow_MSFontService,sans-serif" font-weight="400" font-stretch="semi-condensed" font-size="41" transform="matrix(0.472072 0 0 0.472306 322.402 523)">0</text><text fill="#595959" font-family="Aptos Narrow,Aptos Narrow_MSFontService,sans-serif" font-weight="400" font-stretch="semi-condensed" font-size="41" transform="matrix(0.472072 0 0 0.472306 322.402 481)">1</text><text fill="#595959" font-family="Aptos Narrow,Aptos Narrow_MSFontService,sans-serif" font-weight="400" font-stretch="semi-condensed" font-size="41" transform="matrix(0.472072 0 0 0.472306 322.402 438)">2</text><text fill="#595959" font-family="Aptos Narrow,Aptos Narrow_MSFontService,sans-serif" font-weight="400" font-stretch="semi-condensed" font-size="41" transform="matrix(0.472072 0 0 0.472306 322.402 395)">3</text><text fill="#595959" font-family="Aptos Narrow,Aptos Narrow_MSFontService,sans-serif" font-weight="400" font-stretch="semi-condensed" font-size="41" transform="matrix(0.472072 0 0 0.472306 322.402 353)">4</text><text fill="#595959" font-family="Aptos Narrow,Aptos Narrow_MSFontService,sans-serif" font-weight="400" font-stretch="semi-condensed" font-size="41" transform="matrix(0.472072 0 0 0.472306 322.402 310)">5</text><text fill="#595959" font-family="Aptos Narrow,Aptos Narrow_MSFontService,sans-serif" font-weight="400" font-stretch="semi-condensed" font-size="41" transform="matrix(0.472072 0 0 0.472306 322.402 268)">6</text><text fill="#595959" font-family="Aptos Narrow,Aptos Narrow_MSFontService,sans-serif" font-weight="400" font-stretch="semi-condensed" font-size="41" transform="matrix(0.472072 0 0 0.472306 322.402 225)">7</text><text fill="#595959" font-family="Aptos Narrow,Aptos Narrow_MSFontService,sans-serif" font-weight="400" font-stretch="semi-condensed" font-size="41" transform="matrix(0.472072 0 0 0.472306 442.822 548)">Brick</text><text fill="#595959" font-family="Aptos Narrow,Aptos Narrow_MSFontService,sans-serif" font-weight="400" font-stretch="semi-condensed" font-size="41" transform="matrix(0.472072 0 0 0.472306 664.097 548)">Grass</text><text fill="#595959" font-family="Aptos Narrow,Aptos Narrow_MSFontService,sans-serif" font-weight="400" font-stretch="semi-condensed" font-size="41" transform="matrix(0.472072 0 0 0.472306 884.224 548)">Marble</text><text fill="#595959" font-family="Aptos Narrow,Aptos Narrow_MSFontService,sans-serif" font-weight="400" font-stretch="semi-condensed" font-size="46" transform="matrix(2.89061e-17 -0.472306 0.472072 2.89204e-17 309.797 421)">Participants</text><text fill="#595959" font-family="Aptos Narrow,Aptos Narrow_MSFontService,sans-serif" font-weight="400" font-stretch="semi-condensed" font-size="46" transform="matrix(0.472072 0 0 0.472306 651.554 580)">Material</text><path d="M1786.79 1437.93 1797.65 1437.93 1797.65 1448.79 1786.79 1448.79Z" fill="#156082" transform="matrix(1 0 0 1.0005 -1201.42 -811.957)"/><text fill="#595959" font-family="Aptos Narrow,Aptos Narrow_MSFontService,sans-serif" font-weight="400" font-stretch="semi-condensed" font-size="41" transform="matrix(0.472072 0 0 0.472306 600.759 638)">0</text><text fill="#595959" font-family="Aptos Narrow,Aptos Narrow_MSFontService,sans-serif" font-weight="400" font-stretch="semi-condensed" font-size="41" transform="matrix(0.472072 0 0 0.472306 610.672 638)">.</text><text fill="#595959" font-family="Aptos Narrow,Aptos Narrow_MSFontService,sans-serif" font-weight="400" font-stretch="semi-condensed" font-size="41" transform="matrix(0.472072 0 0 0.472306 615.865 638)">2</text><path d="M1840.14 1437.93 1850.99 1437.93 1850.99 1448.79 1840.14 1448.79Z" fill="#E97132" transform="matrix(1 0 0 1.0005 -1201.42 -811.957)"/><text fill="#595959" font-family="Aptos Narrow,Aptos Narrow_MSFontService,sans-serif" font-weight="400" font-stretch="semi-condensed" font-size="41" transform="matrix(0.472072 0 0 0.472306 653.876 638)">0</text><text fill="#595959" font-family="Aptos Narrow,Aptos Narrow_MSFontService,sans-serif" font-weight="400" font-stretch="semi-condensed" font-size="41" transform="matrix(0.472072 0 0 0.472306 663.79 638)">.</text><text fill="#595959" font-family="Aptos Narrow,Aptos Narrow_MSFontService,sans-serif" font-weight="400" font-stretch="semi-condensed" font-size="41" transform="matrix(0.472072 0 0 0.472306 668.983 638)">5</text><path d="M1893.01 1437.93 1903.87 1437.93 1903.87 1448.79 1893.01 1448.79Z" fill="#196B24" transform="matrix(1 0 0 1.0005 -1201.42 -811.957)"/><text fill="#595959" font-family="Aptos Narrow,Aptos Narrow_MSFontService,sans-serif" font-weight="400" font-stretch="semi-condensed" font-size="41" transform="matrix(0.472072 0 0 0.472306 706.989 638)">1</text><text fill="#595959" font-family="Aptos Narrow,Aptos Narrow_MSFontService,sans-serif" font-weight="400" font-stretch="semi-condensed" font-size="41" transform="matrix(0.472072 0 0 0.472306 716.903 638)">.</text><text fill="#595959" font-family="Aptos Narrow,Aptos Narrow_MSFontService,sans-serif" font-weight="400" font-stretch="semi-condensed" font-size="41" transform="matrix(0.472072 0 0 0.472306 722.096 638)">0</text><path d="M1464.13 1007.17 2248.72 1007.17 2248.72 1474.52 1464.13 1474.52Z" stroke="#D9D9D9" stroke-width="1.62275" stroke-linejoin="round" stroke-miterlimit="10" fill="none" transform="matrix(1 0 0 1.0005 -1201.42 -811.957)"/></g></svg>