<?xml version="1.0" encoding="UTF-8" standalone="no"?>
<svg
   width="786"
   height="469"
   xml:space="preserve"
   overflow="hidden"
   version="1.1"
   id="svg36"
   sodipodi:docname="ex2_result.svg"
   inkscape:version="1.4 (86a8ad7, 2024-10-11)"
   xmlns:inkscape="http://www.inkscape.org/namespaces/inkscape"
   xmlns:sodipodi="http://sodipodi.sourceforge.net/DTD/sodipodi-0.dtd"
   xmlns="http://www.w3.org/2000/svg"
   xmlns:svg="http://www.w3.org/2000/svg"><defs
     id="defs36"><rect
       x="320.89474"
       y="400.98129"
       width="76.246784"
       height="26.329825"
       id="rect38" /><rect
       x="119.58129"
       y="422.37427"
       width="163.46433"
       height="47.722807"
       id="rect37" /></defs><sodipodi:namedview
     id="namedview36"
     pagecolor="#ffffff"
     bordercolor="#000000"
     borderopacity="0.25"
     inkscape:showpageshadow="2"
     inkscape:pageopacity="0.0"
     inkscape:pagecheckerboard="0"
     inkscape:deskcolor="#d1d1d1"
     inkscape:zoom="0.91151386"
     inkscape:cx="427.31111"
     inkscape:cy="178.27485"
     inkscape:window-width="1920"
     inkscape:window-height="1057"
     inkscape:window-x="1912"
     inkscape:window-y="-8"
     inkscape:window-maximized="1"
     inkscape:current-layer="g36" /><g
     transform="translate(-262 -195)"
     id="g36"><path
       d="M1463.9 1006.93 2248.48 1006.93 2248.48 1474.28 1463.9 1474.28Z"
       fill="#FFFFFF"
       transform="matrix(1 0 0 1.0005 -1201.42 -811.957)"
       id="path1" /><path
       d="M1551.46 1286.67 2224.64 1286.67M1551.46 1243.72 2224.64 1243.72M1551.46 1201.23 2224.64 1201.23M1551.46 1158.74 2224.64 1158.74M1551.46 1116.25 2224.64 1116.25M1551.46 1073.29 2224.64 1073.29M1551.46 1030.77 2224.64 1030.77"
       stroke="#D9D9D9"
       stroke-width="1.62275"
       stroke-linejoin="round"
       stroke-miterlimit="10"
       fill="none"
       transform="matrix(1 0 0 1.0005 -1201.42 -811.957)"
       id="path2" /><path
       d="M1594.71 1201.46 1633.89 1201.46 1633.89 1328.88 1594.71 1328.88ZM1818.95 1243.95 1858.14 1243.95 1858.14 1328.88 1818.95 1328.88Z"
       fill="#156082"
       transform="matrix(1 0 0 1.0005 -1201.42 -811.957)"
       id="path3" /><path
       d="M1644.28 1201.46 1683.47 1201.46 1683.47 1328.88 1644.28 1328.88ZM1868.52 1158.5 1907.7 1158.5 1907.7 1328.88 1868.52 1328.88Z"
       fill="#E97132"
       transform="matrix(1 0 0 1.0005 -1201.42 -811.957)"
       id="path4" /><path
       d="M2142.81 1073.52 2181.99 1073.52 2181.99 1328.88 2142.81 1328.88Z"
       fill="#196B24"
       transform="matrix(1 0 0 1.0005 -1201.42 -811.957)"
       id="path5" /><path
       d="M1551.46 1329.12 2224.64 1329.12"
       stroke="#D9D9D9"
       stroke-width="1.62275"
       stroke-linejoin="round"
       stroke-miterlimit="10"
       fill="none"
       fill-rule="evenodd"
       transform="matrix(1 0 0 1.0005 -1201.42 -811.957)"
       id="path6" /><path
       d="m 20.780273,-14.354004 q 0.960938,0.86084 1.581543,2.162109 0.620606,1.30127 0.620606,3.3632817 0,2.0419922 -0.740723,3.7436524 -0.740722,1.7016601 -2.082031,2.9628906 -1.501465,1.40136718 -3.543457,2.08203124 -2.021973,0.66064453 -4.444336,0.66064453 -2.4824219,0 -4.8847656,-0.60058594 -2.4023438,-0.5805664 -3.9438477,-1.28125003 v -4.184082 h 0.300293 q 1.7016601,1.1210938 4.0039062,1.8618164 2.3022461,0.7407227 4.4443361,0.7407227 1.26123,0 2.682617,-0.4204102 1.421387,-0.4204102 2.302246,-1.2412109 0.920899,-0.8808594 1.361328,-1.9418946 0.460449,-1.0610351 0.460449,-2.6826172 0,-1.6015627 -0.520507,-2.6425777 -0.500489,-1.061036 -1.401368,-1.661621 -0.900878,-0.620606 -2.182128,-0.840821 -1.28125,-0.240234 -2.762696,-0.240234 H 10.22998 v -3.323242 h 1.401368 q 3.042968,0 4.844726,-1.261231 1.821778,-1.28125 1.821778,-3.723633 0,-1.081054 -0.46045,-1.881836 -0.460449,-0.8208 -1.28125,-1.341308 -0.860839,-0.520508 -1.841797,-0.720703 -0.980957,-0.200196 -2.222167,-0.200196 -1.901856,0 -4.0439458,0.680664 -2.1420899,0.680665 -4.0439453,1.921875 H 4.2041016 v -4.184082 q 1.4213867,-0.700683 3.7836914,-1.28125 2.382324,-0.600585 4.604492,-0.600585 2.182129,0 3.84375,0.40039 1.661621,0.400391 3.00293,1.28125 1.441406,0.960938 2.182129,2.322266 0.740722,1.361328 0.740722,3.183105 0,2.482422 -1.761718,4.344239 -1.7417,1.841796 -4.124024,2.322265 v 0.280274 q 0.960938,0.160156 2.202149,0.680664 1.241211,0.500488 2.10205,1.26123 z"
       id="text6"
       style="font-stretch:semi-condensed;font-size:41px;font-family:'Aptos Narrow', 'Aptos Narrow_MSFontService', sans-serif;fill:#404040"
       transform="matrix(0.472072 0 0 0.472306 407.762 375)"
       aria-label="3" /><path
       d="M 23.402832,0 H 3.2231445 v -4.184082 q 2.1020508,-1.8017578 4.2041016,-3.6035157 2.1220703,-1.8017578 3.9438479,-3.5834963 3.84375,-3.723633 5.265136,-5.905761 1.421387,-2.202149 1.421387,-4.744629 0,-2.322266 -1.541504,-3.623536 -1.521484,-1.321289 -4.26416,-1.321289 -1.821777,0 -3.9438475,0.640625 -2.1220703,0.640625 -4.144043,1.961914 H 3.9638672 v -4.204101 q 1.4213867,-0.700684 3.7836914,-1.28125 2.3823244,-0.580566 4.6044924,-0.580566 4.584472,0 7.187011,2.222167 2.60254,2.202149 2.60254,5.98584 0,1.70166 -0.44043,3.183106 -0.42041,1.461426 -1.261231,2.782715 -0.780761,1.241211 -1.841796,2.442382 -1.041016,1.201172 -2.542481,2.662598 -2.14209,2.1020509 -4.424316,4.0839845 -2.2822269,1.961914 -4.2641605,3.6435547 H 23.402832 Z"
       id="text7"
       style="font-stretch:semi-condensed;font-size:41px;font-family:'Aptos Narrow', 'Aptos Narrow_MSFontService', sans-serif;fill:#404040"
       transform="matrix(0.472072 0 0 0.472306 632.104 417)"
       aria-label="2" /><path
       d="m 23.362793,-14.914551 q 0,8.0278323 -2.522461,11.7915041 -2.502441,3.74365237 -7.787598,3.74365237 -5.365234,0 -7.8476559,-3.80371097 -2.4624023,-3.8037109 -2.4624023,-11.6914065 0,-7.947754 2.5024414,-11.731445 2.5024414,-3.803711 7.8076168,-3.803711 5.365235,0 7.827637,3.86377 2.482422,3.84375 2.482422,11.631347 z m -5.265137,9.0888674 q 0.700684,-1.621582 0.940918,-3.8037109 0.260254,-2.2021485 0.260254,-5.2851565 0,-3.042969 -0.260254,-5.285156 -0.240234,-2.242188 -0.960937,-3.803711 -0.700684,-1.541504 -1.921875,-2.322266 -1.201172,-0.780761 -3.103028,-0.780761 -1.881836,0 -3.1230465,0.780761 -1.2211914,0.780762 -1.9418945,2.362305 -0.6806641,1.481445 -0.940918,3.86377 -0.2402344,2.382324 -0.2402344,5.225097 0,3.123047 0.2202149,5.2250979 0.2202148,2.1020508 0.9409179,3.7636719 0.6606446,1.5615235 1.8618164,2.3823242 1.2211912,0.8208008 3.2231442,0.8208008 1.881836,0 3.123047,-0.7807617 1.241211,-0.7807617 1.921875,-2.3623047 z"
       id="text8"
       style="font-stretch:semi-condensed;font-size:41px;font-family:'Aptos Narrow', 'Aptos Narrow_MSFontService', sans-serif;fill:#404040"
       transform="matrix(0.472072 0 0 0.472306 856.447 502)"
       aria-label="0" /><path
       d="m 20.780273,-14.354004 q 0.960938,0.86084 1.581543,2.162109 0.620606,1.30127 0.620606,3.3632817 0,2.0419922 -0.740723,3.7436524 -0.740722,1.7016601 -2.082031,2.9628906 -1.501465,1.40136718 -3.543457,2.08203124 -2.021973,0.66064453 -4.444336,0.66064453 -2.4824219,0 -4.8847656,-0.60058594 -2.4023438,-0.5805664 -3.9438477,-1.28125003 v -4.184082 h 0.300293 q 1.7016601,1.1210938 4.0039062,1.8618164 2.3022461,0.7407227 4.4443361,0.7407227 1.26123,0 2.682617,-0.4204102 1.421387,-0.4204102 2.302246,-1.2412109 0.920899,-0.8808594 1.361328,-1.9418946 0.460449,-1.0610351 0.460449,-2.6826172 0,-1.6015627 -0.520507,-2.6425777 -0.500489,-1.061036 -1.401368,-1.661621 -0.900878,-0.620606 -2.182128,-0.840821 -1.28125,-0.240234 -2.762696,-0.240234 H 10.22998 v -3.323242 h 1.401368 q 3.042968,0 4.844726,-1.261231 1.821778,-1.28125 1.821778,-3.723633 0,-1.081054 -0.46045,-1.881836 -0.460449,-0.8208 -1.28125,-1.341308 -0.860839,-0.520508 -1.841797,-0.720703 -0.980957,-0.200196 -2.222167,-0.200196 -1.901856,0 -4.0439458,0.680664 -2.1420899,0.680665 -4.0439453,1.921875 H 4.2041016 v -4.184082 q 1.4213867,-0.700683 3.7836914,-1.28125 2.382324,-0.600585 4.604492,-0.600585 2.182129,0 3.84375,0.40039 1.661621,0.400391 3.00293,1.28125 1.441406,0.960938 2.182129,2.322266 0.740722,1.361328 0.740722,3.183105 0,2.482422 -1.761718,4.344239 -1.7417,1.841796 -4.124024,2.322265 v 0.280274 q 0.960938,0.160156 2.202149,0.680664 1.241211,0.500488 2.10205,1.26123 z"
       id="text9"
       style="font-stretch:semi-condensed;font-size:41px;font-family:'Aptos Narrow', 'Aptos Narrow_MSFontService', sans-serif;fill:#404040"
       transform="matrix(0.472072 0 0 0.472306 457.485 375)"
       aria-label="3" /><path
       d="M 24.083496,-8.3881836 H 19.65918 V 0 H 15.81543 V -8.3881836 H 1.5415039 V -12.992676 L 15.975586,-29.809082 h 3.683594 v 18.217773 h 4.424316 z M 15.81543,-11.591309 V -25.044434 L 4.2641602,-11.591309 Z"
       id="text10"
       style="font-stretch:semi-condensed;font-size:41px;font-family:'Aptos Narrow', 'Aptos Narrow_MSFontService', sans-serif;fill:#404040"
       transform="matrix(0.472072 0 0 0.472306 681.828 332)"
       aria-label="4" /><path
       d="m 23.362793,-14.914551 q 0,8.0278323 -2.522461,11.7915041 -2.502441,3.74365237 -7.787598,3.74365237 -5.365234,0 -7.8476559,-3.80371097 -2.4624023,-3.8037109 -2.4624023,-11.6914065 0,-7.947754 2.5024414,-11.731445 2.5024414,-3.803711 7.8076168,-3.803711 5.365235,0 7.827637,3.86377 2.482422,3.84375 2.482422,11.631347 z m -5.265137,9.0888674 q 0.700684,-1.621582 0.940918,-3.8037109 0.260254,-2.2021485 0.260254,-5.2851565 0,-3.042969 -0.260254,-5.285156 -0.240234,-2.242188 -0.960937,-3.803711 -0.700684,-1.541504 -1.921875,-2.322266 -1.201172,-0.780761 -3.103028,-0.780761 -1.881836,0 -3.1230465,0.780761 -1.2211914,0.780762 -1.9418945,2.362305 -0.6806641,1.481445 -0.940918,3.86377 -0.2402344,2.382324 -0.2402344,5.225097 0,3.123047 0.2202149,5.2250979 0.2202148,2.1020508 0.9409179,3.7636719 0.6606446,1.5615235 1.8618164,2.3823242 1.2211912,0.8208008 3.2231442,0.8208008 1.881836,0 3.123047,-0.7807617 1.241211,-0.7807617 1.921875,-2.3623047 z"
       id="text11"
       style="font-stretch:semi-condensed;font-size:41px;font-family:'Aptos Narrow', 'Aptos Narrow_MSFontService', sans-serif;fill:#404040"
       transform="matrix(0.472072 0 0 0.472306 906.171 502)"
       aria-label="0" /><path
       d="m 23.362793,-14.914551 q 0,8.0278323 -2.522461,11.7915041 -2.502441,3.74365237 -7.787598,3.74365237 -5.365234,0 -7.8476559,-3.80371097 -2.4624023,-3.8037109 -2.4624023,-11.6914065 0,-7.947754 2.5024414,-11.731445 2.5024414,-3.803711 7.8076168,-3.803711 5.365235,0 7.827637,3.86377 2.482422,3.84375 2.482422,11.631347 z m -5.265137,9.0888674 q 0.700684,-1.621582 0.940918,-3.8037109 0.260254,-2.2021485 0.260254,-5.2851565 0,-3.042969 -0.260254,-5.285156 -0.240234,-2.242188 -0.960937,-3.803711 -0.700684,-1.541504 -1.921875,-2.322266 -1.201172,-0.780761 -3.103028,-0.780761 -1.881836,0 -3.1230465,0.780761 -1.2211914,0.780762 -1.9418945,2.362305 -0.6806641,1.481445 -0.940918,3.86377 -0.2402344,2.382324 -0.2402344,5.225097 0,3.123047 0.2202149,5.2250979 0.2202148,2.1020508 0.9409179,3.7636719 0.6606446,1.5615235 1.8618164,2.3823242 1.2211912,0.8208008 3.2231442,0.8208008 1.881836,0 3.123047,-0.7807617 1.241211,-0.7807617 1.921875,-2.3623047 z"
       id="text12"
       style="font-stretch:semi-condensed;font-size:41px;font-family:'Aptos Narrow', 'Aptos Narrow_MSFontService', sans-serif;fill:#404040"
       transform="matrix(0.472072 0 0 0.472306 507.208 502)"
       aria-label="0" /><path
       d="m 23.362793,-14.914551 q 0,8.0278323 -2.522461,11.7915041 -2.502441,3.74365237 -7.787598,3.74365237 -5.365234,0 -7.8476559,-3.80371097 -2.4624023,-3.8037109 -2.4624023,-11.6914065 0,-7.947754 2.5024414,-11.731445 2.5024414,-3.803711 7.8076168,-3.803711 5.365235,0 7.827637,3.86377 2.482422,3.84375 2.482422,11.631347 z m -5.265137,9.0888674 q 0.700684,-1.621582 0.940918,-3.8037109 0.260254,-2.2021485 0.260254,-5.2851565 0,-3.042969 -0.260254,-5.285156 -0.240234,-2.242188 -0.960937,-3.803711 -0.700684,-1.541504 -1.921875,-2.322266 -1.201172,-0.780761 -3.103028,-0.780761 -1.881836,0 -3.1230465,0.780761 -1.2211914,0.780762 -1.9418945,2.362305 -0.6806641,1.481445 -0.940918,3.86377 -0.2402344,2.382324 -0.2402344,5.225097 0,3.123047 0.2202149,5.2250979 0.2202148,2.1020508 0.9409179,3.7636719 0.6606446,1.5615235 1.8618164,2.3823242 1.2211912,0.8208008 3.2231442,0.8208008 1.881836,0 3.123047,-0.7807617 1.241211,-0.7807617 1.921875,-2.3623047 z"
       id="text13"
       style="font-stretch:semi-condensed;font-size:41px;font-family:'Aptos Narrow', 'Aptos Narrow_MSFontService', sans-serif;fill:#404040"
       transform="matrix(0.472072 0 0 0.472306 731.551 502)"
       aria-label="0" /><path
       d="m 23.843262,-9.6694336 q 0,4.5444336 -3.00293,7.4272461 -2.98291,2.86279297 -7.327148,2.86279297 -2.202149,0 -4.0039067,-0.68066406 Q 7.7075195,-0.74072266 6.3261719,-2.0820313 4.6044922,-3.7436523 3.6635742,-6.4863281 2.7426758,-9.2290039 2.7426758,-13.092773 q 0,-3.963868 0.8408203,-7.026856 0.8608398,-3.062988 2.7226562,-5.445312 1.7617188,-2.262207 4.5444337,-3.523438 2.782715,-1.28125 6.486328,-1.28125 1.181152,0 1.981934,0.100098 0.800781,0.100097 1.621582,0.360351 v 3.823731 h -0.200196 q -0.560547,-0.300293 -1.70166,-0.560547 -1.121094,-0.280274 -2.302246,-0.280274 -4.304199,0 -6.8666991,2.702637 -2.5625,2.682617 -2.9829102,7.26709 1.6816407,-1.020996 3.3032223,-1.541504 1.641602,-0.540527 3.783692,-0.540527 1.901855,0 3.343262,0.360351 1.461425,0.340332 2.98291,1.401368 1.761718,1.221191 2.642578,3.083007 0.900879,1.861817 0.900879,4.5244144 z m -4.063965,0.1601563 q 0,-1.8618167 -0.560547,-3.0830077 -0.540527,-1.221192 -1.801758,-2.12207 -0.920898,-0.640625 -2.041992,-0.840821 -1.121094,-0.200195 -2.342285,-0.200195 -1.70166,0 -3.1630861,0.400391 -1.4614258,0.40039 -3.0029297,1.24121 -0.040039,0.44043 -0.060059,0.86084 -0.02002,0.400391 -0.02002,1.020996 0,3.1630863 0.640625,5.0048832 0.6606445,1.8217774 1.8017578,2.8828125 0.9208981,0.8808594 1.9819341,1.3012695 1.081054,0.4003907 2.342285,0.4003907 2.902832,0 4.564453,-1.7617188 1.661621,-1.7817383 1.661621,-5.1049804 z"
       id="text14"
       style="font-stretch:semi-condensed;font-size:41px;font-family:'Aptos Narrow', 'Aptos Narrow_MSFontService', sans-serif;fill:#404040"
       transform="matrix(0.472072 0 0 0.472306 955.894 247)"
       aria-label="6" /><path
       d="m 23.362793,-14.914551 q 0,8.0278323 -2.522461,11.7915041 -2.502441,3.74365237 -7.787598,3.74365237 -5.365234,0 -7.8476559,-3.80371097 -2.4624023,-3.8037109 -2.4624023,-11.6914065 0,-7.947754 2.5024414,-11.731445 2.5024414,-3.803711 7.8076168,-3.803711 5.365235,0 7.827637,3.86377 2.482422,3.84375 2.482422,11.631347 z m -5.265137,9.0888674 q 0.700684,-1.621582 0.940918,-3.8037109 0.260254,-2.2021485 0.260254,-5.2851565 0,-3.042969 -0.260254,-5.285156 -0.240234,-2.242188 -0.960937,-3.803711 -0.700684,-1.541504 -1.921875,-2.322266 -1.201172,-0.780761 -3.103028,-0.780761 -1.881836,0 -3.1230465,0.780761 -1.2211914,0.780762 -1.9418945,2.362305 -0.6806641,1.481445 -0.940918,3.86377 -0.2402344,2.382324 -0.2402344,5.225097 0,3.123047 0.2202149,5.2250979 0.2202148,2.1020508 0.9409179,3.7636719 0.6606446,1.5615235 1.8618164,2.3823242 1.2211912,0.8208008 3.2231442,0.8208008 1.881836,0 3.123047,-0.7807617 1.241211,-0.7807617 1.921875,-2.3623047 z"
       id="text15"
       style="font-stretch:semi-condensed;font-size:41px;font-family:'Aptos Narrow', 'Aptos Narrow_MSFontService', sans-serif;fill:#595959"
       transform="matrix(0.472072 0 0 0.472306 322.402 523)"
       aria-label="0" /><path
       d="M 21.701172,0 H 5.5654297 V -3.0429688 H 11.771484 V -23.022461 H 5.5654297 v -2.722656 q 1.2612305,0 2.7026367,-0.200195 1.4414063,-0.220215 2.1821286,-0.620606 0.920899,-0.500488 1.441407,-1.26123 0.540527,-0.780762 0.620605,-2.082032 h 3.103027 v 26.8662112 h 6.085938 z"
       id="text16"
       style="font-stretch:semi-condensed;font-size:41px;font-family:'Aptos Narrow', 'Aptos Narrow_MSFontService', sans-serif;fill:#595959"
       transform="matrix(0.472072 0 0 0.472306 322.402 481)"
       aria-label="1" /><path
       d="M 23.402832,0 H 3.2231445 v -4.184082 q 2.1020508,-1.8017578 4.2041016,-3.6035157 2.1220703,-1.8017578 3.9438479,-3.5834963 3.84375,-3.723633 5.265136,-5.905761 1.421387,-2.202149 1.421387,-4.744629 0,-2.322266 -1.541504,-3.623536 -1.521484,-1.321289 -4.26416,-1.321289 -1.821777,0 -3.9438475,0.640625 -2.1220703,0.640625 -4.144043,1.961914 H 3.9638672 v -4.204101 q 1.4213867,-0.700684 3.7836914,-1.28125 2.3823244,-0.580566 4.6044924,-0.580566 4.584472,0 7.187011,2.222167 2.60254,2.202149 2.60254,5.98584 0,1.70166 -0.44043,3.183106 -0.42041,1.461426 -1.261231,2.782715 -0.780761,1.241211 -1.841796,2.442382 -1.041016,1.201172 -2.542481,2.662598 -2.14209,2.1020509 -4.424316,4.0839845 -2.2822269,1.961914 -4.2641605,3.6435547 H 23.402832 Z"
       id="text17"
       style="font-stretch:semi-condensed;font-size:41px;font-family:'Aptos Narrow', 'Aptos Narrow_MSFontService', sans-serif;fill:#595959"
       transform="matrix(0.472072 0 0 0.472306 322.402 438)"
       aria-label="2" /><path
       d="m 20.780273,-14.354004 q 0.960938,0.86084 1.581543,2.162109 0.620606,1.30127 0.620606,3.3632817 0,2.0419922 -0.740723,3.7436524 -0.740722,1.7016601 -2.082031,2.9628906 -1.501465,1.40136718 -3.543457,2.08203124 -2.021973,0.66064453 -4.444336,0.66064453 -2.4824219,0 -4.8847656,-0.60058594 -2.4023438,-0.5805664 -3.9438477,-1.28125003 v -4.184082 h 0.300293 q 1.7016601,1.1210938 4.0039062,1.8618164 2.3022461,0.7407227 4.4443361,0.7407227 1.26123,0 2.682617,-0.4204102 1.421387,-0.4204102 2.302246,-1.2412109 0.920899,-0.8808594 1.361328,-1.9418946 0.460449,-1.0610351 0.460449,-2.6826172 0,-1.6015627 -0.520507,-2.6425777 -0.500489,-1.061036 -1.401368,-1.661621 -0.900878,-0.620606 -2.182128,-0.840821 -1.28125,-0.240234 -2.762696,-0.240234 H 10.22998 v -3.323242 h 1.401368 q 3.042968,0 4.844726,-1.261231 1.821778,-1.28125 1.821778,-3.723633 0,-1.081054 -0.46045,-1.881836 -0.460449,-0.8208 -1.28125,-1.341308 -0.860839,-0.520508 -1.841797,-0.720703 -0.980957,-0.200196 -2.222167,-0.200196 -1.901856,0 -4.0439458,0.680664 -2.1420899,0.680665 -4.0439453,1.921875 H 4.2041016 v -4.184082 q 1.4213867,-0.700683 3.7836914,-1.28125 2.382324,-0.600585 4.604492,-0.600585 2.182129,0 3.84375,0.40039 1.661621,0.400391 3.00293,1.28125 1.441406,0.960938 2.182129,2.322266 0.740722,1.361328 0.740722,3.183105 0,2.482422 -1.761718,4.344239 -1.7417,1.841796 -4.124024,2.322265 v 0.280274 q 0.960938,0.160156 2.202149,0.680664 1.241211,0.500488 2.10205,1.26123 z"
       id="text18"
       style="font-stretch:semi-condensed;font-size:41px;font-family:'Aptos Narrow', 'Aptos Narrow_MSFontService', sans-serif;fill:#595959"
       transform="matrix(0.472072 0 0 0.472306 322.402 395)"
       aria-label="3" /><path
       d="M 24.083496,-8.3881836 H 19.65918 V 0 H 15.81543 V -8.3881836 H 1.5415039 V -12.992676 L 15.975586,-29.809082 h 3.683594 v 18.217773 h 4.424316 z M 15.81543,-11.591309 V -25.044434 L 4.2641602,-11.591309 Z"
       id="text19"
       style="font-stretch:semi-condensed;font-size:41px;font-family:'Aptos Narrow', 'Aptos Narrow_MSFontService', sans-serif;fill:#595959"
       transform="matrix(0.472072 0 0 0.472306 322.402 353)"
       aria-label="4" /><path
       d="m 23.162598,-9.4692383 q 0,2.0820313 -0.760743,3.9838867 -0.760742,1.9018555 -2.082031,3.203125 -1.441406,1.40136722 -3.443359,2.16210941 -1.981934,0.74072266 -4.604492,0.74072266 -2.4423832,0 -4.7045902,-0.52050781 -2.262207,-0.50048829 -3.8237305,-1.22119136 v -4.2241211 h 0.2802735 q 1.6416015,1.0410156 3.84375,1.7817382 2.2021482,0.7207032 4.3242192,0.7207032 1.421386,0 2.742675,-0.4003907 1.341309,-0.4003906 2.382325,-1.4013671 0.880859,-0.8608399 1.321289,-2.0620118 0.460449,-1.2011718 0.460449,-2.7827148 0,-1.5415042 -0.540528,-2.6025392 -0.520507,-1.061035 -1.461425,-1.70166 -1.041016,-0.760742 -2.542481,-1.061035 -1.481445,-0.320313 -3.323242,-0.320313 -1.7617187,0 -3.4033203,0.240235 -1.621582,0.240234 -2.8027344,0.480468 v -15.35498 H 22.962402 v 3.503418 H 8.8886719 v 7.927734 q 0.8608398,-0.08008 1.7617191,-0.120117 0.900879,-0.04004 1.561523,-0.04004 2.422363,0 4.244141,0.42041 1.821777,0.400391 3.343261,1.441406 1.601563,1.101075 2.482422,2.842774 0.88086,1.741699 0.88086,4.3642577 z"
       id="text20"
       style="font-stretch:semi-condensed;font-size:41px;font-family:'Aptos Narrow', 'Aptos Narrow_MSFontService', sans-serif;fill:#595959"
       transform="matrix(0.472072 0 0 0.472306 322.402 310)"
       aria-label="5" /><path
       d="m 23.843262,-9.6694336 q 0,4.5444336 -3.00293,7.4272461 -2.98291,2.86279297 -7.327148,2.86279297 -2.202149,0 -4.0039067,-0.68066406 Q 7.7075195,-0.74072266 6.3261719,-2.0820313 4.6044922,-3.7436523 3.6635742,-6.4863281 2.7426758,-9.2290039 2.7426758,-13.092773 q 0,-3.963868 0.8408203,-7.026856 0.8608398,-3.062988 2.7226562,-5.445312 1.7617188,-2.262207 4.5444337,-3.523438 2.782715,-1.28125 6.486328,-1.28125 1.181152,0 1.981934,0.100098 0.800781,0.100097 1.621582,0.360351 v 3.823731 h -0.200196 q -0.560547,-0.300293 -1.70166,-0.560547 -1.121094,-0.280274 -2.302246,-0.280274 -4.304199,0 -6.8666991,2.702637 -2.5625,2.682617 -2.9829102,7.26709 1.6816407,-1.020996 3.3032223,-1.541504 1.641602,-0.540527 3.783692,-0.540527 1.901855,0 3.343262,0.360351 1.461425,0.340332 2.98291,1.401368 1.761718,1.221191 2.642578,3.083007 0.900879,1.861817 0.900879,4.5244144 z m -4.063965,0.1601563 q 0,-1.8618167 -0.560547,-3.0830077 -0.540527,-1.221192 -1.801758,-2.12207 -0.920898,-0.640625 -2.041992,-0.840821 -1.121094,-0.200195 -2.342285,-0.200195 -1.70166,0 -3.1630861,0.400391 -1.4614258,0.40039 -3.0029297,1.24121 -0.040039,0.44043 -0.060059,0.86084 -0.02002,0.400391 -0.02002,1.020996 0,3.1630863 0.640625,5.0048832 0.6606445,1.8217774 1.8017578,2.8828125 0.9208981,0.8808594 1.9819341,1.3012695 1.081054,0.4003907 2.342285,0.4003907 2.902832,0 4.564453,-1.7617188 1.661621,-1.7817383 1.661621,-5.1049804 z"
       id="text21"
       style="font-stretch:semi-condensed;font-size:41px;font-family:'Aptos Narrow', 'Aptos Narrow_MSFontService', sans-serif;fill:#595959"
       transform="matrix(0.472072 0 0 0.472306 322.402 268)"
       aria-label="6" /><path
       d="M 23.48291,-25.344727 9.9897461,0 H 5.7055664 L 20.05957,-26.305664 H 3.0830078 v -3.503418 H 23.48291 Z"
       id="text22"
       style="font-stretch:semi-condensed;font-size:41px;font-family:'Aptos Narrow', 'Aptos Narrow_MSFontService', sans-serif;fill:#595959"
       transform="matrix(0.472072 0 0 0.472306 322.402 225)"
       aria-label="7" /><path
       d="m 26.48584,-9.1689453 q 0,2.222168 -0.84082,3.9238281 -0.840821,1.7016602 -2.262208,2.8027344 -1.68164,1.3212891 -3.703613,1.88183593 Q 17.677246,0 14.574219,0 H 4.0039062 V -29.809082 H 12.83252 q 3.263183,0 4.884765,0.240234 1.621582,0.240235 3.103027,1.000977 1.641602,0.86084 2.382325,2.222168 0.740722,1.341308 0.740722,3.223144 0,2.122071 -1.081054,3.623536 -1.081055,1.481445 -2.882813,2.382324 v 0.160156 q 3.022949,0.620606 4.764649,2.662598 1.741699,2.021972 1.741699,5.1249997 z M 19.819336,-22.602051 q 0,-1.081054 -0.360352,-1.821777 -0.360351,-0.740723 -1.161132,-1.201172 -0.940918,-0.540527 -2.282227,-0.660645 -1.341309,-0.140136 -3.323242,-0.140136 H 7.9677734 v 8.608398 h 5.1249996 q 1.861817,0 2.962891,-0.180176 1.101074,-0.200195 2.041992,-0.800781 0.940918,-0.600586 1.321289,-1.541504 0.400391,-0.960937 0.400391,-2.262207 z m 2.54248,13.5932619 q 0,-1.8017579 -0.540527,-2.8627929 -0.540527,-1.061035 -1.961914,-1.801758 -0.960938,-0.500488 -2.342285,-0.640625 -1.361328,-0.160156 -3.323242,-0.160156 H 7.9677734 v 11.0908202 h 5.2451176 q 2.602539,0 4.26416,-0.2602539 1.661621,-0.2802734 2.722656,-1.0009765 1.121094,-0.7807618 1.641602,-1.7817383 0.520507,-1.0009766 0.520507,-2.5825196 z m 23.402832,-9.2490229 h -0.200195 q -0.84082,-0.200196 -1.641601,-0.280274 -0.780762,-0.100098 -1.861817,-0.100098 -1.741699,0 -3.363281,0.780762 -1.621582,0.760742 -3.123047,1.981934 V 0 h -3.763672 v -22.361816 h 3.763672 v 3.303222 q 2.242188,-1.801758 3.943848,-2.54248 1.721679,-0.760742 3.503418,-0.760742 0.980957,0 1.421386,0.06006 0.44043,0.04004 1.321289,0.180176 z m 7.587403,-7.847657 H 49.10791 v -3.903808 h 4.244141 z M 53.111816,0 h -3.763671 v -22.361816 h 3.763671 z M 77.095215,-1.4013672 Q 75.213379,-0.50048828 73.511719,0 q -1.681641,0.50048828 -3.583496,0.50048828 -2.422364,0 -4.444336,-0.70068359 -2.021973,-0.72070313 -3.463379,-2.16210939 -1.461426,-1.4414062 -2.262207,-3.6435547 -0.800781,-2.2021484 -0.800781,-5.1450196 0,-5.485351 3.002929,-8.608398 3.022949,-3.123047 7.967774,-3.123047 1.921875,0 3.763672,0.540527 1.861816,0.540527 3.40332,1.321289 v 4.184082 H 76.89502 q -1.72168,-1.341308 -3.563477,-2.062011 -1.821777,-0.720704 -3.563477,-0.720704 -3.203125,0 -5.064941,2.16211 -1.841797,2.14209 -1.841797,6.306152 0,4.0439454 1.801758,6.2260743 1.821777,2.1621094 5.10498,2.1621094 1.141114,0 2.322266,-0.300293 1.181152,-0.300293 2.12207,-0.7807617 0.820801,-0.4204102 1.541504,-0.8808594 0.720703,-0.4804687 1.141114,-0.8208008 h 0.200195 z M 102.21973,0 h -4.964847 l -8.96875,-9.7895508 -2.442383,2.3222656 V 0 h -3.763672 v -31.150391 h 3.763672 v 19.979493 l 10.870605,-11.190918 h 4.744625 l -10.390132,10.330078 z"
       id="text23"
       style="font-stretch:semi-condensed;font-size:41px;font-family:'Aptos Narrow', 'Aptos Narrow_MSFontService', sans-serif;fill:#595959"
       transform="matrix(0.472072 0 0 0.472306 442.822 548)"
       aria-label="Brick" /><path
       d="m 28.868164,-2.2021484 q -2.442383,1.1210937 -5.345215,1.96191402 -2.882812,0.82080079 -5.585449,0.82080079 -3.483398,0 -6.38623,-0.9609375 Q 8.6484375,-1.3413086 6.6064453,-3.2631836 4.5444336,-5.2050781 3.4233398,-8.1079102 2.3022461,-11.030762 2.3022461,-14.93457 q 0,-7.146973 4.1640625,-11.270996 4.1840824,-4.144043 11.4711914,-4.144043 2.54248,0 5.185059,0.620605 2.662597,0.600586 5.725586,2.062012 v 4.70459 h -0.360352 q -0.620606,-0.480469 -1.801758,-1.261231 -1.181152,-0.780762 -2.322265,-1.301269 -1.381348,-0.620606 -3.143067,-1.020996 -1.741699,-0.420411 -3.963867,-0.420411 -5.004883,0 -7.9277344,3.223145 -2.9028321,3.203125 -2.9028321,8.688476 0,5.785645 3.0429688,9.0087896 3.0429687,3.203125 8.2880857,3.203125 1.921875,0 3.823731,-0.3803711 1.921875,-0.3803711 3.363281,-0.9809571 V -11.51123 h -7.987793 v -3.483399 H 28.868164 Z M 49.448242,-18.257812 h -0.200195 q -0.84082,-0.200196 -1.641602,-0.280274 -0.780761,-0.100098 -1.861816,-0.100098 -1.741699,0 -3.363281,0.780762 -1.621582,0.760742 -3.123047,1.981934 V 0 h -3.763672 v -22.361816 h 3.763672 v 3.303222 q 2.242187,-1.801758 3.943847,-2.54248 1.72168,-0.760742 3.503418,-0.760742 0.980957,0 1.421387,0.06006 0.44043,0.04004 1.321289,0.180176 z M 69.647949,0 h -3.743652 v -2.3823242 q -0.500488,0.340332 -1.361328,0.9609375 -0.840821,0.60058592 -1.641602,0.96093748 Q 61.960449,0 60.739258,0.30029297 q -1.221192,0.3203125 -2.862793,0.3203125 -3.022949,0 -5.125,-2.00195317 -2.102051,-2.0019531 -2.102051,-5.1049804 0,-2.5424805 1.081055,-4.1040039 1.101074,-1.581543 3.123047,-2.482422 2.041992,-0.900879 4.904785,-1.221191 2.862793,-0.320313 6.145996,-0.480469 v -0.580566 q 0,-1.28125 -0.460449,-2.122071 -0.44043,-0.84082 -1.28125,-1.321289 -0.800782,-0.460449 -1.921875,-0.620605 -1.121094,-0.160157 -2.342286,-0.160157 -1.481445,0 -3.303222,0.400391 -1.821778,0.380371 -3.763672,1.121094 h -0.200195 v -3.823731 q 1.101074,-0.300293 3.183105,-0.660644 2.082031,-0.360352 4.104004,-0.360352 2.362305,0 4.104004,0.400391 1.761719,0.380371 3.042969,1.321289 1.26123,0.920898 1.921875,2.382324 0.660644,1.461426 0.660644,3.623535 z m -3.743652,-5.5053711 v -6.2260739 q -1.72168,0.100097 -4.063965,0.300293 -2.322266,0.200195 -3.683594,0.580566 -1.621582,0.460449 -2.622558,1.4414063 -1.000977,0.9609375 -1.000977,2.6625977 0,1.921875 1.161133,2.902832 1.161133,0.9609375 3.543457,0.9609375 1.981934,0 3.623535,-0.7607422 1.641602,-0.7807617 3.042969,-1.8618164 z m 26.966308,-0.940918 q 0,3.0629883 -2.54248,5.0249024 -2.522461,1.96191404 -6.906738,1.96191404 -2.482422,0 -4.564453,-0.5805664 Q 76.794922,-0.640625 75.393555,-1.3413086 v -4.2241211 h 0.200195 q 1.781738,1.3413086 3.963867,2.1420899 2.182129,0.7807617 4.184082,0.7807617 2.482422,0 3.883789,-0.8007813 1.401367,-0.8007812 1.401367,-2.5224609 0,-1.3212891 -0.760742,-2.0019531 -0.760742,-0.6806641 -2.922851,-1.1611329 -0.800782,-0.1801757 -2.102051,-0.4204101 -1.28125,-0.2402344 -2.342285,-0.5205076 -2.942871,-0.780762 -4.184082,-2.282227 -1.221192,-1.521484 -1.221192,-3.723633 0,-1.381347 0.560547,-2.602539 0.580567,-1.221191 1.741699,-2.182129 1.121094,-0.940918 2.842774,-1.481445 1.741699,-0.560547 3.883789,-0.560547 2.001953,0 4.043945,0.500489 2.062012,0.480468 3.42334,1.181152 v 4.023926 h -0.200195 q -1.441406,-1.061035 -3.503418,-1.781739 -2.062012,-0.740722 -4.043946,-0.740722 -2.062011,0 -3.483398,0.800781 -1.421387,0.780762 -1.421387,2.342285 0,1.381348 0.86084,2.082031 0.84082,0.700684 2.722656,1.141114 1.041016,0.240234 2.322266,0.480468 1.30127,0.240235 2.162109,0.44043 2.622559,0.600586 4.043946,2.062012 1.421386,1.4814451 1.421386,3.9238279 z m 21.360845,0 q 0,3.0629883 -2.54249,5.0249024 -2.52246,1.96191404 -6.90673,1.96191404 -2.48243,0 -4.56446,-0.5805664 Q 98.155762,-0.640625 96.754395,-1.3413086 v -4.2241211 h 0.200195 q 1.781738,1.3413086 3.96387,2.1420899 2.18213,0.7807617 4.18408,0.7807617 2.48242,0 3.88379,-0.8007813 1.40137,-0.8007812 1.40137,-2.5224609 0,-1.3212891 -0.76075,-2.0019531 -0.76074,-0.6806641 -2.92285,-1.1611329 -0.80078,-0.1801757 -2.10205,-0.4204101 -1.28125,-0.2402344 -2.34228,-0.5205076 -2.942875,-0.780762 -4.184086,-2.282227 -1.221192,-1.521484 -1.221192,-3.723633 0,-1.381347 0.560547,-2.602539 0.580566,-1.221191 1.741699,-2.182129 1.121092,-0.940918 2.842772,-1.481445 1.7417,-0.560547 3.88379,-0.560547 2.00195,0 4.04395,0.500489 2.06201,0.480468 3.42334,1.181152 v 4.023926 h -0.2002 q -1.44141,-1.061035 -3.50342,-1.781739 -2.06201,-0.740722 -4.04394,-0.740722 -2.06201,0 -3.4834,0.800781 -1.42139,0.780762 -1.42139,2.342285 0,1.381348 0.86084,2.082031 0.84082,0.700684 2.72266,1.141114 1.04101,0.240234 2.32226,0.480468 1.30127,0.240235 2.16211,0.44043 2.62256,0.600586 4.04395,2.062012 1.42139,1.4814451 1.42139,3.9238279 z"
       id="text24"
       style="font-stretch:semi-condensed;font-size:41px;font-family:'Aptos Narrow', 'Aptos Narrow_MSFontService', sans-serif;fill:#595959"
       transform="matrix(0.472072 0 0 0.472306 664.097 548)"
       aria-label="Grass" /><path
       d="M 30.549805,0 H 26.585937 V -25.685059 L 18.297852,-8.2080078 H 15.935547 L 7.7075195,-25.685059 V 0 H 4.0039062 v -29.809082 h 5.4052735 l 7.9477543,16.596191 7.6875,-16.596191 h 5.505371 z m 25.084472,0 h -3.743652 v -2.3823242 q -0.500488,0.340332 -1.361328,0.9609375 -0.84082,0.60058592 -1.641602,0.96093748 Q 47.946777,0 46.725586,0.30029297 q -1.221191,0.3203125 -2.862793,0.3203125 -3.022949,0 -5.125,-2.00195317 -2.102051,-2.0019531 -2.102051,-5.1049804 0,-2.5424805 1.081055,-4.1040039 1.101074,-1.581543 3.123047,-2.482422 2.041992,-0.900879 4.904785,-1.221191 2.862793,-0.320313 6.145996,-0.480469 v -0.580566 q 0,-1.28125 -0.460449,-2.122071 -0.44043,-0.84082 -1.28125,-1.321289 -0.800781,-0.460449 -1.921875,-0.620605 -1.121094,-0.160157 -2.342285,-0.160157 -1.481446,0 -3.303223,0.400391 -1.821777,0.380371 -3.763672,1.121094 h -0.200195 v -3.823731 q 1.101074,-0.300293 3.183105,-0.660644 2.082031,-0.360352 4.104004,-0.360352 2.362305,0 4.104004,0.400391 1.761719,0.380371 3.042969,1.321289 1.26123,0.920898 1.921875,2.382324 0.660644,1.461426 0.660644,3.623535 z m -3.743652,-5.5053711 v -6.2260739 q -1.72168,0.100097 -4.063965,0.300293 -2.322265,0.200195 -3.683594,0.580566 -1.621582,0.460449 -2.622558,1.4414063 -1.000977,0.9609375 -1.000977,2.6625977 0,1.921875 1.161133,2.902832 1.161133,0.9609375 3.543457,0.9609375 1.981934,0 3.623535,-0.7607422 1.641602,-0.7807617 3.042969,-1.8618164 z M 76.834961,-18.257812 h -0.200195 q -0.840821,-0.200196 -1.641602,-0.280274 -0.780762,-0.100098 -1.861816,-0.100098 -1.7417,0 -3.363282,0.780762 -1.621582,0.760742 -3.123046,1.981934 V 0 h -3.763672 v -22.361816 h 3.763672 v 3.303222 q 2.242187,-1.801758 3.943847,-2.54248 1.72168,-0.760742 3.503418,-0.760742 0.980957,0 1.421387,0.06006 0.44043,0.04004 1.321289,0.180176 z m 23.222659,6.906738 q 0,2.8027342 -0.800784,5.0449217 -0.780762,2.2421875 -2.12207,3.7636718 -1.421387,1.581543 -3.123047,2.38232425 -1.70166,0.78076172 -3.743653,0.78076172 -1.901855,0 -3.323242,-0.46044922 Q 85.523437,-0.28027344 84.14209,-1.0410156 L 83.901855,0 h -3.523437 v -31.150391 h 3.763672 v 11.13086 q 1.581543,-1.30127 3.363281,-2.122071 1.781738,-0.84082 4.003906,-0.84082 3.963868,0 6.246094,3.042969 2.302249,3.042969 2.302249,8.588379 z m -3.883792,0.100097 q 0,-4.003906 -1.321289,-6.065918 -1.321289,-2.082031 -4.26416,-2.082031 -1.641602,0 -3.323242,0.720703 -1.681641,0.700684 -3.123047,1.821778 v 12.8124997 q 1.601562,0.7207031 2.742676,1.0009765 1.161132,0.2802735 2.622558,0.2802735 3.123047,0 4.884766,-2.0419922 1.781738,-2.0620117 1.781738,-6.4462895 z M 109.72705,0 h -3.76367 v -31.150391 h 3.76367 z m 26.16553,-10.790527 H 119.4165 q 0,2.0620114 0.62061,3.6035153 0.6206,1.5214844 1.70166,2.5024414 1.04102,0.9609375 2.4624,1.4414062 1.44141,0.4804688 3.16309,0.4804688 2.28222,0 4.58447,-0.9008789 2.32227,-0.9208985 3.30322,-1.8017578 h 0.2002 v 4.1040039 q -1.90186,0.80078123 -3.88379,1.34130857 -1.98193,0.54052734 -4.16406,0.54052734 -5.56543,0 -8.68848,-3.00292971 -3.12305,-3.0229492 -3.12305,-8.5683591 0,-5.485352 2.98291,-8.708496 3.00293,-3.223145 7.8877,-3.223145 4.52441,0 6.9668,2.642578 2.4624,2.642578 2.4624,7.507324 z M 132.229,-13.67334 q -0.02,-2.96289 -1.50146,-4.584472 -1.46143,-1.621583 -4.46436,-1.621583 -3.02295,0 -4.8247,1.781739 -1.78174,1.781738 -2.02198,4.424316 z"
       id="text25"
       style="font-stretch:semi-condensed;font-size:41px;font-family:'Aptos Narrow', 'Aptos Narrow_MSFontService', sans-serif;fill:#595959"
       transform="matrix(0.472072 0 0 0.472306 884.224 548)"
       aria-label="Marble" /><path
       d="m 26.369141,-23.336914 q 0,2.223633 -0.786133,4.132812 -0.763672,1.886719 -2.15625,3.279297 -1.729492,1.729492 -4.087891,2.605469 -2.358398,0.853516 -5.952148,0.853516 H 8.9394531 V 0 H 4.4921875 v -33.444336 h 9.0742185 q 3.009766,0 5.098633,0.516602 2.088867,0.49414 3.706055,1.572265 1.909179,1.280274 2.942383,3.189453 1.055664,1.90918 1.055664,4.829102 z m -4.626954,0.112305 q 0,-1.729493 -0.606445,-3.009766 -0.606445,-1.280273 -1.841797,-2.088867 -1.078125,-0.696289 -2.470703,-0.988281 -1.370117,-0.314454 -3.481445,-0.314454 H 8.9394531 v 13.364258 H 12.69043 q 2.695312,0 4.379882,-0.471679 1.684571,-0.494141 2.740235,-1.549805 1.055664,-1.078125 1.482422,-2.268555 0.449218,-1.190429 0.449218,-2.672851 z M 50.267578,0 h -4.200195 v -2.6728516 q -0.561524,0.381836 -1.527344,1.078125 -0.943359,0.67382816 -1.841797,1.07812504 Q 41.642578,0 40.272461,0.33691406 q -1.370117,0.359375 -3.211914,0.359375 -3.391602,0 -5.75,-2.24609376 -2.358399,-2.2460937 -2.358399,-5.727539 0,-2.8525393 1.212891,-4.6044923 1.235352,-1.774414 3.503906,-2.785156 2.291016,-1.010742 5.50293,-1.370117 3.211914,-0.359375 6.895508,-0.539063 v -0.651367 q 0,-1.4375 -0.516602,-2.380859 -0.49414,-0.94336 -1.4375,-1.482422 -0.898437,-0.516602 -2.15625,-0.696289 -1.257812,-0.179688 -2.627929,-0.179688 -1.66211,0 -3.706055,0.449219 -2.043945,0.426758 -4.222656,1.257812 h -0.22461 v -4.290039 q 1.235352,-0.336914 3.571289,-0.741211 2.335938,-0.404296 4.604492,-0.404296 2.650391,0 4.604493,0.449218 1.976562,0.426758 3.414062,1.482422 1.415039,1.033203 2.15625,2.672852 0.741211,1.639648 0.741211,4.065429 z m -4.200195,-6.1767578 v -6.9853512 q -1.931641,0.112304 -4.559571,0.336914 -2.605468,0.224609 -4.132812,0.651367 -1.819336,0.516601 -2.942383,1.617187 -1.123047,1.0781254 -1.123047,2.9873051 0,2.15625 1.302735,3.2568359 1.302734,1.078125 3.975586,1.078125 2.223632,0 4.065429,-0.8535156 1.841797,-0.8759766 3.414063,-2.0888672 z M 74.053711,-20.484375 h -0.224609 q -0.94336,-0.224609 -1.841797,-0.314453 -0.875977,-0.112305 -2.088868,-0.112305 -1.954101,0 -3.773437,0.875977 -1.819336,0.853515 -3.503906,2.223633 V 0 h -4.222657 v -25.088867 h 4.222657 v 3.706055 q 2.515625,-2.021485 4.424804,-2.85254 1.931641,-0.853515 3.930664,-0.853515 1.100586,0 1.594727,0.06738 0.494141,0.04492 1.482422,0.202148 z m 17.00293,20.25976562 q -1.19043,0.31445313 -2.605469,0.51660157 -1.392578,0.20214844 -2.493164,0.20214844 -3.840821,0 -5.839844,-2.06640623 -1.999023,-2.0664063 -1.999023,-6.6259766 V -21.540039 h -2.852539 v -3.548828 h 2.852539 v -7.209961 h 4.222656 v 7.209961 h 8.714844 v 3.548828 h -8.714844 v 11.432617 q 0,1.9765626 0.08984,3.0996095 0.08984,1.1005859 0.628906,2.0664063 0.49414,0.8984375 1.347656,1.3251953 0.875977,0.4042968 2.650391,0.4042968 1.033203,0 2.15625,-0.2919922 1.123047,-0.3144531 1.617187,-0.5166015 h 0.22461 z M 100.69238,-29.289062 h -4.761716 v -4.379883 h 4.761716 z M 100.42285,0 h -4.222655 v -25.088867 h 4.222655 z m 26.9082,-1.5722656 Q 125.21973,-0.56152344 123.31055,0 q -1.88672,0.56152344 -4.02051,0.56152344 -2.71777,0 -4.98633,-0.78613282 -2.26855,-0.80859372 -3.88574,-2.42578122 -1.63965,-1.6171875 -2.53809,-4.0878906 -0.89843,-2.4707032 -0.89843,-5.7724608 0,-6.154297 3.36914,-9.658203 3.3916,-3.503907 8.93945,-3.503907 2.15625,0 4.22266,0.606446 2.08886,0.606445 3.81835,1.482422 v 4.694336 h -0.2246 q -1.93165,-1.504883 -3.99805,-2.313477 -2.04395,-0.808594 -3.99805,-0.808594 -3.59375,0 -5.68262,2.425782 -2.0664,2.40332 -2.0664,7.075195 0,4.5371092 2.02148,6.9853514 2.04395,2.4257812 5.72754,2.4257812 1.28028,0 2.60547,-0.336914 1.3252,-0.3369141 2.38086,-0.8759766 0.9209,-0.4716797 1.72949,-0.9882812 0.8086,-0.5390625 1.28028,-0.9208985 h 0.2246 z m 9.9502,-27.7167964 h -4.76172 v -4.379883 h 4.76172 z M 137.01172,0 h -4.22266 v -25.088867 h 4.22266 z m 30.43457,-12.847656 q 0,3.0546872 -0.87598,5.5927732 -0.87597,2.515625 -2.4707,4.2675781 -1.48242,1.6621094 -3.50391,2.58300782 -1.99902,0.89843751 -4.24511,0.89843751 -1.95411,0 -3.54883,-0.42675782 -1.57227,-0.42675781 -3.21192,-1.32519531 V 9.2539063 h -4.22265 V -25.088867 h 4.22265 v 2.62793 q 1.68457,-1.41504 3.77344,-2.358399 2.11133,-0.96582 4.49219,-0.96582 4.53711,0 7.05273,3.436523 2.53809,3.414063 2.53809,9.500977 z m -4.35742,0.112304 q 0,-4.537109 -1.54981,-6.783203 -1.5498,-2.246093 -4.76172,-2.246093 -1.81933,0 -3.66113,0.786132 -1.8418,0.786133 -3.52637,2.066407 v 14.2177731 q 1.79688,0.8085937 3.07715,1.1005859 1.30274,0.2919922 2.94238,0.2919922 3.52637,0 5.50293,-2.3808594 1.97657,-2.3808594 1.97657,-7.0527348 z M 193.52344,0 h -4.2002 v -2.6728516 q -0.56152,0.381836 -1.52734,1.078125 -0.94336,0.67382816 -1.8418,1.07812504 Q 184.89844,0 183.52832,0.33691406 q -1.37012,0.359375 -3.21191,0.359375 -3.39161,0 -5.75,-2.24609376 -2.3584,-2.2460937 -2.3584,-5.727539 0,-2.8525393 1.21289,-4.6044923 1.23535,-1.774414 3.5039,-2.785156 2.29102,-1.010742 5.50293,-1.370117 3.21192,-0.359375 6.89551,-0.539063 v -0.651367 q 0,-1.4375 -0.5166,-2.380859 -0.49414,-0.94336 -1.4375,-1.482422 -0.89844,-0.516602 -2.15625,-0.696289 -1.25781,-0.179688 -2.62793,-0.179688 -1.66211,0 -3.70605,0.449219 -2.04395,0.426758 -4.22266,1.257812 h -0.22461 v -4.290039 q 1.23535,-0.336914 3.57129,-0.741211 2.33594,-0.404296 4.60449,-0.404296 2.65039,0 4.60449,0.449218 1.97657,0.426758 3.41407,1.482422 1.41504,1.033203 2.15625,2.672852 0.74121,1.639648 0.74121,4.065429 z m -4.2002,-6.1767578 v -6.9853512 q -1.93164,0.112304 -4.55957,0.336914 -2.60547,0.224609 -4.13281,0.651367 -1.81934,0.516601 -2.94238,1.617187 -1.12305,1.0781254 -1.12305,2.9873051 0,2.15625 1.30273,3.2568359 1.30274,1.078125 3.97559,1.078125 2.22363,0 4.06543,-0.8535156 1.8418,-0.8759766 3.41406,-2.0888672 z M 222.63281,0 h -4.22265 v -14.285156 q 0,-1.729492 -0.20215,-3.234375 -0.20215,-1.527344 -0.74121,-2.38086 -0.56153,-0.943359 -1.61719,-1.392578 -1.05566,-0.471679 -2.74024,-0.471679 -1.72949,0 -3.61621,0.853515 -1.88671,0.853516 -3.61621,2.178711 V 0 h -4.22265 v -25.088867 h 4.22265 v 2.785156 q 1.97657,-1.639648 4.08789,-2.560547 2.11133,-0.920898 4.33496,-0.920898 4.06543,0 6.19922,2.448242 2.13379,2.448242 2.13379,7.052734 z m 21.15821,-0.22460938 q -1.19043,0.31445313 -2.60547,0.51660157 -1.39258,0.20214844 -2.49317,0.20214844 -3.84082,0 -5.83984,-2.06640623 -1.99902,-2.0664063 -1.99902,-6.6259766 V -21.540039 h -2.85254 v -3.548828 h 2.85254 v -7.209961 h 4.22265 v 7.209961 h 8.71485 v 3.548828 h -8.71485 v 11.432617 q 0,1.9765626 0.0899,3.0996095 0.0898,1.1005859 0.6289,2.0664063 0.49414,0.8984375 1.34766,1.3251953 0.87597,0.4042968 2.65039,0.4042968 1.0332,0 2.15625,-0.2919922 1.12305,-0.3144531 1.61719,-0.5166015 h 0.22461 z m 23.02246,-7.00781252 q 0,3.4365235 -2.85254,5.6376953 -2.83008,2.20117191 -7.74903,2.20117191 -2.78515,0 -5.12109,-0.65136718 -2.31348,-0.67382813 -3.88574,-1.45996093 v -4.7392578 h 0.22461 q 1.99902,1.5048828 4.44726,2.4033203 2.44825,0.8759765 4.69434,0.8759765 2.78516,0 4.35742,-0.8984375 1.57227,-0.8984374 1.57227,-2.8300781 0,-1.4824219 -0.85352,-2.2460937 -0.85351,-0.7636719 -3.2793,-1.3027349 -0.89843,-0.202148 -2.35839,-0.471679 -1.4375,-0.269531 -2.62793,-0.583985 -3.30176,-0.875976 -4.69434,-2.560546 -1.37012,-1.707032 -1.37012,-4.177735 0,-1.549804 0.62891,-2.919922 0.65137,-1.370117 1.9541,-2.448242 1.25781,-1.055664 3.18945,-1.662109 1.95411,-0.628906 4.35743,-0.628906 2.24609,0 4.5371,0.561523 2.31348,0.539062 3.84083,1.325195 v 4.514649 h -0.22461 q -1.61719,-1.19043 -3.93067,-1.999024 -2.31347,-0.831054 -4.53711,-0.831054 -2.31347,0 -3.9082,0.898437 -1.59473,0.875977 -1.59473,2.62793 0,1.549804 0.96582,2.335937 0.94336,0.786133 3.05469,1.280274 1.16797,0.269531 2.60547,0.539062 1.45996,0.269531 2.42578,0.494141 2.94238,0.673828 4.53711,2.313476 1.59473,1.6621097 1.59473,4.4023441 z"
       id="text26"
       style="font-stretch:semi-condensed;font-size:46px;font-family:'Aptos Narrow', 'Aptos Narrow_MSFontService', sans-serif;fill:#595959"
       transform="matrix(2.89061e-17 -0.472306 0.472072 2.89204e-17 309.797 421)"
       aria-label="Participants" /><path
       d="M 34.275391,0 H 29.828125 V -28.817383 L 20.529297,-9.2089844 H 17.878906 L 8.6474609,-28.817383 V 0 H 4.4921875 v -33.444336 h 6.0644535 l 8.916992,18.620117 8.625,-18.620117 h 6.176758 z M 62.418945,0 H 58.21875 v -2.6728516 q -0.561523,0.381836 -1.527344,1.078125 -0.943359,0.67382816 -1.841797,1.07812504 Q 53.793945,0 52.423828,0.33691406 q -1.370117,0.359375 -3.211914,0.359375 -3.391602,0 -5.75,-2.24609376 -2.358398,-2.2460937 -2.358398,-5.727539 0,-2.8525393 1.21289,-4.6044923 1.235352,-1.774414 3.503906,-2.785156 2.291016,-1.010742 5.50293,-1.370117 3.211914,-0.359375 6.895508,-0.539063 v -0.651367 q 0,-1.4375 -0.516602,-2.380859 -0.49414,-0.94336 -1.4375,-1.482422 -0.898437,-0.516602 -2.15625,-0.696289 -1.257812,-0.179688 -2.627929,-0.179688 -1.66211,0 -3.706055,0.449219 -2.043945,0.426758 -4.222656,1.257812 h -0.22461 v -4.290039 q 1.235352,-0.336914 3.571289,-0.741211 2.335938,-0.404296 4.604493,-0.404296 2.65039,0 4.604492,0.449218 1.976562,0.426758 3.414062,1.482422 1.415039,1.033203 2.15625,2.672852 0.741211,1.639648 0.741211,4.065429 z M 58.21875,-6.1767578 v -6.9853512 q -1.931641,0.112304 -4.55957,0.336914 -2.605469,0.224609 -4.132813,0.651367 -1.819336,0.516601 -2.942383,1.617187 -1.123047,1.0781254 -1.123047,2.9873051 0,2.15625 1.302735,3.2568359 1.302734,1.078125 3.975586,1.078125 2.223633,0 4.065429,-0.8535156 1.841797,-0.8759766 3.414063,-2.0888672 z m 25.358398,5.95214842 q -1.190429,0.31445313 -2.605468,0.51660157 -1.392578,0.20214844 -2.493164,0.20214844 -3.840821,0 -5.839844,-2.06640623 -1.999024,-2.0664063 -1.999024,-6.6259766 V -21.540039 h -2.852539 v -3.548828 h 2.852539 v -7.209961 h 4.222657 v 7.209961 h 8.714843 v 3.548828 h -8.714843 v 11.432617 q 0,1.9765626 0.08984,3.0996095 0.08984,1.1005859 0.628907,2.0664063 0.49414,0.8984375 1.347656,1.3251953 0.875976,0.4042968 2.650391,0.4042968 1.033203,0 2.15625,-0.2919922 1.123046,-0.3144531 1.617187,-0.5166015 h 0.224609 z M 109.67676,-12.106445 H 91.191406 q 0,2.3134762 0.696289,4.0429684 0.696289,1.7070313 1.90918,2.8076172 1.167969,1.078125 2.762695,1.6171875 1.617188,0.5390625 3.54883,0.5390625 2.56055,0 5.14355,-1.0107422 2.60547,-1.0332031 3.70606,-2.0214843 h 0.22461 v 4.6044922 q -2.13379,0.89843745 -4.35742,1.50488276 -2.22364,0.60644531 -4.67188,0.60644531 -6.24414,0 -9.748047,-3.36914067 -3.503906,-3.3916015 -3.503906,-9.6132817 0,-6.154296 3.34668,-9.770507 3.36914,-3.616211 8.849609,-3.616211 5.076174,0 7.816404,2.964844 2.7627,2.964843 2.7627,8.422851 z m -4.11035,-3.234375 q -0.0225,-3.324219 -1.68457,-5.143555 -1.63965,-1.819336 -5.008793,-1.819336 -3.391602,0 -5.413086,1.999024 -1.999024,1.999023 -2.268555,4.963867 z m 26.16699,-5.143555 h -0.22461 q -0.94336,-0.224609 -1.8418,-0.314453 -0.87597,-0.112305 -2.08886,-0.112305 -1.95411,0 -3.77344,0.875977 -1.81934,0.853515 -3.50391,2.223633 V 0 h -4.22265 v -25.088867 h 4.22265 v 3.706055 q 2.51563,-2.021485 4.42481,-2.85254 1.93164,-0.853515 3.93066,-0.853515 1.10059,0 1.59473,0.06738 0.49414,0.04492 1.48242,0.202148 z m 8.51269,-8.804687 h -4.76172 v -4.379883 h 4.76172 z M 139.97656,0 h -4.22265 v -25.088867 h 4.22265 z m 27.85156,0 h -4.20019 v -2.6728516 q -0.56152,0.381836 -1.52734,1.078125 -0.94336,0.67382816 -1.8418,1.07812504 Q 159.20312,0 157.83301,0.33691406 q -1.37012,0.359375 -3.21192,0.359375 -3.3916,0 -5.75,-2.24609376 -2.35839,-2.2460937 -2.35839,-5.727539 0,-2.8525393 1.21289,-4.6044923 1.23535,-1.774414 3.5039,-2.785156 2.29102,-1.010742 5.50293,-1.370117 3.21192,-0.359375 6.89551,-0.539063 v -0.651367 q 0,-1.4375 -0.5166,-2.380859 -0.49414,-0.94336 -1.4375,-1.482422 -0.89844,-0.516602 -2.15625,-0.696289 -1.25781,-0.179688 -2.62793,-0.179688 -1.66211,0 -3.70606,0.449219 -2.04394,0.426758 -4.22265,1.257812 h -0.22461 v -4.290039 q 1.23535,-0.336914 3.57129,-0.741211 2.33593,-0.404296 4.60449,-0.404296 2.65039,0 4.60449,0.449218 1.97656,0.426758 3.41406,1.482422 1.41504,1.033203 2.15625,2.672852 0.74121,1.639648 0.74121,4.065429 z m -4.20019,-6.1767578 v -6.9853512 q -1.93164,0.112304 -4.55957,0.336914 -2.60547,0.224609 -4.13281,0.651367 -1.81934,0.516601 -2.94239,1.617187 -1.12304,1.0781254 -1.12304,2.9873051 0,2.15625 1.30273,3.2568359 1.30274,1.078125 3.97559,1.078125 2.22363,0 4.06543,-0.8535156 1.84179,-0.8759766 3.41406,-2.0888672 z M 180.22656,0 h -4.22265 v -34.949219 h 4.22265 z"
       id="text27"
       style="font-stretch:semi-condensed;font-size:46px;font-family:'Aptos Narrow', 'Aptos Narrow_MSFontService', sans-serif;fill:#595959"
       transform="matrix(0.472072 0 0 0.472306 651.554 580)"
       aria-label="Material" /><path
       d="M1786.79 1437.93 1797.65 1437.93 1797.65 1448.79 1786.79 1448.79Z"
       fill="#156082"
       transform="matrix(1 0 0 1.0005 -1201.42 -811.957)"
       id="path27" /><path
       d="m 23.362793,-14.914551 q 0,8.0278323 -2.522461,11.7915041 -2.502441,3.74365237 -7.787598,3.74365237 -5.365234,0 -7.8476559,-3.80371097 -2.4624023,-3.8037109 -2.4624023,-11.6914065 0,-7.947754 2.5024414,-11.731445 2.5024414,-3.803711 7.8076168,-3.803711 5.365235,0 7.827637,3.86377 2.482422,3.84375 2.482422,11.631347 z m -5.265137,9.0888674 q 0.700684,-1.621582 0.940918,-3.8037109 0.260254,-2.2021485 0.260254,-5.2851565 0,-3.042969 -0.260254,-5.285156 -0.240234,-2.242188 -0.960937,-3.803711 -0.700684,-1.541504 -1.921875,-2.322266 -1.201172,-0.780761 -3.103028,-0.780761 -1.881836,0 -3.1230465,0.780761 -1.2211914,0.780762 -1.9418945,2.362305 -0.6806641,1.481445 -0.940918,3.86377 -0.2402344,2.382324 -0.2402344,5.225097 0,3.123047 0.2202149,5.2250979 0.2202148,2.1020508 0.9409179,3.7636719 0.6606446,1.5615235 1.8618164,2.3823242 1.2211912,0.8208008 3.2231442,0.8208008 1.881836,0 3.123047,-0.7807617 1.241211,-0.7807617 1.921875,-2.3623047 z"
       id="text28"
       style="font-stretch:semi-condensed;font-size:41px;font-family:'Aptos Narrow', 'Aptos Narrow_MSFontService', sans-serif;fill:#595959"
       transform="matrix(0.472072 0 0 0.472306 600.759 638)"
       aria-label="0" /><path
       d="m 9.8496094,0 h -4.784668 v -5.7055664 h 4.784668 z"
       id="text29"
       style="font-stretch:semi-condensed;font-size:41px;font-family:'Aptos Narrow', 'Aptos Narrow_MSFontService', sans-serif;fill:#595959"
       transform="matrix(0.472072 0 0 0.472306 610.672 638)"
       aria-label="." /><path
       d="M 23.402832,0 H 3.2231445 v -4.184082 q 2.1020508,-1.8017578 4.2041016,-3.6035157 2.1220703,-1.8017578 3.9438479,-3.5834963 3.84375,-3.723633 5.265136,-5.905761 1.421387,-2.202149 1.421387,-4.744629 0,-2.322266 -1.541504,-3.623536 -1.521484,-1.321289 -4.26416,-1.321289 -1.821777,0 -3.9438475,0.640625 -2.1220703,0.640625 -4.144043,1.961914 H 3.9638672 v -4.204101 q 1.4213867,-0.700684 3.7836914,-1.28125 2.3823244,-0.580566 4.6044924,-0.580566 4.584472,0 7.187011,2.222167 2.60254,2.202149 2.60254,5.98584 0,1.70166 -0.44043,3.183106 -0.42041,1.461426 -1.261231,2.782715 -0.780761,1.241211 -1.841796,2.442382 -1.041016,1.201172 -2.542481,2.662598 -2.14209,2.1020509 -4.424316,4.0839845 -2.2822269,1.961914 -4.2641605,3.6435547 H 23.402832 Z"
       id="text30"
       style="font-stretch:semi-condensed;font-size:41px;font-family:'Aptos Narrow', 'Aptos Narrow_MSFontService', sans-serif;fill:#595959"
       transform="matrix(0.472072 0 0 0.472306 615.865 638)"
       aria-label="2" /><path
       d="M1840.14 1437.93 1850.99 1437.93 1850.99 1448.79 1840.14 1448.79Z"
       fill="#E97132"
       transform="matrix(1 0 0 1.0005 -1201.42 -811.957)"
       id="path30" /><path
       d="m 23.362793,-14.914551 q 0,8.0278323 -2.522461,11.7915041 -2.502441,3.74365237 -7.787598,3.74365237 -5.365234,0 -7.8476559,-3.80371097 -2.4624023,-3.8037109 -2.4624023,-11.6914065 0,-7.947754 2.5024414,-11.731445 2.5024414,-3.803711 7.8076168,-3.803711 5.365235,0 7.827637,3.86377 2.482422,3.84375 2.482422,11.631347 z m -5.265137,9.0888674 q 0.700684,-1.621582 0.940918,-3.8037109 0.260254,-2.2021485 0.260254,-5.2851565 0,-3.042969 -0.260254,-5.285156 -0.240234,-2.242188 -0.960937,-3.803711 -0.700684,-1.541504 -1.921875,-2.322266 -1.201172,-0.780761 -3.103028,-0.780761 -1.881836,0 -3.1230465,0.780761 -1.2211914,0.780762 -1.9418945,2.362305 -0.6806641,1.481445 -0.940918,3.86377 -0.2402344,2.382324 -0.2402344,5.225097 0,3.123047 0.2202149,5.2250979 0.2202148,2.1020508 0.9409179,3.7636719 0.6606446,1.5615235 1.8618164,2.3823242 1.2211912,0.8208008 3.2231442,0.8208008 1.881836,0 3.123047,-0.7807617 1.241211,-0.7807617 1.921875,-2.3623047 z"
       id="text31"
       style="font-stretch:semi-condensed;font-size:41px;font-family:'Aptos Narrow', 'Aptos Narrow_MSFontService', sans-serif;fill:#595959"
       transform="matrix(0.472072 0 0 0.472306 653.876 638)"
       aria-label="0" /><path
       d="m 9.8496094,0 h -4.784668 v -5.7055664 h 4.784668 z"
       id="text32"
       style="font-stretch:semi-condensed;font-size:41px;font-family:'Aptos Narrow', 'Aptos Narrow_MSFontService', sans-serif;fill:#595959"
       transform="matrix(0.472072 0 0 0.472306 663.79 638)"
       aria-label="." /><path
       d="m 23.162598,-9.4692383 q 0,2.0820313 -0.760743,3.9838867 -0.760742,1.9018555 -2.082031,3.203125 -1.441406,1.40136722 -3.443359,2.16210941 -1.981934,0.74072266 -4.604492,0.74072266 -2.4423832,0 -4.7045902,-0.52050781 -2.262207,-0.50048829 -3.8237305,-1.22119136 v -4.2241211 h 0.2802735 q 1.6416015,1.0410156 3.84375,1.7817382 2.2021482,0.7207032 4.3242192,0.7207032 1.421386,0 2.742675,-0.4003907 1.341309,-0.4003906 2.382325,-1.4013671 0.880859,-0.8608399 1.321289,-2.0620118 0.460449,-1.2011718 0.460449,-2.7827148 0,-1.5415042 -0.540528,-2.6025392 -0.520507,-1.061035 -1.461425,-1.70166 -1.041016,-0.760742 -2.542481,-1.061035 -1.481445,-0.320313 -3.323242,-0.320313 -1.7617187,0 -3.4033203,0.240235 -1.621582,0.240234 -2.8027344,0.480468 v -15.35498 H 22.962402 v 3.503418 H 8.8886719 v 7.927734 q 0.8608398,-0.08008 1.7617191,-0.120117 0.900879,-0.04004 1.561523,-0.04004 2.422363,0 4.244141,0.42041 1.821777,0.400391 3.343261,1.441406 1.601563,1.101075 2.482422,2.842774 0.88086,1.741699 0.88086,4.3642577 z"
       id="text33"
       style="font-stretch:semi-condensed;font-size:41px;font-family:'Aptos Narrow', 'Aptos Narrow_MSFontService', sans-serif;fill:#595959"
       transform="matrix(0.472072 0 0 0.472306 668.983 638)"
       aria-label="5" /><path
       d="M1893.01 1437.93 1903.87 1437.93 1903.87 1448.79 1893.01 1448.79Z"
       fill="#196B24"
       transform="matrix(1 0 0 1.0005 -1201.42 -811.957)"
       id="path33" /><path
       d="M 21.701172,0 H 5.5654297 V -3.0429688 H 11.771484 V -23.022461 H 5.5654297 v -2.722656 q 1.2612305,0 2.7026367,-0.200195 1.4414063,-0.220215 2.1821286,-0.620606 0.920899,-0.500488 1.441407,-1.26123 0.540527,-0.780762 0.620605,-2.082032 h 3.103027 v 26.8662112 h 6.085938 z"
       id="text34"
       style="font-stretch:semi-condensed;font-size:41px;font-family:'Aptos Narrow', 'Aptos Narrow_MSFontService', sans-serif;fill:#595959"
       transform="matrix(0.472072 0 0 0.472306 706.989 638)"
       aria-label="1" /><path
       d="m 9.8496094,0 h -4.784668 v -5.7055664 h 4.784668 z"
       id="text35"
       style="font-stretch:semi-condensed;font-size:41px;font-family:'Aptos Narrow', 'Aptos Narrow_MSFontService', sans-serif;fill:#595959"
       transform="matrix(0.472072 0 0 0.472306 716.903 638)"
       aria-label="." /><path
       d="m 23.362793,-14.914551 q 0,8.0278323 -2.522461,11.7915041 -2.502441,3.74365237 -7.787598,3.74365237 -5.365234,0 -7.8476559,-3.80371097 -2.4624023,-3.8037109 -2.4624023,-11.6914065 0,-7.947754 2.5024414,-11.731445 2.5024414,-3.803711 7.8076168,-3.803711 5.365235,0 7.827637,3.86377 2.482422,3.84375 2.482422,11.631347 z m -5.265137,9.0888674 q 0.700684,-1.621582 0.940918,-3.8037109 0.260254,-2.2021485 0.260254,-5.2851565 0,-3.042969 -0.260254,-5.285156 -0.240234,-2.242188 -0.960937,-3.803711 -0.700684,-1.541504 -1.921875,-2.322266 -1.201172,-0.780761 -3.103028,-0.780761 -1.881836,0 -3.1230465,0.780761 -1.2211914,0.780762 -1.9418945,2.362305 -0.6806641,1.481445 -0.940918,3.86377 -0.2402344,2.382324 -0.2402344,5.225097 0,3.123047 0.2202149,5.2250979 0.2202148,2.1020508 0.9409179,3.7636719 0.6606446,1.5615235 1.8618164,2.3823242 1.2211912,0.8208008 3.2231442,0.8208008 1.881836,0 3.123047,-0.7807617 1.241211,-0.7807617 1.921875,-2.3623047 z"
       id="text36"
       style="font-stretch:semi-condensed;font-size:41px;font-family:'Aptos Narrow', 'Aptos Narrow_MSFontService', sans-serif;fill:#595959"
       transform="matrix(0.472072 0 0 0.472306 722.096 638)"
       aria-label="0" /><path
       d="M1464.13 1007.17 2248.72 1007.17 2248.72 1474.52 1464.13 1474.52Z"
       stroke="#D9D9D9"
       stroke-width="1.62275"
       stroke-linejoin="round"
       stroke-miterlimit="10"
       fill="none"
       transform="matrix(1 0 0 1.0005 -1201.42 -811.957)"
       id="path36" /><text
       xml:space="preserve"
       transform="translate(262,195)"
       id="text37"
       style="fill:#000000;text-orientation:auto;text-align:start;writing-mode:lr-tb;direction:ltr;white-space:pre;shape-inside:url(#rect37)" /><text
       xml:space="preserve"
       transform="translate(262,195)"
       id="text38"
       style="fill:#000000;text-orientation:auto;text-align:start;writing-mode:lr-tb;direction:ltr;white-space:pre;shape-inside:url(#rect38)" /></g></svg>
