<svg width="680" height="393" xmlns="http://www.w3.org/2000/svg" xmlns:xlink="http://www.w3.org/1999/xlink" xml:space="preserve" overflow="hidden"><g transform="translate(-576 -220)"><path d="M713.453 405.022 1390.84 405.022 1390.84 796.778 713.453 796.778Z" fill="#FFFFFF" transform="matrix(1.00202 0 0 1 -138.478 -184.608)"/><path d="M799.059 678.443 1369.9 678.443M799.059 644.45 1369.9 644.45M799.059 610.456 1369.9 610.456M799.059 576.048 1369.9 576.048M799.059 542.05 1369.9 542.05M799.059 508.056 1369.9 508.056M799.059 473.648 1369.9 473.648M799.059 439.638 1369.9 439.638" stroke="#D9D9D9" stroke-width="1.42504" stroke-linejoin="round" stroke-miterlimit="10" fill="none" transform="matrix(1.00202 0 0 1 -138.478 -184.608)"/><path d="M815.434 576.234 830.358 576.234 830.358 712.623 815.434 712.623Z" fill="#FF0000" transform="matrix(1.00202 0 0 1 -138.478 -184.608)"/><path d="M863.108 514.88 878.031 514.88 878.031 712.623 863.108 712.623Z" fill="#C04F15" transform="matrix(1.00202 0 0 1 -138.478 -184.608)"/><path d="M910.367 562.554 925.291 562.554 925.291 712.623 910.367 712.623Z" fill="#660033" transform="matrix(1.00202 0 0 1 -138.478 -184.608)"/><path d="M958.041 542.24 972.965 542.24 972.965 712.623 958.041 712.623Z" fill="#FF00FF" transform="matrix(1.00202 0 0 1 -138.478 -184.608)"/><path d="M1005.72 582.867 1020.64 582.867 1020.64 712.623 1005.72 712.623Z" fill="#FFCC99" transform="matrix(1.00202 0 0 1 -138.478 -184.608)"/><path d="M1053.39 514.88 1068.31 514.88 1068.31 712.623 1053.39 712.623Z" fill="#0070C0" transform="matrix(1.00202 0 0 1 -138.478 -184.608)"/><path d="M1100.65 507.832 1115.57 507.832 1115.57 712.623 1100.65 712.623Z" fill="#FF9999" transform="matrix(1.00202 0 0 1 -138.478 -184.608)"/><path d="M1148.32 582.867 1163.25 582.867 1163.25 712.623 1148.32 712.623Z" fill="#33CCFF" transform="matrix(1.00202 0 0 1 -138.478 -184.608)"/><path d="M1196 555.921 1210.92 555.921 1210.92 712.623 1196 712.623Z" fill="#D86ECC" transform="matrix(1.00202 0 0 1 -138.478 -184.608)"/><path d="M1290.93 542.24 1305.85 542.24 1305.85 712.623 1290.93 712.623Z" fill="#84E291" transform="matrix(1.00202 0 0 1 -138.478 -184.608)"/><path d="M1338.6 514.88 1353.53 514.88 1353.53 712.623 1338.6 712.623Z" fill="#FFC000" transform="matrix(1.00202 0 0 1 -138.478 -184.608)"/><path d="M1243.3 494.168 1258.22 494.168 1258.22 712.623 1243.3 712.623Z" fill="#156082" transform="matrix(1.00202 0 0 1 -138.478 -184.608)"/><path d="M822.717 576.048 822.717 585.147M822.717 576.048 822.717 567.321M818.543 585.147 827.248 585.147M818.543 567.321 827.248 567.321" stroke="#595959" stroke-width="1.42504" stroke-linejoin="round" stroke-miterlimit="10" fill="none" transform="matrix(1.00202 0 0 1 -138.478 -184.608)"/><path d="M870.391 514.689 870.391 523.793M870.391 514.689 870.391 505.552M866.217 523.793 874.508 523.793M866.217 505.552 874.508 505.552" stroke="#595959" stroke-width="1.42504" stroke-linejoin="round" stroke-miterlimit="10" fill="none" transform="matrix(1.00202 0 0 1 -138.478 -184.608)"/><path d="M918.065 562.363 918.065 571.467M918.065 562.363 918.065 553.641M913.891 571.467 922.182 571.467M913.891 553.641 922.182 553.641" stroke="#595959" stroke-width="1.42504" stroke-linejoin="round" stroke-miterlimit="10" fill="none" transform="matrix(1.00202 0 0 1 -138.478 -184.608)"/><path d="M965.329 542.05 965.329 551.153M965.329 542.05 965.329 532.913M961.15 551.153 969.856 551.153M961.15 532.913 969.856 532.913" stroke="#595959" stroke-width="1.42504" stroke-linejoin="round" stroke-miterlimit="10" fill="none" transform="matrix(1.00202 0 0 1 -138.478 -184.608)"/><path d="M1013 583.095 1013 592.195M1013 583.095 1013 573.954M1008.82 592.195 1017.53 592.195M1008.82 573.954 1017.53 573.954" stroke="#595959" stroke-width="1.42504" stroke-linejoin="round" stroke-miterlimit="10" fill="none" transform="matrix(1.00202 0 0 1 -138.478 -184.608)"/><path d="M1060.68 514.689 1060.68 523.793M1060.68 514.689 1060.68 505.552M1056.5 523.793 1064.79 523.793M1056.5 505.552 1064.79 505.552" stroke="#595959" stroke-width="1.42504" stroke-linejoin="round" stroke-miterlimit="10" fill="none" transform="matrix(1.00202 0 0 1 -138.478 -184.608)"/><path d="M1108.36 508.056 1108.36 517.16M1108.36 508.056 1108.36 498.919M1103.76 517.16 1112.46 517.16M1103.76 498.919 1112.46 498.919" stroke="#595959" stroke-width="1.42504" stroke-linejoin="round" stroke-miterlimit="10" fill="none" transform="matrix(1.00202 0 0 1 -138.478 -184.608)"/><path d="M1155.61 583.095 1155.61 592.195M1155.61 583.095 1155.61 573.954M1151.43 592.195 1160.14 592.195M1151.43 573.954 1160.14 573.954" stroke="#595959" stroke-width="1.42504" stroke-linejoin="round" stroke-miterlimit="10" fill="none" transform="matrix(1.00202 0 0 1 -138.478 -184.608)"/><path d="M1203.29 555.73 1203.29 564.834M1203.29 555.73 1203.29 546.593M1199.11 564.834 1207.81 564.834M1199.11 546.593 1207.81 546.593" stroke="#595959" stroke-width="1.42504" stroke-linejoin="round" stroke-miterlimit="10" fill="none" transform="matrix(1.00202 0 0 1 -138.478 -184.608)"/><path d="M1250.97 494.376 1250.97 503.479M1250.97 494.376 1250.97 485.239M1246.78 503.479 1255.07 503.479M1246.78 485.239 1255.07 485.239" stroke="#595959" stroke-width="1.42504" stroke-linejoin="round" stroke-miterlimit="10" fill="none" transform="matrix(1.00202 0 0 1 -138.478 -184.608)"/><path d="M1298.64 542.05 1298.64 551.153M1298.64 542.05 1298.64 532.913M1294.04 551.153 1302.75 551.153M1294.04 532.913 1302.75 532.913" stroke="#595959" stroke-width="1.42504" stroke-linejoin="round" stroke-miterlimit="10" fill="none" transform="matrix(1.00202 0 0 1 -138.478 -184.608)"/><path d="M1345.9 514.689 1345.9 523.793M1345.9 514.689 1345.9 505.552M1341.71 523.793 1350.42 523.793M1341.71 505.552 1350.42 505.552" stroke="#595959" stroke-width="1.42504" stroke-linejoin="round" stroke-miterlimit="10" fill="none" transform="matrix(1.00202 0 0 1 -138.478 -184.608)"/><path d="M799.059 712.831 1369.9 712.831" stroke="#D9D9D9" stroke-width="1.42504" stroke-linejoin="round" stroke-miterlimit="10" fill="none" fill-rule="evenodd" transform="matrix(1.00202 0 0 1 -138.478 -184.608)"/><text fill="#404040" font-family="Aptos Narrow,Aptos Narrow_MSFontService,sans-serif" font-weight="400" font-stretch="semi-condensed" font-size="41" transform="matrix(0.415394 0 0 0.414557 677.344 378)">20</text><text fill="#404040" font-family="Aptos Narrow,Aptos Narrow_MSFontService,sans-serif" font-weight="400" font-stretch="semi-condensed" font-size="41" transform="matrix(0.415394 0 0 0.414557 725.002 317)">29</text><text fill="#404040" font-family="Aptos Narrow,Aptos Narrow_MSFontService,sans-serif" font-weight="400" font-stretch="semi-condensed" font-size="41" transform="matrix(0.415394 0 0 0.414557 772.664 365)">22</text><text fill="#404040" font-family="Aptos Narrow,Aptos Narrow_MSFontService,sans-serif" font-weight="400" font-stretch="semi-condensed" font-size="41" transform="matrix(0.415394 0 0 0.414557 820.322 344)">25</text><text fill="#404040" font-family="Aptos Narrow,Aptos Narrow_MSFontService,sans-serif" font-weight="400" font-stretch="semi-condensed" font-size="41" transform="matrix(0.415394 0 0 0.414557 867.98 385)">19</text><text fill="#404040" font-family="Aptos Narrow,Aptos Narrow_MSFontService,sans-serif" font-weight="400" font-stretch="semi-condensed" font-size="41" transform="matrix(0.415394 0 0 0.414557 915.639 317)">29</text><text fill="#404040" font-family="Aptos Narrow,Aptos Narrow_MSFontService,sans-serif" font-weight="400" font-stretch="semi-condensed" font-size="41" transform="matrix(0.415394 0 0 0.414557 963.297 310)">30</text><text fill="#404040" font-family="Aptos Narrow,Aptos Narrow_MSFontService,sans-serif" font-weight="400" font-stretch="semi-condensed" font-size="41" transform="matrix(0.415394 0 0 0.414557 1010.95 385)">19</text><text fill="#404040" font-family="Aptos Narrow,Aptos Narrow_MSFontService,sans-serif" font-weight="400" font-stretch="semi-condensed" font-size="41" transform="matrix(0.415394 0 0 0.414557 1058.61 358)">23</text><text fill="#404040" font-family="Aptos Narrow,Aptos Narrow_MSFontService,sans-serif" font-weight="400" font-stretch="semi-condensed" font-size="41" transform="matrix(0.415394 0 0 0.414557 1106.28 296)">32</text><text fill="#404040" font-family="Aptos Narrow,Aptos Narrow_MSFontService,sans-serif" font-weight="400" font-stretch="semi-condensed" font-size="41" transform="matrix(0.415394 0 0 0.414557 1153.93 344)">25</text><text fill="#404040" font-family="Aptos Narrow,Aptos Narrow_MSFontService,sans-serif" font-weight="400" font-stretch="semi-condensed" font-size="41" transform="matrix(0.415394 0 0 0.414557 1201.59 317)">29</text><text fill="#595959" font-family="Aptos Narrow,Aptos Narrow_MSFontService,sans-serif" font-weight="400" font-stretch="semi-condensed" font-size="41" transform="matrix(0.415394 0 0 0.414557 637.694 533)">0</text><text fill="#595959" font-family="Aptos Narrow,Aptos Narrow_MSFontService,sans-serif" font-weight="400" font-stretch="semi-condensed" font-size="41" transform="matrix(0.415394 0 0 0.414557 637.694 499)">5</text><text fill="#595959" font-family="Aptos Narrow,Aptos Narrow_MSFontService,sans-serif" font-weight="400" font-stretch="semi-condensed" font-size="41" transform="matrix(0.415394 0 0 0.414557 629.013 465)">10</text><text fill="#595959" font-family="Aptos Narrow,Aptos Narrow_MSFontService,sans-serif" font-weight="400" font-stretch="semi-condensed" font-size="41" transform="matrix(0.415394 0 0 0.414557 629.013 431)">15</text><text fill="#595959" font-family="Aptos Narrow,Aptos Narrow_MSFontService,sans-serif" font-weight="400" font-stretch="semi-condensed" font-size="41" transform="matrix(0.415394 0 0 0.414557 629.013 396)">20</text><text fill="#595959" font-family="Aptos Narrow,Aptos Narrow_MSFontService,sans-serif" font-weight="400" font-stretch="semi-condensed" font-size="41" transform="matrix(0.415394 0 0 0.414557 629.013 362)">25</text><text fill="#595959" font-family="Aptos Narrow,Aptos Narrow_MSFontService,sans-serif" font-weight="400" font-stretch="semi-condensed" font-size="41" transform="matrix(0.415394 0 0 0.414557 629.013 328)">30</text><text fill="#595959" font-family="Aptos Narrow,Aptos Narrow_MSFontService,sans-serif" font-weight="400" font-stretch="semi-condensed" font-size="41" transform="matrix(0.415394 0 0 0.414557 629.013 294)">35</text><text fill="#595959" font-family="Aptos Narrow,Aptos Narrow_MSFontService,sans-serif" font-weight="400" font-stretch="semi-condensed" font-size="41" transform="matrix(0.415394 0 0 0.414557 629.013 260)">40</text><text fill="#595959" font-family="Aptos Narrow,Aptos Narrow_MSFontService,sans-serif" font-weight="400" font-stretch="semi-condensed" font-size="41" transform="matrix(0.415394 0 0 0.414557 675.969 555)">Q</text><text fill="#595959" font-family="Aptos Narrow,Aptos Narrow_MSFontService,sans-serif" font-weight="400" font-stretch="semi-condensed" font-size="41" transform="matrix(0.415394 0 0 0.414557 687.184 555)">1</text><text fill="#595959" font-family="Aptos Narrow,Aptos Narrow_MSFontService,sans-serif" font-weight="400" font-stretch="semi-condensed" font-size="41" transform="matrix(0.415394 0 0 0.414557 723.627 555)">Q</text><text fill="#595959" font-family="Aptos Narrow,Aptos Narrow_MSFontService,sans-serif" font-weight="400" font-stretch="semi-condensed" font-size="41" transform="matrix(0.415394 0 0 0.414557 734.843 555)">2</text><text fill="#595959" font-family="Aptos Narrow,Aptos Narrow_MSFontService,sans-serif" font-weight="400" font-stretch="semi-condensed" font-size="41" transform="matrix(0.415394 0 0 0.414557 771.285 555)">Q</text><text fill="#595959" font-family="Aptos Narrow,Aptos Narrow_MSFontService,sans-serif" font-weight="400" font-stretch="semi-condensed" font-size="41" transform="matrix(0.415394 0 0 0.414557 782.501 555)">3</text><text fill="#595959" font-family="Aptos Narrow,Aptos Narrow_MSFontService,sans-serif" font-weight="400" font-stretch="semi-condensed" font-size="41" transform="matrix(0.415394 0 0 0.414557 818.947 555)">Q</text><text fill="#595959" font-family="Aptos Narrow,Aptos Narrow_MSFontService,sans-serif" font-weight="400" font-stretch="semi-condensed" font-size="41" transform="matrix(0.415394 0 0 0.414557 830.163 555)">4</text><text fill="#595959" font-family="Aptos Narrow,Aptos Narrow_MSFontService,sans-serif" font-weight="400" font-stretch="semi-condensed" font-size="41" transform="matrix(0.415394 0 0 0.414557 866.605 555)">Q</text><text fill="#595959" font-family="Aptos Narrow,Aptos Narrow_MSFontService,sans-serif" font-weight="400" font-stretch="semi-condensed" font-size="41" transform="matrix(0.415394 0 0 0.414557 877.821 555)">5</text><text fill="#595959" font-family="Aptos Narrow,Aptos Narrow_MSFontService,sans-serif" font-weight="400" font-stretch="semi-condensed" font-size="41" transform="matrix(0.415394 0 0 0.414557 914.264 555)">Q</text><text fill="#595959" font-family="Aptos Narrow,Aptos Narrow_MSFontService,sans-serif" font-weight="400" font-stretch="semi-condensed" font-size="41" transform="matrix(0.415394 0 0 0.414557 925.479 555)">6</text><text fill="#595959" font-family="Aptos Narrow,Aptos Narrow_MSFontService,sans-serif" font-weight="400" font-stretch="semi-condensed" font-size="41" transform="matrix(0.415394 0 0 0.414557 961.922 555)">Q</text><text fill="#595959" font-family="Aptos Narrow,Aptos Narrow_MSFontService,sans-serif" font-weight="400" font-stretch="semi-condensed" font-size="41" transform="matrix(0.415394 0 0 0.414557 973.137 555)">7</text><text fill="#595959" font-family="Aptos Narrow,Aptos Narrow_MSFontService,sans-serif" font-weight="400" font-stretch="semi-condensed" font-size="41" transform="matrix(0.415394 0 0 0.414557 1009.58 555)">Q</text><text fill="#595959" font-family="Aptos Narrow,Aptos Narrow_MSFontService,sans-serif" font-weight="400" font-stretch="semi-condensed" font-size="41" transform="matrix(0.415394 0 0 0.414557 1020.8 555)">8</text><text fill="#595959" font-family="Aptos Narrow,Aptos Narrow_MSFontService,sans-serif" font-weight="400" font-stretch="semi-condensed" font-size="41" transform="matrix(0.415394 0 0 0.414557 1057.24 555)">Q</text><text fill="#595959" font-family="Aptos Narrow,Aptos Narrow_MSFontService,sans-serif" font-weight="400" font-stretch="semi-condensed" font-size="41" transform="matrix(0.415394 0 0 0.414557 1068.45 555)">9</text><text fill="#595959" font-family="Aptos Narrow,Aptos Narrow_MSFontService,sans-serif" font-weight="400" font-stretch="semi-condensed" font-size="41" transform="matrix(0.415394 0 0 0.414557 1100.56 555)">Q</text><text fill="#595959" font-family="Aptos Narrow,Aptos Narrow_MSFontService,sans-serif" font-weight="400" font-stretch="semi-condensed" font-size="41" transform="matrix(0.415394 0 0 0.414557 1111.77 555)">10</text><text fill="#595959" font-family="Aptos Narrow,Aptos Narrow_MSFontService,sans-serif" font-weight="400" font-stretch="semi-condensed" font-size="41" transform="matrix(0.415394 0 0 0.414557 1148.22 555)">Q</text><text fill="#595959" font-family="Aptos Narrow,Aptos Narrow_MSFontService,sans-serif" font-weight="400" font-stretch="semi-condensed" font-size="41" transform="matrix(0.415394 0 0 0.414557 1159.43 555)">11</text><text fill="#595959" font-family="Aptos Narrow,Aptos Narrow_MSFontService,sans-serif" font-weight="400" font-stretch="semi-condensed" font-size="41" transform="matrix(0.415394 0 0 0.414557 1195.88 555)">Q</text><text fill="#595959" font-family="Aptos Narrow,Aptos Narrow_MSFontService,sans-serif" font-weight="400" font-stretch="semi-condensed" font-size="41" transform="matrix(0.415394 0 0 0.414557 1207.09 555)">12</text><text fill="#595959" font-family="Aptos Narrow,Aptos Narrow_MSFontService,sans-serif" font-weight="400" font-stretch="semi-condensed" font-size="46" transform="matrix(2.54355e-17 -0.414557 0.415394 2.53843e-17 612.065 523)">Score</text><text fill="#595959" font-family="Aptos Narrow,Aptos Narrow_MSFontService,sans-serif" font-weight="400" font-stretch="semi-condensed" font-size="46" transform="matrix(2.54355e-17 -0.414557 0.415394 2.53843e-17 612.065 480)">'</text><text fill="#595959" font-family="Aptos Narrow,Aptos Narrow_MSFontService,sans-serif" font-weight="400" font-stretch="semi-condensed" font-size="46" transform="matrix(2.54355e-17 -0.414557 0.415394 2.53843e-17 612.065 476)">s Summarization</text><text fill="#595959" font-family="Aptos Narrow,Aptos Narrow_MSFontService,sans-serif" font-weight="400" font-stretch="semi-condensed" font-size="46" transform="matrix(0.415394 0 0 0.414557 903.958 591)">Question</text><path d="M713.66 405.229 1391.05 405.229 1391.05 796.986 713.66 796.986Z" stroke="#D9D9D9" stroke-width="1.42504" stroke-linejoin="round" stroke-miterlimit="10" fill="none" transform="matrix(1.00202 0 0 1 -138.478 -184.608)"/></g></svg>