<svg width="5984" height="3914" xmlns="http://www.w3.org/2000/svg" xmlns:xlink="http://www.w3.org/1999/xlink" xml:space="preserve" overflow="hidden"><defs><clipPath id="clip0"><rect x="1390" y="1439" width="5984" height="3914"/></clipPath></defs><g clip-path="url(#clip0)" transform="translate(-1390 -1439)"><rect x="1391" y="1440" width="5981" height="3911" fill="#FFFFFF"/><g><path d="M2119.5 4071.63 7321.5 4071.63M2119.5 3572.62 7321.5 3572.62M2119.5 3073.6 7321.5 3073.6M2119.5 2573.58 7321.5 2573.58M2119.5 2074.57 7321.5 2074.57M2119.5 1575.5 7321.5 1575.5" stroke="#D9D9D9" stroke-width="3.4375" stroke-linejoin="round" stroke-miterlimit="10" fill="none"/></g><g><path d="M2714.09 2171.07 3258.11 2171.07 3258.11 4571 2714.09 4571ZM4449.15 1978.06 4992.16 1978.06 4992.16 4571 4449.15 4571ZM6183.2 2075.07 6726.22 2075.07 6726.22 4571 6183.2 4571Z" fill="#4EA72E"/></g><g><path d="M2986.6 2170.57 2986.6 2332.5M2986.6 2170.57 2986.6 2008.5M2975.5 2332.5 2996.5 2332.5M2975.5 2008.5 2996.5 2008.5" stroke="#595959" stroke-width="3.4375" stroke-linejoin="round" stroke-miterlimit="10" fill="none"/></g><g><path d="M4720.66 1978.57 4720.66 2140.5M4720.66 1978.57 4720.66 1816.5M4710.5 2140.5 4730.5 2140.5M4710.5 1816.5 4730.5 1816.5" stroke="#595959" stroke-width="3.4375" stroke-linejoin="round" stroke-miterlimit="10" fill="none"/></g><g><path d="M6444.5 2074.5 6465.5 2074.5M6444.5 2074.5 6465.5 2074.5" stroke="#595959" stroke-width="3.4375" stroke-linejoin="round" stroke-miterlimit="10" fill="none"/></g><g><path d="M2119.5 4571.5 7321.5 4571.5" stroke="#D9D9D9" stroke-width="3.4375" stroke-linejoin="round" stroke-miterlimit="10" fill="none" fill-rule="evenodd"/></g><g><text fill="#595959" font-family="Aptos Narrow,Aptos Narrow_MSFontService,sans-serif" font-weight="400" font-stretch="semi-condensed" font-size="183" transform="matrix(1 0 0 1 1856.92 4621)">0</text></g><g><text fill="#595959" font-family="Aptos Narrow,Aptos Narrow_MSFontService,sans-serif" font-weight="400" font-stretch="semi-condensed" font-size="183" transform="matrix(1 0 0 1 1856.92 4122)">2</text></g><g><text fill="#595959" font-family="Aptos Narrow,Aptos Narrow_MSFontService,sans-serif" font-weight="400" font-stretch="semi-condensed" font-size="183" transform="matrix(1 0 0 1 1856.92 3622)">4</text></g><g><text fill="#595959" font-family="Aptos Narrow,Aptos Narrow_MSFontService,sans-serif" font-weight="400" font-stretch="semi-condensed" font-size="183" transform="matrix(1 0 0 1 1856.92 3123)">6</text></g><g><text fill="#595959" font-family="Aptos Narrow,Aptos Narrow_MSFontService,sans-serif" font-weight="400" font-stretch="semi-condensed" font-size="183" transform="matrix(1 0 0 1 1856.92 2624)">8</text></g><g><text fill="#595959" font-family="Aptos Narrow,Aptos Narrow_MSFontService,sans-serif" font-weight="400" font-stretch="semi-condensed" font-size="183" transform="matrix(1 0 0 1 1763.99 2125)">10</text></g><g><text fill="#595959" font-family="Aptos Narrow,Aptos Narrow_MSFontService,sans-serif" font-weight="400" font-stretch="semi-condensed" font-size="183" transform="matrix(1 0 0 1 1763.99 1625)">12</text></g><g><text fill="#595959" font-family="Aptos Narrow,Aptos Narrow_MSFontService,sans-serif" font-weight="400" font-stretch="semi-condensed" font-size="220" transform="matrix(1 0 0 1 2769.76 4916)">Base</text></g><g><text fill="#595959" font-family="Aptos Narrow,Aptos Narrow_MSFontService,sans-serif" font-weight="400" font-stretch="semi-condensed" font-size="220" transform="matrix(1 0 0 1 4402.49 4916)">Recess</text></g><g><text fill="#595959" font-family="Aptos Narrow,Aptos Narrow_MSFontService,sans-serif" font-weight="400" font-stretch="semi-condensed" font-size="220" transform="matrix(1 0 0 1 6240.37 4916)">Peak</text></g><g><text fill="#595959" font-family="Aptos Narrow,Aptos Narrow_MSFontService,sans-serif" font-weight="400" font-stretch="semi-condensed" font-size="248" transform="matrix(6.12323e-17 -1 1 6.12323e-17 1680.12 4053)">Surface Score Mean </text></g><g><text fill="#595959" font-family="Aptos Narrow,Aptos Narrow_MSFontService,sans-serif" font-weight="400" font-stretch="semi-condensed" font-size="248" transform="matrix(1 0 0 1 3672.85 5223)">Participants's Answer</text></g><rect x="1391.5" y="1440.5" width="5981" height="3911" stroke="#D9D9D9" stroke-width="3.4375" stroke-linejoin="round" stroke-miterlimit="10" fill="none"/></g></svg>