<svg width="5999" height="3614" xmlns="http://www.w3.org/2000/svg" xmlns:xlink="http://www.w3.org/1999/xlink" xml:space="preserve" overflow="hidden"><defs><clipPath id="clip0"><rect x="2350" y="1394" width="5999" height="3614"/></clipPath></defs><g clip-path="url(#clip0)" transform="translate(-2350 -1394)"><rect x="2351" y="1395" width="5996" height="3611" fill="#FFFFFF"/><g><path d="M3126.5 3925.63 8296.5 3925.63M3126.5 3556.62 8296.5 3556.62M3126.5 3188.6 8296.5 3188.6M3126.5 2819.59 8296.5 2819.59M3126.5 2450.58 8296.5 2450.58M3126.5 2082.57 8296.5 2082.57M3126.5 1713.5 8296.5 1713.5" stroke="#D9D9D9" stroke-width="3.4375" stroke-linejoin="round" stroke-miterlimit="10" fill="none"/></g><g><path d="M3348.11 2423.08 3551.12 2423.08 3551.12 4294 3348.11 4294ZM3994.13 2366.08 4197.14 2366.08 4197.14 4294 3994.13 4294ZM4641.15 2337.08 4843.16 2337.08 4843.16 4294 4641.15 4294ZM5287.17 1912.06 5489.18 1912.06 5489.18 4294 5287.17 4294ZM5933.19 1969.06 6136.2 1969.06 6136.2 4294 5933.19 4294ZM6579.22 2224.07 6782.22 2224.07 6782.22 4294 6579.22 4294ZM7225.24 2366.08 7428.24 2366.08 7428.24 4294 7225.24 4294ZM7872.26 2252.07 8074.26 2252.07 8074.26 4294 7872.26 4294Z" fill="#0F9ED5"/></g><g><path d="M3449.61 2422.58 3449.61 2524.5M3449.61 2422.58 3449.61 2320.5M3439.5 2524.5 3459.5 2524.5M3439.5 2320.5 3459.5 2320.5" stroke="#595959" stroke-width="3.4375" stroke-linejoin="round" stroke-miterlimit="10" fill="none"/></g><g><path d="M4095.63 2365.58 4095.63 2527.5M4095.63 2365.58 4095.63 2204.5M4085.5 2527.5 4106.5 2527.5M4085.5 2204.5 4106.5 2204.5" stroke="#595959" stroke-width="3.4375" stroke-linejoin="round" stroke-miterlimit="10" fill="none"/></g><g><path d="M4741.66 2337.58 4741.66 2514.5M4741.66 2337.58 4741.66 2160.5M4731.5 2514.5 4752.5 2514.5M4731.5 2160.5 4752.5 2160.5" stroke="#595959" stroke-width="3.4375" stroke-linejoin="round" stroke-miterlimit="10" fill="none"/></g><g><path d="M5388.68 1912.56 5388.68 2155.5M5388.68 1912.56 5388.68 1668.5M5378.5 2155.5 5398.5 2155.5M5378.5 1668.5 5398.5 1668.5" stroke="#595959" stroke-width="3.4375" stroke-linejoin="round" stroke-miterlimit="10" fill="none"/></g><g><path d="M6034.7 1968.56 6034.7 2201.5M6034.7 1968.56 6034.7 1736.5M6024.5 2201.5 6044.5 2201.5M6024.5 1736.5 6044.5 1736.5" stroke="#595959" stroke-width="3.4375" stroke-linejoin="round" stroke-miterlimit="10" fill="none"/></g><g><path d="M6680.72 2224.57 6680.72 2410.5M6680.72 2224.57 6680.72 2037.5M6670.5 2410.5 6691.5 2410.5M6670.5 2037.5 6691.5 2037.5" stroke="#595959" stroke-width="3.4375" stroke-linejoin="round" stroke-miterlimit="10" fill="none"/></g><g><path d="M7326.74 2365.58 7326.74 2527.5M7326.74 2365.58 7326.74 2204.5M7316.5 2527.5 7337.5 2527.5M7316.5 2204.5 7337.5 2204.5" stroke="#595959" stroke-width="3.4375" stroke-linejoin="round" stroke-miterlimit="10" fill="none"/></g><g><path d="M7972.76 2252.57 7972.76 2443.5M7972.76 2252.57 7972.76 2061.5M7962.5 2443.5 7983.5 2443.5M7962.5 2061.5 7983.5 2061.5" stroke="#595959" stroke-width="3.4375" stroke-linejoin="round" stroke-miterlimit="10" fill="none"/></g><g><path d="M3126.5 4293.5 8296.5 4293.5" stroke="#D9D9D9" stroke-width="3.4375" stroke-linejoin="round" stroke-miterlimit="10" fill="none" fill-rule="evenodd"/></g><g><text fill="#595959" font-family="Aptos Narrow,Aptos Narrow_MSFontService,sans-serif" font-weight="400" font-stretch="semi-condensed" font-size="183" transform="matrix(1 0 0 1 2864.35 4344)">0</text></g><g><text fill="#595959" font-family="Aptos Narrow,Aptos Narrow_MSFontService,sans-serif" font-weight="400" font-stretch="semi-condensed" font-size="183" transform="matrix(1 0 0 1 2864.35 3975)">1</text></g><g><text fill="#595959" font-family="Aptos Narrow,Aptos Narrow_MSFontService,sans-serif" font-weight="400" font-stretch="semi-condensed" font-size="183" transform="matrix(1 0 0 1 2864.35 3607)">2</text></g><g><text fill="#595959" font-family="Aptos Narrow,Aptos Narrow_MSFontService,sans-serif" font-weight="400" font-stretch="semi-condensed" font-size="183" transform="matrix(1 0 0 1 2864.35 3238)">3</text></g><g><text fill="#595959" font-family="Aptos Narrow,Aptos Narrow_MSFontService,sans-serif" font-weight="400" font-stretch="semi-condensed" font-size="183" transform="matrix(1 0 0 1 2864.35 2870)">4</text></g><g><text fill="#595959" font-family="Aptos Narrow,Aptos Narrow_MSFontService,sans-serif" font-weight="400" font-stretch="semi-condensed" font-size="183" transform="matrix(1 0 0 1 2864.35 2501)">5</text></g><g><text fill="#595959" font-family="Aptos Narrow,Aptos Narrow_MSFontService,sans-serif" font-weight="400" font-stretch="semi-condensed" font-size="183" transform="matrix(1 0 0 1 2864.35 2132)">6</text></g><g><text fill="#595959" font-family="Aptos Narrow,Aptos Narrow_MSFontService,sans-serif" font-weight="400" font-stretch="semi-condensed" font-size="183" transform="matrix(1 0 0 1 2864.35 1764)">7</text></g><g><text fill="#595959" font-family="Aptos Narrow,Aptos Narrow_MSFontService,sans-serif" font-weight="400" font-stretch="semi-condensed" font-size="183" transform="matrix(1 0 0 1 3342.02 4581)">Q1</text></g><g><text fill="#595959" font-family="Aptos Narrow,Aptos Narrow_MSFontService,sans-serif" font-weight="400" font-stretch="semi-condensed" font-size="183" transform="matrix(1 0 0 1 3988.24 4581)">Q2</text></g><g><text fill="#595959" font-family="Aptos Narrow,Aptos Narrow_MSFontService,sans-serif" font-weight="400" font-stretch="semi-condensed" font-size="183" transform="matrix(1 0 0 1 4634.46 4581)">Q3</text></g><g><text fill="#595959" font-family="Aptos Narrow,Aptos Narrow_MSFontService,sans-serif" font-weight="400" font-stretch="semi-condensed" font-size="183" transform="matrix(1 0 0 1 5280.68 4581)">Q4</text></g><g><text fill="#595959" font-family="Aptos Narrow,Aptos Narrow_MSFontService,sans-serif" font-weight="400" font-stretch="semi-condensed" font-size="183" transform="matrix(1 0 0 1 5926.89 4581)">Q5</text></g><g><text fill="#595959" font-family="Aptos Narrow,Aptos Narrow_MSFontService,sans-serif" font-weight="400" font-stretch="semi-condensed" font-size="183" transform="matrix(1 0 0 1 6573.11 4581)">Q6</text></g><g><text fill="#595959" font-family="Aptos Narrow,Aptos Narrow_MSFontService,sans-serif" font-weight="400" font-stretch="semi-condensed" font-size="183" transform="matrix(1 0 0 1 7219.33 4581)">Q7</text></g><g><text fill="#595959" font-family="Aptos Narrow,Aptos Narrow_MSFontService,sans-serif" font-weight="400" font-stretch="semi-condensed" font-size="183" transform="matrix(1 0 0 1 7865.55 4581)">Q8</text></g><g><text fill="#595959" font-family="Aptos Narrow,Aptos Narrow_MSFontService,sans-serif" font-weight="400" font-stretch="semi-condensed" font-size="248" transform="matrix(6.12323e-17 -1 1 6.12323e-17 2680.57 4192)">Questionnaire Score Mean</text></g><g><text fill="#595959" font-family="Aptos Narrow,Aptos Narrow_MSFontService,sans-serif" font-weight="400" font-stretch="semi-condensed" font-size="248" transform="matrix(1 0 0 1 4836.82 4878)">Question Number</text></g><rect x="2351.5" y="1395.5" width="5996" height="3611" stroke="#D9D9D9" stroke-width="3.4375" stroke-linejoin="round" stroke-miterlimit="10" fill="none"/></g></svg>