<?xml version="1.0" encoding="UTF-8" standalone="no"?>
<svg
   width="1662"
   height="993"
   xml:space="preserve"
   overflow="hidden"
   version="1.1"
   id="svg22"
   sodipodi:docname="Picture1.svg"
   inkscape:version="1.4 (86a8ad7, 2024-10-11)"
   xmlns:inkscape="http://www.inkscape.org/namespaces/inkscape"
   xmlns:sodipodi="http://sodipodi.sourceforge.net/DTD/sodipodi-0.dtd"
   xmlns="http://www.w3.org/2000/svg"
   xmlns:svg="http://www.w3.org/2000/svg"><sodipodi:namedview
     id="namedview22"
     pagecolor="#ffffff"
     bordercolor="#000000"
     borderopacity="0.25"
     inkscape:showpageshadow="2"
     inkscape:pageopacity="0.0"
     inkscape:pagecheckerboard="0"
     inkscape:deskcolor="#d1d1d1"
     inkscape:zoom="0.60883817"
     inkscape:cx="767.85594"
     inkscape:cy="542.83719"
     inkscape:window-width="1920"
     inkscape:window-height="1057"
     inkscape:window-x="1912"
     inkscape:window-y="-8"
     inkscape:window-maximized="1"
     inkscape:current-layer="g22" /><defs
     id="defs1"><clipPath
       id="clip0"><rect
         x="3093"
         y="3289"
         width="1662"
         height="993"
         id="rect1" /></clipPath></defs><g
     clip-path="url(#clip0)"
     transform="translate(-3093 -3289)"
     id="g22"><path
       id="rect2"
       style="fill:#ffffff"
       d="m 3094,3290 h 1659 v 990 H 3094 Z" /><g
       id="g2"><path
         d="M3300.5 3953.63 4702.5 3953.63M3300.5 3830.63 4702.5 3830.63M3300.5 3708.62 4702.5 3708.62M3300.5 3585.62 4702.5 3585.62M3300.5 3462.61 4702.5 3462.61M3300.5 3340.5 4702.5 3340.5"
         stroke="#D9D9D9"
         stroke-width="3.4375"
         stroke-linejoin="round"
         stroke-miterlimit="10"
         fill="none"
         id="path2" /></g><g
       id="g3"><path
         id="rect3"
         style="fill:#46b1e1"
         d="m 3461,3512 h 147 v 565 h -147 z" /></g><g
       id="g4"><path
         id="rect4"
         style="fill:#f2aa84"
         d="m 3929,3487 h 146 v 590 h -146 z" /></g><g
       id="g5"><path
         id="rect5"
         style="fill:#8ed973"
         d="m 4396,3438 h 147 v 639 h -147 z" /></g><g
       id="g6"><path
         d="M3300.5 4076.5 4702.5 4076.5"
         stroke="#D9D9D9"
         stroke-width="3.4375"
         stroke-linejoin="round"
         stroke-miterlimit="10"
         fill="none"
         fill-rule="evenodd"
         id="path5" /></g><g
       id="g7"><path
         d="M 23.402832,0 H 3.2231445 v -4.184082 q 2.1020508,-1.8017578 4.2041016,-3.6035157 2.1220703,-1.8017578 3.9438479,-3.5834963 3.84375,-3.723633 5.265136,-5.905761 1.421387,-2.202149 1.421387,-4.744629 0,-2.322266 -1.541504,-3.623536 -1.521484,-1.321289 -4.26416,-1.321289 -1.821777,0 -3.9438475,0.640625 -2.1220703,0.640625 -4.144043,1.961914 H 3.9638672 v -4.204101 q 1.4213867,-0.700684 3.7836914,-1.28125 2.3823244,-0.580566 4.6044924,-0.580566 4.584472,0 7.187011,2.222167 2.60254,2.202149 2.60254,5.98584 0,1.70166 -0.44043,3.183106 -0.42041,1.461426 -1.261231,2.782715 -0.780761,1.241211 -1.841796,2.442382 -1.041016,1.201172 -2.542481,2.662598 -2.14209,2.1020509 -4.424316,4.0839845 -2.2822269,1.961914 -4.2641605,3.6435547 H 23.402832 Z m 23.442871,-14.354004 q 0.960938,0.86084 1.581543,2.162109 0.620606,1.30127 0.620606,3.3632817 0,2.0419922 -0.740723,3.7436524 -0.740723,1.7016601 -2.082031,2.9628906 -1.501465,1.40136718 -3.543457,2.08203124 -2.021973,0.66064453 -4.444336,0.66064453 -2.482422,0 -4.884766,-0.60058594 -2.402344,-0.5805664 -3.943848,-1.28125003 v -4.184082 h 0.300293 q 1.701661,1.1210938 4.003907,1.8618164 2.302246,0.7407227 4.444336,0.7407227 1.26123,0 2.682617,-0.4204102 1.421386,-0.4204102 2.302246,-1.2412109 0.920898,-0.8808594 1.361328,-1.9418946 0.460449,-1.0610351 0.460449,-2.6826172 0,-1.6015627 -0.520508,-2.6425777 -0.500488,-1.061036 -1.401367,-1.661621 -0.900879,-0.620606 -2.182129,-0.840821 -1.28125,-0.240234 -2.762695,-0.240234 H 36.29541 v -3.323242 h 1.401367 q 3.042969,0 4.844727,-1.261231 1.821777,-1.28125 1.821777,-3.723633 0,-1.081054 -0.460449,-1.881836 -0.460449,-0.8208 -1.28125,-1.341308 -0.86084,-0.520508 -1.841797,-0.720703 -0.980957,-0.200196 -2.222168,-0.200196 -1.901855,0 -4.043945,0.680664 -2.14209,0.680665 -4.043945,1.921875 h -0.200196 v -4.184082 q 1.421387,-0.700683 3.783692,-1.28125 2.382324,-0.600585 4.604492,-0.600585 2.182129,0 3.84375,0.40039 1.661621,0.400391 3.00293,1.28125 1.441406,0.960938 2.182128,2.322266 0.740723,1.361328 0.740723,3.183105 0,2.482422 -1.761719,4.344239 -1.741699,1.841796 -4.124023,2.322265 v 0.280274 q 0.960937,0.160156 2.202148,0.680664 1.241211,0.500488 2.102051,1.26123 z"
         id="text6"
         style="font-stretch:semi-condensed;font-size:41px;font-family:'Aptos Narrow', 'Aptos Narrow_MSFontService', sans-serif;fill:#404040"
         transform="matrix(1 0 0 1 3513.5 3480)"
         aria-label="23" /></g><g
       id="g8"><path
         d="M 23.402832,0 H 3.2231445 v -4.184082 q 2.1020508,-1.8017578 4.2041016,-3.6035157 2.1220703,-1.8017578 3.9438479,-3.5834963 3.84375,-3.723633 5.265136,-5.905761 1.421387,-2.202149 1.421387,-4.744629 0,-2.322266 -1.541504,-3.623536 -1.521484,-1.321289 -4.26416,-1.321289 -1.821777,0 -3.9438475,0.640625 -2.1220703,0.640625 -4.144043,1.961914 H 3.9638672 v -4.204101 q 1.4213867,-0.700684 3.7836914,-1.28125 2.3823244,-0.580566 4.6044924,-0.580566 4.584472,0 7.187011,2.222167 2.60254,2.202149 2.60254,5.98584 0,1.70166 -0.44043,3.183106 -0.42041,1.461426 -1.261231,2.782715 -0.780761,1.241211 -1.841796,2.442382 -1.041016,1.201172 -2.542481,2.662598 -2.14209,2.1020509 -4.424316,4.0839845 -2.2822269,1.961914 -4.2641605,3.6435547 H 23.402832 Z M 50.148926,-8.3881836 H 45.724609 V 0 h -3.84375 V -8.3881836 H 27.606934 v -4.6044924 l 14.434082,-16.816406 h 3.683593 v 18.217773 h 4.424317 z M 41.880859,-11.591309 V -25.044434 L 30.32959,-11.591309 Z"
         id="text7"
         style="font-stretch:semi-condensed;font-size:41px;font-family:'Aptos Narrow', 'Aptos Narrow_MSFontService', sans-serif;fill:#404040"
         transform="matrix(1 0 0 1 3980.93 3455)"
         aria-label="24" /></g><g
       id="g9"><path
         d="M 23.402832,0 H 3.2231445 v -4.184082 q 2.1020508,-1.8017578 4.2041016,-3.6035157 2.1220703,-1.8017578 3.9438479,-3.5834963 3.84375,-3.723633 5.265136,-5.905761 1.421387,-2.202149 1.421387,-4.744629 0,-2.322266 -1.541504,-3.623536 -1.521484,-1.321289 -4.26416,-1.321289 -1.821777,0 -3.9438475,0.640625 -2.1220703,0.640625 -4.144043,1.961914 H 3.9638672 v -4.204101 q 1.4213867,-0.700684 3.7836914,-1.28125 2.3823244,-0.580566 4.6044924,-0.580566 4.584472,0 7.187011,2.222167 2.60254,2.202149 2.60254,5.98584 0,1.70166 -0.44043,3.183106 -0.42041,1.461426 -1.261231,2.782715 -0.780761,1.241211 -1.841796,2.442382 -1.041016,1.201172 -2.542481,2.662598 -2.14209,2.1020509 -4.424316,4.0839845 -2.2822269,1.961914 -4.2641605,3.6435547 H 23.402832 Z m 26.505859,-9.6694336 q 0,4.5444336 -3.002929,7.4272461 -2.98291,2.86279297 -7.327149,2.86279297 -2.202148,0 -4.003906,-0.68066406 -1.801758,-0.68066407 -3.183105,-2.02197271 -1.72168,-1.661621 -2.662598,-4.4042968 -0.920899,-2.7426758 -0.920899,-6.6064449 0,-3.963868 0.840821,-7.026856 0.86084,-3.062988 2.722656,-5.445312 1.761719,-2.262207 4.544434,-3.523438 2.782714,-1.28125 6.486328,-1.28125 1.181152,0 1.981933,0.100098 0.800782,0.100097 1.621582,0.360351 v 3.823731 h -0.200195 q -0.560547,-0.300293 -1.70166,-0.560547 -1.121094,-0.280274 -2.302246,-0.280274 -4.304199,0 -6.866699,2.702637 -2.5625,2.682617 -2.982911,7.26709 1.681641,-1.020996 3.303223,-1.541504 1.641602,-0.540527 3.783691,-0.540527 1.901856,0 3.343262,0.360351 1.461426,0.340332 2.98291,1.401368 1.761719,1.221191 2.642578,3.083007 0.900879,1.861817 0.900879,4.5244144 z m -4.063964,0.1601563 q 0,-1.8618167 -0.560547,-3.0830077 -0.540528,-1.221192 -1.801758,-2.12207 -0.920899,-0.640625 -2.041992,-0.840821 -1.121094,-0.200195 -2.342285,-0.200195 -1.701661,0 -3.163086,0.400391 -1.461426,0.40039 -3.00293,1.24121 -0.04004,0.44043 -0.06006,0.86084 -0.02002,0.400391 -0.02002,1.020996 0,3.1630863 0.640625,5.0048832 0.660644,1.8217774 1.801758,2.8828125 0.920898,0.8808594 1.981933,1.3012695 1.081055,0.4003907 2.342285,0.4003907 2.902832,0 4.564453,-1.7617188 1.661622,-1.7817383 1.661622,-5.1049804 z"
         id="text8"
         style="font-stretch:semi-condensed;font-size:41px;font-family:'Aptos Narrow', 'Aptos Narrow_MSFontService', sans-serif;fill:#404040"
         transform="matrix(1 0 0 1 4448.36 3406)"
         aria-label="26" /></g><g
       id="g10"><path
         d="m 23.362793,-14.914551 q 0,8.0278323 -2.522461,11.7915041 -2.502441,3.74365237 -7.787598,3.74365237 -5.365234,0 -7.8476559,-3.80371097 -2.4624023,-3.8037109 -2.4624023,-11.6914065 0,-7.947754 2.5024414,-11.731445 2.5024414,-3.803711 7.8076168,-3.803711 5.365235,0 7.827637,3.86377 2.482422,3.84375 2.482422,11.631347 z m -5.265137,9.0888674 q 0.700684,-1.621582 0.940918,-3.8037109 0.260254,-2.2021485 0.260254,-5.2851565 0,-3.042969 -0.260254,-5.285156 -0.240234,-2.242188 -0.960937,-3.803711 -0.700684,-1.541504 -1.921875,-2.322266 -1.201172,-0.780761 -3.103028,-0.780761 -1.881836,0 -3.1230465,0.780761 -1.2211914,0.780762 -1.9418945,2.362305 -0.6806641,1.481445 -0.940918,3.86377 -0.2402344,2.382324 -0.2402344,5.225097 0,3.123047 0.2202149,5.2250979 0.2202148,2.1020508 0.9409179,3.7636719 0.6606446,1.5615235 1.8618164,2.3823242 1.2211912,0.8208008 3.2231442,0.8208008 1.881836,0 3.123047,-0.7807617 1.241211,-0.7807617 1.921875,-2.3623047 z"
         id="text9"
         style="font-stretch:semi-condensed;font-size:41px;font-family:'Aptos Narrow', 'Aptos Narrow_MSFontService', sans-serif;fill:#595959"
         transform="matrix(1 0 0 1 3241.71 4088)"
         aria-label="0" /></g><g
       id="g11"><path
         d="m 23.162598,-9.4692383 q 0,2.0820313 -0.760743,3.9838867 -0.760742,1.9018555 -2.082031,3.203125 -1.441406,1.40136722 -3.443359,2.16210941 -1.981934,0.74072266 -4.604492,0.74072266 -2.4423832,0 -4.7045902,-0.52050781 -2.262207,-0.50048829 -3.8237305,-1.22119136 v -4.2241211 h 0.2802735 q 1.6416015,1.0410156 3.84375,1.7817382 2.2021482,0.7207032 4.3242192,0.7207032 1.421386,0 2.742675,-0.4003907 1.341309,-0.4003906 2.382325,-1.4013671 0.880859,-0.8608399 1.321289,-2.0620118 0.460449,-1.2011718 0.460449,-2.7827148 0,-1.5415042 -0.540528,-2.6025392 -0.520507,-1.061035 -1.461425,-1.70166 -1.041016,-0.760742 -2.542481,-1.061035 -1.481445,-0.320313 -3.323242,-0.320313 -1.7617187,0 -3.4033203,0.240235 -1.621582,0.240234 -2.8027344,0.480468 v -15.35498 H 22.962402 v 3.503418 H 8.8886719 v 7.927734 q 0.8608398,-0.08008 1.7617191,-0.120117 0.900879,-0.04004 1.561523,-0.04004 2.422363,0 4.244141,0.42041 1.821777,0.400391 3.343261,1.441406 1.601563,1.101075 2.482422,2.842774 0.88086,1.741699 0.88086,4.3642577 z"
         id="text10"
         style="font-stretch:semi-condensed;font-size:41px;font-family:'Aptos Narrow', 'Aptos Narrow_MSFontService', sans-serif;fill:#595959"
         transform="matrix(1 0 0 1 3241.71 3965)"
         aria-label="5" /></g><g
       id="g12"><path
         d="M 21.701172,0 H 5.5654297 V -3.0429688 H 11.771484 V -23.022461 H 5.5654297 v -2.722656 q 1.2612305,0 2.7026367,-0.200195 1.4414063,-0.220215 2.1821286,-0.620606 0.920899,-0.500488 1.441407,-1.26123 0.540527,-0.780762 0.620605,-2.082032 h 3.103027 v 26.8662112 h 6.085938 z m 27.727051,-14.914551 q 0,8.0278323 -2.522461,11.7915041 -2.502442,3.74365237 -7.787598,3.74365237 -5.365234,0 -7.847656,-3.80371097 -2.462403,-3.8037109 -2.462403,-11.6914065 0,-7.947754 2.502442,-11.731445 2.502441,-3.803711 7.807617,-3.803711 5.365234,0 7.827637,3.86377 2.482422,3.84375 2.482422,11.631347 z m -5.265137,9.0888674 q 0.700684,-1.621582 0.940918,-3.8037109 0.260254,-2.2021485 0.260254,-5.2851565 0,-3.042969 -0.260254,-5.285156 -0.240234,-2.242188 -0.960938,-3.803711 -0.700683,-1.541504 -1.921875,-2.322266 -1.201171,-0.780761 -3.103027,-0.780761 -1.881836,0 -3.123047,0.780761 -1.221191,0.780762 -1.941894,2.362305 -0.680664,1.481445 -0.940918,3.86377 -0.240235,2.382324 -0.240235,5.225097 0,3.123047 0.220215,5.2250979 0.220215,2.1020508 0.940918,3.7636719 0.660645,1.5615235 1.861817,2.3823242 1.221191,0.8208008 3.223144,0.8208008 1.881836,0 3.123047,-0.7807617 1.241211,-0.7807617 1.921875,-2.3623047 z"
         id="text11"
         style="font-stretch:semi-condensed;font-size:41px;font-family:'Aptos Narrow', 'Aptos Narrow_MSFontService', sans-serif;fill:#595959"
         transform="matrix(1 0 0 1 3220.81 3843)"
         aria-label="10" /></g><g
       id="g13"><path
         d="M 21.701172,0 H 5.5654297 V -3.0429688 H 11.771484 V -23.022461 H 5.5654297 v -2.722656 q 1.2612305,0 2.7026367,-0.200195 1.4414063,-0.220215 2.1821286,-0.620606 0.920899,-0.500488 1.441407,-1.26123 0.540527,-0.780762 0.620605,-2.082032 h 3.103027 v 26.8662112 h 6.085938 z m 27.526855,-9.4692383 q 0,2.0820313 -0.760742,3.9838867 -0.760742,1.9018555 -2.082031,3.203125 -1.441406,1.40136722 -3.443359,2.16210941 -1.981934,0.74072266 -4.604493,0.74072266 -2.442382,0 -4.70459,-0.52050781 -2.262207,-0.50048829 -3.82373,-1.22119136 v -4.2241211 h 0.280273 q 1.641602,1.0410156 3.84375,1.7817382 2.202149,0.7207032 4.324219,0.7207032 1.421387,0 2.742676,-0.4003907 1.341309,-0.4003906 2.382324,-1.4013671 0.88086,-0.8608399 1.321289,-2.0620118 0.460449,-1.2011718 0.460449,-2.7827148 0,-1.5415042 -0.540527,-2.6025392 -0.520508,-1.061035 -1.461426,-1.70166 -1.041015,-0.760742 -2.54248,-1.061035 -1.481445,-0.320313 -3.323242,-0.320313 -1.761719,0 -3.403321,0.240235 -1.621582,0.240234 -2.802734,0.480468 v -15.35498 h 17.9375 v 3.503418 h -14.07373 v 7.927734 q 0.860839,-0.08008 1.761718,-0.120117 0.900879,-0.04004 1.561524,-0.04004 2.422363,0 4.24414,0.42041 1.821778,0.400391 3.343262,1.441406 1.601563,1.101075 2.482422,2.842774 0.880859,1.741699 0.880859,4.3642577 z"
         id="text12"
         style="font-stretch:semi-condensed;font-size:41px;font-family:'Aptos Narrow', 'Aptos Narrow_MSFontService', sans-serif;fill:#595959"
         transform="matrix(1 0 0 1 3220.81 3720)"
         aria-label="15" /></g><g
       id="g14"><path
         d="M 23.402832,0 H 3.2231445 v -4.184082 q 2.1020508,-1.8017578 4.2041016,-3.6035157 2.1220703,-1.8017578 3.9438479,-3.5834963 3.84375,-3.723633 5.265136,-5.905761 1.421387,-2.202149 1.421387,-4.744629 0,-2.322266 -1.541504,-3.623536 -1.521484,-1.321289 -4.26416,-1.321289 -1.821777,0 -3.9438475,0.640625 -2.1220703,0.640625 -4.144043,1.961914 H 3.9638672 v -4.204101 q 1.4213867,-0.700684 3.7836914,-1.28125 2.3823244,-0.580566 4.6044924,-0.580566 4.584472,0 7.187011,2.222167 2.60254,2.202149 2.60254,5.98584 0,1.70166 -0.44043,3.183106 -0.42041,1.461426 -1.261231,2.782715 -0.780761,1.241211 -1.841796,2.442382 -1.041016,1.201172 -2.542481,2.662598 -2.14209,2.1020509 -4.424316,4.0839845 -2.2822269,1.961914 -4.2641605,3.6435547 H 23.402832 Z m 26.025391,-14.914551 q 0,8.0278323 -2.522461,11.7915041 -2.502442,3.74365237 -7.787598,3.74365237 -5.365234,0 -7.847656,-3.80371097 -2.462403,-3.8037109 -2.462403,-11.6914065 0,-7.947754 2.502442,-11.731445 2.502441,-3.803711 7.807617,-3.803711 5.365234,0 7.827637,3.86377 2.482422,3.84375 2.482422,11.631347 z m -5.265137,9.0888674 q 0.700684,-1.621582 0.940918,-3.8037109 0.260254,-2.2021485 0.260254,-5.2851565 0,-3.042969 -0.260254,-5.285156 -0.240234,-2.242188 -0.960938,-3.803711 -0.700683,-1.541504 -1.921875,-2.322266 -1.201171,-0.780761 -3.103027,-0.780761 -1.881836,0 -3.123047,0.780761 -1.221191,0.780762 -1.941894,2.362305 -0.680664,1.481445 -0.940918,3.86377 -0.240235,2.382324 -0.240235,5.225097 0,3.123047 0.220215,5.2250979 0.220215,2.1020508 0.940918,3.7636719 0.660645,1.5615235 1.861817,2.3823242 1.221191,0.8208008 3.223144,0.8208008 1.881836,0 3.123047,-0.7807617 1.241211,-0.7807617 1.921875,-2.3623047 z"
         id="text13"
         style="font-stretch:semi-condensed;font-size:41px;font-family:'Aptos Narrow', 'Aptos Narrow_MSFontService', sans-serif;fill:#595959"
         transform="matrix(1 0 0 1 3220.81 3597)"
         aria-label="20" /></g><g
       id="g15"><path
         d="M 23.402832,0 H 3.2231445 v -4.184082 q 2.1020508,-1.8017578 4.2041016,-3.6035157 2.1220703,-1.8017578 3.9438479,-3.5834963 3.84375,-3.723633 5.265136,-5.905761 1.421387,-2.202149 1.421387,-4.744629 0,-2.322266 -1.541504,-3.623536 -1.521484,-1.321289 -4.26416,-1.321289 -1.821777,0 -3.9438475,0.640625 -2.1220703,0.640625 -4.144043,1.961914 H 3.9638672 v -4.204101 q 1.4213867,-0.700684 3.7836914,-1.28125 2.3823244,-0.580566 4.6044924,-0.580566 4.584472,0 7.187011,2.222167 2.60254,2.202149 2.60254,5.98584 0,1.70166 -0.44043,3.183106 -0.42041,1.461426 -1.261231,2.782715 -0.780761,1.241211 -1.841796,2.442382 -1.041016,1.201172 -2.542481,2.662598 -2.14209,2.1020509 -4.424316,4.0839845 -2.2822269,1.961914 -4.2641605,3.6435547 H 23.402832 Z m 25.825195,-9.4692383 q 0,2.0820313 -0.760742,3.9838867 -0.760742,1.9018555 -2.082031,3.203125 -1.441406,1.40136722 -3.443359,2.16210941 -1.981934,0.74072266 -4.604493,0.74072266 -2.442382,0 -4.70459,-0.52050781 -2.262207,-0.50048829 -3.82373,-1.22119136 v -4.2241211 h 0.280273 q 1.641602,1.0410156 3.84375,1.7817382 2.202149,0.7207032 4.324219,0.7207032 1.421387,0 2.742676,-0.4003907 1.341309,-0.4003906 2.382324,-1.4013671 0.88086,-0.8608399 1.321289,-2.0620118 0.460449,-1.2011718 0.460449,-2.7827148 0,-1.5415042 -0.540527,-2.6025392 -0.520508,-1.061035 -1.461426,-1.70166 -1.041015,-0.760742 -2.54248,-1.061035 -1.481445,-0.320313 -3.323242,-0.320313 -1.761719,0 -3.403321,0.240235 -1.621582,0.240234 -2.802734,0.480468 v -15.35498 h 17.9375 v 3.503418 h -14.07373 v 7.927734 q 0.860839,-0.08008 1.761718,-0.120117 0.900879,-0.04004 1.561524,-0.04004 2.422363,0 4.24414,0.42041 1.821778,0.400391 3.343262,1.441406 1.601563,1.101075 2.482422,2.842774 0.880859,1.741699 0.880859,4.3642577 z"
         id="text14"
         style="font-stretch:semi-condensed;font-size:41px;font-family:'Aptos Narrow', 'Aptos Narrow_MSFontService', sans-serif;fill:#595959"
         transform="matrix(1 0 0 1 3220.81 3474)"
         aria-label="25" /></g><g
       id="g16"><path
         d="m 20.780273,-14.354004 q 0.960938,0.86084 1.581543,2.162109 0.620606,1.30127 0.620606,3.3632817 0,2.0419922 -0.740723,3.7436524 -0.740722,1.7016601 -2.082031,2.9628906 -1.501465,1.40136718 -3.543457,2.08203124 -2.021973,0.66064453 -4.444336,0.66064453 -2.4824219,0 -4.8847656,-0.60058594 -2.4023438,-0.5805664 -3.9438477,-1.28125003 v -4.184082 h 0.300293 q 1.7016601,1.1210938 4.0039062,1.8618164 2.3022461,0.7407227 4.4443361,0.7407227 1.26123,0 2.682617,-0.4204102 1.421387,-0.4204102 2.302246,-1.2412109 0.920899,-0.8808594 1.361328,-1.9418946 0.460449,-1.0610351 0.460449,-2.6826172 0,-1.6015627 -0.520507,-2.6425777 -0.500489,-1.061036 -1.401368,-1.661621 -0.900878,-0.620606 -2.182128,-0.840821 -1.28125,-0.240234 -2.762696,-0.240234 H 10.22998 v -3.323242 h 1.401368 q 3.042968,0 4.844726,-1.261231 1.821778,-1.28125 1.821778,-3.723633 0,-1.081054 -0.46045,-1.881836 -0.460449,-0.8208 -1.28125,-1.341308 -0.860839,-0.520508 -1.841797,-0.720703 -0.980957,-0.200196 -2.222167,-0.200196 -1.901856,0 -4.0439458,0.680664 -2.1420899,0.680665 -4.0439453,1.921875 H 4.2041016 v -4.184082 q 1.4213867,-0.700683 3.7836914,-1.28125 2.382324,-0.600585 4.604492,-0.600585 2.182129,0 3.84375,0.40039 1.661621,0.400391 3.00293,1.28125 1.441406,0.960938 2.182129,2.322266 0.740722,1.361328 0.740722,3.183105 0,2.482422 -1.761718,4.344239 -1.7417,1.841796 -4.124024,2.322265 v 0.280274 q 0.960938,0.160156 2.202149,0.680664 1.241211,0.500488 2.10205,1.26123 z m 28.64795,-0.560547 q 0,8.0278323 -2.522461,11.7915041 -2.502442,3.74365237 -7.787598,3.74365237 -5.365234,0 -7.847656,-3.80371097 -2.462403,-3.8037109 -2.462403,-11.6914065 0,-7.947754 2.502442,-11.731445 2.502441,-3.803711 7.807617,-3.803711 5.365234,0 7.827637,3.86377 2.482422,3.84375 2.482422,11.631347 z m -5.265137,9.0888674 q 0.700684,-1.621582 0.940918,-3.8037109 0.260254,-2.2021485 0.260254,-5.2851565 0,-3.042969 -0.260254,-5.285156 -0.240234,-2.242188 -0.960938,-3.803711 -0.700683,-1.541504 -1.921875,-2.322266 -1.201171,-0.780761 -3.103027,-0.780761 -1.881836,0 -3.123047,0.780761 -1.221191,0.780762 -1.941894,2.362305 -0.680664,1.481445 -0.940918,3.86377 -0.240235,2.382324 -0.240235,5.225097 0,3.123047 0.220215,5.2250979 0.220215,2.1020508 0.940918,3.7636719 0.660645,1.5615235 1.861817,2.3823242 1.221191,0.8208008 3.223144,0.8208008 1.881836,0 3.123047,-0.7807617 1.241211,-0.7807617 1.921875,-2.3623047 z"
         id="text15"
         style="font-stretch:semi-condensed;font-size:41px;font-family:'Aptos Narrow', 'Aptos Narrow_MSFontService', sans-serif;fill:#595959"
         transform="matrix(1 0 0 1 3220.81 3352)"
         aria-label="30" /></g><g
       id="g17"><path
         d="m 23.362793,-14.914551 q 0,8.0278323 -2.522461,11.7915041 -2.502441,3.74365237 -7.787598,3.74365237 -5.365234,0 -7.8476559,-3.80371097 -2.4624023,-3.8037109 -2.4624023,-11.6914065 0,-7.947754 2.5024414,-11.731445 2.5024414,-3.803711 7.8076168,-3.803711 5.365235,0 7.827637,3.86377 2.482422,3.84375 2.482422,11.631347 z m -5.265137,9.0888674 q 0.700684,-1.621582 0.940918,-3.8037109 0.260254,-2.2021485 0.260254,-5.2851565 0,-3.042969 -0.260254,-5.285156 -0.240234,-2.242188 -0.960937,-3.803711 -0.700684,-1.541504 -1.921875,-2.322266 -1.201172,-0.780761 -3.103028,-0.780761 -1.881836,0 -3.1230465,0.780761 -1.2211914,0.780762 -1.9418945,2.362305 -0.6806641,1.481445 -0.940918,3.86377 -0.2402344,2.382324 -0.2402344,5.225097 0,3.123047 0.2202149,5.2250979 0.2202148,2.1020508 0.9409179,3.7636719 0.6606446,1.5615235 1.8618164,2.3823242 1.2211912,0.8208008 3.2231442,0.8208008 1.881836,0 3.123047,-0.7807617 1.241211,-0.7807617 1.921875,-2.3623047 z M 35.915039,0 h -4.784668 v -5.7055664 h 4.784668 z M 64.382812,0 H 44.203125 v -4.184082 q 2.102051,-1.8017578 4.204102,-3.6035157 2.12207,-1.8017578 3.943847,-3.5834963 3.84375,-3.723633 5.265137,-5.905761 1.421387,-2.202149 1.421387,-4.744629 0,-2.322266 -1.541504,-3.623536 -1.521485,-1.321289 -4.26416,-1.321289 -1.821778,0 -3.943848,0.640625 -2.12207,0.640625 -4.144043,1.961914 h -0.200195 v -4.204101 q 1.421386,-0.700684 3.783691,-1.28125 2.382324,-0.580566 4.604492,-0.580566 4.584473,0 7.187012,2.222167 2.602539,2.202149 2.602539,5.98584 0,1.70166 -0.44043,3.183106 -0.42041,1.461426 -1.26123,2.782715 -0.780762,1.241211 -1.841797,2.442382 -1.041016,1.201172 -2.54248,2.662598 -2.14209,2.1020509 -4.424317,4.0839845 -2.282226,1.961914 -4.26416,3.6435547 h 16.035644 z"
         id="text16"
         style="font-stretch:semi-condensed;font-size:41px;font-family:'Aptos Narrow', 'Aptos Narrow_MSFontService', sans-serif;fill:#595959"
         transform="matrix(1 0 0 1 3508.14 4141)"
         aria-label="0.2" /></g><g
       id="g18"><path
         d="m 23.362793,-14.914551 q 0,8.0278323 -2.522461,11.7915041 -2.502441,3.74365237 -7.787598,3.74365237 -5.365234,0 -7.8476559,-3.80371097 -2.4624023,-3.8037109 -2.4624023,-11.6914065 0,-7.947754 2.5024414,-11.731445 2.5024414,-3.803711 7.8076168,-3.803711 5.365235,0 7.827637,3.86377 2.482422,3.84375 2.482422,11.631347 z m -5.265137,9.0888674 q 0.700684,-1.621582 0.940918,-3.8037109 0.260254,-2.2021485 0.260254,-5.2851565 0,-3.042969 -0.260254,-5.285156 -0.240234,-2.242188 -0.960937,-3.803711 -0.700684,-1.541504 -1.921875,-2.322266 -1.201172,-0.780761 -3.103028,-0.780761 -1.881836,0 -3.1230465,0.780761 -1.2211914,0.780762 -1.9418945,2.362305 -0.6806641,1.481445 -0.940918,3.86377 -0.2402344,2.382324 -0.2402344,5.225097 0,3.123047 0.2202149,5.2250979 0.2202148,2.1020508 0.9409179,3.7636719 0.6606446,1.5615235 1.8618164,2.3823242 1.2211912,0.8208008 3.2231442,0.8208008 1.881836,0 3.123047,-0.7807617 1.241211,-0.7807617 1.921875,-2.3623047 z M 35.915039,0 h -4.784668 v -5.7055664 h 4.784668 z m 28.227539,-9.4692383 q 0,2.0820313 -0.760742,3.9838867 -0.760742,1.9018555 -2.082031,3.203125 -1.441407,1.40136722 -3.44336,2.16210941 -1.981933,0.74072266 -4.604492,0.74072266 -2.442383,0 -4.70459,-0.52050781 -2.262207,-0.50048829 -3.82373,-1.22119136 v -4.2241211 h 0.280273 q 1.641602,1.0410156 3.84375,1.7817382 2.202149,0.7207032 4.324219,0.7207032 1.421387,0 2.742676,-0.4003907 1.341308,-0.4003906 2.382324,-1.4013671 0.880859,-0.8608399 1.321289,-2.0620118 0.460449,-1.2011718 0.460449,-2.7827148 0,-1.5415042 -0.540527,-2.6025392 -0.520508,-1.061035 -1.461426,-1.70166 -1.041015,-0.760742 -2.54248,-1.061035 -1.481446,-0.320313 -3.323243,-0.320313 -1.761718,0 -3.40332,0.240235 -1.621582,0.240234 -2.802734,0.480468 v -15.35498 h 17.9375 v 3.503418 H 49.868652 v 7.927734 q 0.86084,-0.08008 1.761719,-0.120117 0.900879,-0.04004 1.561524,-0.04004 2.422363,0 4.24414,0.42041 1.821777,0.400391 3.343262,1.441406 1.601562,1.101075 2.482422,2.842774 0.880859,1.741699 0.880859,4.3642577 z"
         id="text17"
         style="font-stretch:semi-condensed;font-size:41px;font-family:'Aptos Narrow', 'Aptos Narrow_MSFontService', sans-serif;fill:#595959"
         transform="matrix(1 0 0 1 3975.57 4141)"
         aria-label="0.5" /></g><g
       id="g19"><path
         d="M 21.701172,0 H 5.5654297 V -3.0429688 H 11.771484 V -23.022461 H 5.5654297 v -2.722656 q 1.2612305,0 2.7026367,-0.200195 1.4414063,-0.220215 2.1821286,-0.620606 0.920899,-0.500488 1.441407,-1.26123 0.540527,-0.780762 0.620605,-2.082032 h 3.103027 v 26.8662112 h 6.085938 z m 14.213867,0 h -4.784668 v -5.7055664 h 4.784668 z m 28.427734,-14.914551 q 0,8.0278323 -2.522461,11.7915041 -2.502441,3.74365237 -7.787597,3.74365237 -5.365235,0 -7.847656,-3.80371097 -2.462403,-3.8037109 -2.462403,-11.6914065 0,-7.947754 2.502442,-11.731445 2.502441,-3.803711 7.807617,-3.803711 5.365234,0 7.827637,3.86377 2.482421,3.84375 2.482421,11.631347 z m -5.265136,9.0888674 q 0.700683,-1.621582 0.940918,-3.8037109 0.260254,-2.2021485 0.260254,-5.2851565 0,-3.042969 -0.260254,-5.285156 -0.240235,-2.242188 -0.960938,-3.803711 -0.700683,-1.541504 -1.921875,-2.322266 -1.201172,-0.780761 -3.103027,-0.780761 -1.881836,0 -3.123047,0.780761 -1.221191,0.780762 -1.941895,2.362305 -0.680664,1.481445 -0.940918,3.86377 -0.240234,2.382324 -0.240234,5.225097 0,3.123047 0.220215,5.2250979 0.220215,2.1020508 0.940918,3.7636719 0.660644,1.5615235 1.861816,2.3823242 1.221192,0.8208008 3.223145,0.8208008 1.881836,0 3.123047,-0.7807617 1.241211,-0.7807617 1.921875,-2.3623047 z"
         id="text18"
         style="font-stretch:semi-condensed;font-size:41px;font-family:'Aptos Narrow', 'Aptos Narrow_MSFontService', sans-serif;fill:#595959"
         transform="matrix(1 0 0 1 4443 4141)"
         aria-label="1.0" /></g><g
       id="g20"><path
         d="m 30.322266,-2.4257813 q -1.235352,0.5390626 -2.246094,1.0107422 -0.988281,0.47167972 -2.605469,0.98828129 Q 24.100586,0 22.483398,0.29199219 q -1.594726,0.31445312 -3.526367,0.31445312 -3.638672,0 -6.625976,-1.01074219 Q 9.3662109,-1.4375 7.1650391,-3.6162109 5.0087891,-5.75 3.7958984,-9.0292969 2.5830078,-12.331055 2.5830078,-16.688477 q 0,-4.132812 1.1679688,-7.389648 1.1679687,-3.256836 3.3691406,-5.50293 2.1337891,-2.178711 5.1435548,-3.324218 3.032226,-1.145508 6.71582,-1.145508 2.695313,0 5.368164,0.651367 2.695313,0.651367 5.97461,2.291016 v 5.27832 h -0.336914 q -2.762696,-2.313477 -5.480469,-3.369141 -2.717774,-1.055664 -5.817383,-1.055664 -2.538086,0 -4.582031,0.831055 -2.021485,0.808594 -3.616211,2.538086 -1.5498049,1.68457 -2.4257814,4.267578 -0.8535157,2.560547 -0.8535157,5.929687 0,3.526368 0.9433594,6.064454 0.9658203,2.5380855 2.4707027,4.1328121 1.572266,1.6621093 3.661133,2.4707031 2.111328,0.7861328 4.447266,0.7861328 3.211914,0 6.019531,-1.1005859 2.807617,-1.100586 5.255859,-3.3017578 h 0.314454 z M 57.657227,-12.533203 q 0,6.1318358 -3.144532,9.6806639 -3.144531,3.54882816 -8.422851,3.54882816 -5.323242,0 -8.467774,-3.54882816 Q 34.5,-6.4013672 34.5,-12.533203 q 0,-6.131836 3.12207,-9.680664 3.144532,-3.571289 8.467774,-3.571289 5.27832,0 8.422851,3.571289 3.144532,3.548828 3.144532,9.680664 z m -4.357422,0 q 0,-4.874024 -1.90918,-7.232422 -1.90918,-2.380859 -5.300781,-2.380859 -3.436524,0 -5.345703,2.380859 -1.886719,2.358398 -1.886719,7.232422 0,4.7167968 1.90918,7.1650389 1.909179,2.4257813 5.323242,2.4257813 3.36914,0 5.27832,-2.4033203 1.931641,-2.4257813 1.931641,-7.1874999 z m 26.548828,-7.951172 h -0.22461 q -0.943359,-0.224609 -1.841796,-0.314453 -0.875977,-0.112305 -2.088868,-0.112305 -1.954101,0 -3.773437,0.875977 -1.819336,0.853515 -3.503906,2.223633 V 0 h -4.222657 v -25.088867 h 4.222657 v 3.706055 q 2.515625,-2.021485 4.424804,-2.85254 1.931641,-0.853515 3.930664,-0.853515 1.100586,0 1.594727,0.06738 0.494141,0.04492 1.482422,0.202148 z m 19.630859,0 h -0.224609 q -0.94336,-0.224609 -1.841797,-0.314453 -0.875977,-0.112305 -2.088867,-0.112305 -1.954102,0 -3.773438,0.875977 -1.819336,0.853515 -3.503906,2.223633 V 0 h -4.222656 v -25.088867 h 4.222656 v 3.706055 q 2.515625,-2.021485 4.424805,-2.85254 1.93164,-0.853515 3.930664,-0.853515 1.100586,0 1.594726,0.06738 0.494141,0.04492 1.482422,0.202148 z m 24.976558,8.37793 H 105.9707 q 0,2.3134762 0.69629,4.0429684 0.69629,1.7070313 1.90918,2.8076172 1.16797,1.078125 2.7627,1.6171875 1.61718,0.5390625 3.54883,0.5390625 2.56054,0 5.14355,-1.0107422 2.60547,-1.0332031 3.70605,-2.0214843 h 0.22461 v 4.6044922 q -2.13378,0.89843745 -4.35742,1.50488276 -2.22363,0.60644531 -4.67187,0.60644531 -6.24414,0 -9.74805,-3.36914067 -3.50391,-3.3916015 -3.50391,-9.6132817 0,-6.154296 3.34668,-9.770507 3.36914,-3.616211 8.84961,-3.616211 5.07618,0 7.81641,2.964844 2.76269,2.964843 2.76269,8.422851 z m -4.11035,-3.234375 q -0.0225,-3.324219 -1.68457,-5.143555 -1.63965,-1.819336 -5.00879,-1.819336 -3.3916,0 -5.41308,1.999024 -1.99903,1.999023 -2.26856,4.963867 z m 29.06446,13.7685544 Q 147.29883,-0.56152344 145.38965,0 q -1.88672,0.56152344 -4.02051,0.56152344 -2.71777,0 -4.98633,-0.78613282 -2.26855,-0.80859372 -3.88574,-2.42578122 -1.63965,-1.6171875 -2.53809,-4.0878906 -0.89843,-2.4707032 -0.89843,-5.7724608 0,-6.154297 3.36914,-9.658203 3.3916,-3.503907 8.93945,-3.503907 2.15625,0 4.22266,0.606446 2.08886,0.606445 3.81836,1.482422 v 4.694336 h -0.22461 q -1.93164,-1.504883 -3.99805,-2.313477 -2.04395,-0.808594 -3.99805,-0.808594 -3.59375,0 -5.68261,2.425782 -2.06641,2.40332 -2.06641,7.075195 0,4.5371092 2.02148,6.9853514 2.04395,2.4257812 5.72754,2.4257812 1.28028,0 2.60547,-0.336914 1.3252,-0.3369141 2.38086,-0.8759766 0.9209,-0.4716797 1.72949,-0.9882812 0.8086,-0.5390625 1.28028,-0.9208985 h 0.22461 z m 18.44043,1.34765622 q -1.19043,0.31445313 -2.60547,0.51660157 -1.39258,0.20214844 -2.49317,0.20214844 -3.84082,0 -5.83984,-2.06640623 -1.99902,-2.0664063 -1.99902,-6.6259766 V -21.540039 h -2.85254 v -3.548828 h 2.85254 v -7.209961 h 4.22265 v 7.209961 h 8.71485 v 3.548828 h -8.71485 v 11.432617 q 0,1.9765626 0.0899,3.0996095 0.0898,1.1005859 0.6289,2.0664063 0.49414,0.8984375 1.34766,1.3251953 0.87597,0.4042968 2.65039,0.4042968 1.0332,0 2.15625,-0.2919922 1.12305,-0.3144531 1.61719,-0.5166015 h 0.22461 z M 215.82715,0 h -4.73926 l -3.2793,-9.3212891 H 193.34375 L 190.06445,0 h -4.51465 l 12.17383,-33.444336 h 5.92969 z m -9.38867,-13.139648 -5.86231,-16.418946 -5.88476,16.418946 z M 241.54492,0 h -4.22265 v -14.285156 q 0,-1.729492 -0.20215,-3.234375 -0.20215,-1.527344 -0.74121,-2.38086 -0.56153,-0.943359 -1.61719,-1.392578 -1.05567,-0.471679 -2.74024,-0.471679 -1.72949,0 -3.61621,0.853515 -1.88672,0.853516 -3.61621,2.178711 V 0 h -4.22265 v -25.088867 h 4.22265 v 2.785156 q 1.97656,-1.639648 4.08789,-2.560547 2.11133,-0.920898 4.33496,-0.920898 4.06543,0 6.19922,2.448242 2.13379,2.448242 2.13379,7.052734 z m 26.05469,-7.2324219 q 0,3.4365235 -2.85254,5.6376953 -2.83008,2.20117191 -7.74902,2.20117191 -2.78516,0 -5.1211,-0.65136718 -2.31347,-0.67382813 -3.88574,-1.45996093 v -4.7392578 h 0.22461 q 1.99902,1.5048828 4.44727,2.4033203 2.44824,0.8759765 4.69433,0.8759765 2.78516,0 4.35742,-0.8984375 1.57227,-0.8984374 1.57227,-2.8300781 0,-1.4824219 -0.85352,-2.2460937 -0.85351,-0.7636719 -3.27929,-1.3027349 -0.89844,-0.202148 -2.3584,-0.471679 -1.4375,-0.269531 -2.62793,-0.583985 -3.30176,-0.875976 -4.69434,-2.560546 -1.37011,-1.707032 -1.37011,-4.177735 0,-1.549804 0.6289,-2.919922 0.65137,-1.370117 1.9541,-2.448242 1.25782,-1.055664 3.18946,-1.662109 1.9541,-0.628906 4.35742,-0.628906 2.24609,0 4.53711,0.561523 2.31347,0.539062 3.84082,1.325195 v 4.514649 h -0.22461 q -1.61719,-1.19043 -3.93067,-1.999024 -2.31347,-0.831054 -4.5371,-0.831054 -2.31348,0 -3.90821,0.898437 -1.59472,0.875977 -1.59472,2.62793 0,1.549804 0.96582,2.335937 0.94336,0.786133 3.05468,1.280274 1.16797,0.269531 2.60547,0.539062 1.45996,0.269531 2.42578,0.494141 2.94239,0.673828 4.53711,2.313476 1.59473,1.6621097 1.59473,4.4023441 z M 305.19922,-25.088867 298.66309,0 h -3.90821 L 288.30859,-19.338867 281.90723,0 h -3.88575 l -6.60351,-25.088867 h 4.40234 l 4.60449,19.4287108 6.26661,-19.4287108 h 3.48144 l 6.42383,19.4287108 4.35742,-19.4287108 z m 27.08789,12.982422 h -18.48535 q 0,2.3134762 0.69629,4.0429684 0.69629,1.7070313 1.90918,2.8076172 1.16797,1.078125 2.76269,1.6171875 1.61719,0.5390625 3.54883,0.5390625 2.56055,0 5.14355,-1.0107422 2.60547,-1.0332031 3.70606,-2.0214843 h 0.22461 v 4.6044922 q -2.13379,0.89843745 -4.35742,1.50488276 -2.22364,0.60644531 -4.67188,0.60644531 -6.24414,0 -9.74805,-3.36914067 -3.5039,-3.3916015 -3.5039,-9.6132817 0,-6.154296 3.34668,-9.770507 3.36914,-3.616211 8.84961,-3.616211 5.07617,0 7.8164,2.964844 2.7627,2.964843 2.7627,8.422851 z m -4.11035,-3.234375 q -0.0225,-3.324219 -1.68457,-5.143555 -1.63965,-1.819336 -5.00879,-1.819336 -3.3916,0 -5.41309,1.999024 -1.99902,1.999023 -2.26855,4.963867 z m 26.16699,-5.143555 h -0.22461 q -0.94336,-0.224609 -1.8418,-0.314453 -0.87597,-0.112305 -2.08886,-0.112305 -1.95411,0 -3.77344,0.875977 -1.81934,0.853515 -3.50391,2.223633 V 0 h -4.22265 v -25.088867 h 4.22265 v 3.706055 q 2.51563,-2.021485 4.42481,-2.85254 1.93164,-0.853515 3.93066,-0.853515 1.10059,0 1.59473,0.06738 0.49414,0.04492 1.48242,0.202148 z m 33.5791,29.7382813 h -5.14355 q -3.97559,-4.5595704 -6.17676,-9.95019536 -2.20117,-5.39062504 -2.20117,-12.15136694 0,-6.760742 2.20117,-12.151367 2.20117,-5.390625 6.17676,-9.950196 h 5.14355 v 0.22461 q -1.81933,1.639648 -3.48144,3.795898 -1.63965,2.133789 -3.05469,4.986328 -1.34766,2.762696 -2.20117,6.086914 -0.83106,3.324219 -0.83106,7.007813 0,3.8408201 0.8086,7.0302732 0.83105,3.1894531 2.22363,6.06445311 1.34765,2.76269529 3.07715,4.98632809 1.72949,2.2460938 3.45898,3.7958985 z M 425.5,0 h -4.44727 v -28.817383 l -9.29882,19.6083986 h -2.65039 L 399.87207,-28.817383 V 0 h -4.15527 v -33.444336 h 6.06445 l 8.91699,18.620117 8.625,-18.620117 H 425.5 Z m 28.14355,0 h -4.20019 v -2.6728516 q -0.56152,0.381836 -1.52734,1.078125 -0.94336,0.67382816 -1.8418,1.07812504 Q 445.01855,0 443.64844,0.33691406 q -1.37012,0.359375 -3.21192,0.359375 -3.3916,0 -5.75,-2.24609376 -2.3584,-2.2460937 -2.3584,-5.727539 0,-2.8525393 1.2129,-4.6044923 1.23535,-1.774414 3.5039,-2.785156 2.29102,-1.010742 5.50293,-1.370117 3.21192,-0.359375 6.89551,-0.539063 v -0.651367 q 0,-1.4375 -0.5166,-2.380859 -0.49414,-0.94336 -1.4375,-1.482422 -0.89844,-0.516602 -2.15625,-0.696289 -1.25781,-0.179688 -2.62793,-0.179688 -1.66211,0 -3.70606,0.449219 -2.04394,0.426758 -4.22265,1.257812 h -0.22461 v -4.290039 q 1.23535,-0.336914 3.57129,-0.741211 2.33593,-0.404296 4.60449,-0.404296 2.65039,0 4.60449,0.449218 1.97656,0.426758 3.41406,1.482422 1.41504,1.033203 2.15625,2.672852 0.74121,1.639648 0.74121,4.065429 z m -4.20019,-6.1767578 v -6.9853512 q -1.93164,0.112304 -4.55957,0.336914 -2.60547,0.224609 -4.13281,0.651367 -1.81934,0.516601 -2.94239,1.617187 -1.12304,1.0781254 -1.12304,2.9873051 0,2.15625 1.30273,3.2568359 1.30274,1.078125 3.97559,1.078125 2.22363,0 4.06543,-0.8535156 1.84179,-0.8759766 3.41406,-2.0888672 z M 483.49414,0 H 478.1709 L 471.05078,-9.6357422 463.88574,0 h -4.91894 l 9.79297,-12.510742 -9.70313,-12.578125 h 5.32324 l 7.0752,9.478515 7.09765,-9.478515 h 4.94141 l -9.86035,12.353515 z m 40.83398,-16.104492 q 1.07813,0.96582 1.77442,2.425781 0.69629,1.459961 0.69629,3.7734376 0,2.2910156 -0.83106,4.2001953 -0.83105,1.9091797 -2.33593,3.3242187 -1.68457,1.57226565 -3.97559,2.33593753 -2.26855,0.74121093 -4.98633,0.74121093 -2.78515,0 -5.48047,-0.67382812 -2.69531,-0.65136719 -4.4248,-1.43750004 V -6.109375 h 0.33691 q 1.90918,1.2578125 4.49219,2.0888672 2.58301,0.8310547 4.98633,0.8310547 1.41504,0 3.00976,-0.4716797 1.59473,-0.4716797 2.58301,-1.3925781 1.0332,-0.9882813 1.52735,-2.178711 0.5166,-1.1904297 0.5166,-3.0097661 0,-1.796875 -0.58399,-2.964843 -0.56152,-1.19043 -1.57226,-1.864258 -1.01075,-0.696289 -2.44825,-0.943359 -1.4375,-0.269532 -3.0996,-0.269532 h -2.02149 v -3.728515 h 1.57227 q 3.41406,0 5.43554,-1.415039 2.04395,-1.4375 2.04395,-4.177735 0,-1.21289 -0.5166,-2.111328 -0.5166,-0.920898 -1.4375,-1.504883 -0.96582,-0.583984 -2.06641,-0.808593 -1.10059,-0.22461 -2.49316,-0.22461 -2.13379,0 -4.53711,0.763672 -2.40332,0.763672 -4.53711,2.15625 h -0.22461 v -4.694336 q 1.59473,-0.786133 4.24512,-1.4375 2.67285,-0.673828 5.16601,-0.673828 2.44824,0 4.3125,0.449219 1.86426,0.449219 3.36914,1.4375 1.61719,1.078125 2.44824,2.605469 0.83106,1.527343 0.83106,3.571289 0,2.785156 -1.97656,4.874023 -1.95411,2.066406 -4.62696,2.605469 v 0.314453 q 1.07813,0.179687 2.47071,0.763672 1.39257,0.561523 2.35839,1.415039 z m 32.14161,-0.628906 q 0,9.0068355 -2.83008,13.2294917 -2.80762,4.20019536 -8.73731,4.20019536 -6.01953,0 -8.80468,-4.26757816 -2.7627,-4.2675781 -2.7627,-13.1171879 0,-8.916992 2.80762,-13.162109 2.80762,-4.267578 8.75976,-4.267578 6.01953,0 8.78223,4.334961 2.78516,4.3125 2.78516,13.049805 z m -5.90723,10.1972652 q 0.78613,-1.819336 1.05566,-4.2675782 0.292,-2.470703 0.292,-5.929687 0,-3.414063 -0.292,-5.929688 -0.26953,-2.515625 -1.07812,-4.267578 -0.78613,-1.729492 -2.15625,-2.605469 -1.34766,-0.875976 -3.48145,-0.875976 -2.11132,0 -3.5039,0.875976 -1.37012,0.875977 -2.17871,2.650391 -0.76368,1.662109 -1.05567,4.334961 -0.26953,2.672851 -0.26953,5.862304 0,3.503907 0.24707,5.862305 0.24707,2.3583986 1.05567,4.2226564 0.74121,1.7519531 2.08886,2.6728515 1.37012,0.9208985 3.61621,0.9208985 2.11133,0 3.50391,-0.8759766 1.39258,-0.8759765 2.15625,-2.6503906 z m 25.7627,-6.3115232 q 0,6.7607419 -2.20118,12.15136694 -2.20117,5.39062496 -6.17675,9.95019536 h -5.14356 V 9.0292969 q 1.72949,-1.5498047 3.45899,-3.7958985 1.75195,-2.2236328 3.07714,-4.98632809 1.39258,-2.87500001 2.20118,-6.06445311 0.83105,-3.1894531 0.83105,-7.0302732 0,-3.683594 -0.83105,-7.007813 -0.83106,-3.324218 -2.20118,-6.086914 -1.41504,-2.852539 -3.07714,-4.986328 -1.63965,-2.15625 -3.45899,-3.795898 v -0.22461 h 5.14356 q 3.97558,4.559571 6.17675,9.950196 2.20118,5.390625 2.20118,12.151367 z"
         id="text19"
         style="font-stretch:semi-condensed;font-size:46px;font-family:'Aptos Narrow', 'Aptos Narrow_MSFontService', sans-serif;fill:#595959"
         transform="matrix(6.12323e-17 -1 1 6.12323e-17 3194.11 3932)"
         aria-label="Correct Answer (Max 30)" /></g><g
       id="g21"><path
         d="m 26.369141,-23.336914 q 0,2.223633 -0.786133,4.132812 -0.763672,1.886719 -2.15625,3.279297 -1.729492,1.729492 -4.087891,2.605469 -2.358398,0.853516 -5.952148,0.853516 H 8.9394531 V 0 H 4.4921875 v -33.444336 h 9.0742185 q 3.009766,0 5.098633,0.516602 2.088867,0.49414 3.706055,1.572265 1.909179,1.280274 2.942383,3.189453 1.055664,1.90918 1.055664,4.829102 z m -4.626954,0.112305 q 0,-1.729493 -0.606445,-3.009766 -0.606445,-1.280273 -1.841797,-2.088867 -1.078125,-0.696289 -2.470703,-0.988281 -1.370117,-0.314454 -3.481445,-0.314454 H 8.9394531 v 13.364258 H 12.69043 q 2.695312,0 4.379882,-0.471679 1.684571,-0.494141 2.740235,-1.549805 1.055664,-1.078125 1.482422,-2.268555 0.449218,-1.190429 0.449218,-2.672851 z M 71.15625,-33.444336 62.463867,0 H 57.455078 L 50.424805,-27.761719 43.551758,0 h -4.896485 l -8.849609,-33.444336 h 4.55957 l 7.030274,27.8066407 6.917969,-27.8066407 h 4.514648 l 6.985352,28.0761719 6.985351,-28.0761719 z M 107.49805,0 h -4.44727 V -28.817383 L 93.751953,-9.2089844 H 91.101562 L 81.870117,-28.817383 V 0 h -4.155273 v -33.444336 h 6.064453 l 8.916992,18.620117 8.625001,-18.620117 h 6.17676 z m 43.37207,-1.5722656 Q 148.75879,-0.56152344 146.84961,0 q -1.88672,0.56152344 -4.02051,0.56152344 -2.71777,0 -4.98633,-0.78613282 -2.26855,-0.80859372 -3.88574,-2.42578122 -1.63965,-1.6171875 -2.53808,-4.0878906 -0.89844,-2.4707032 -0.89844,-5.7724608 0,-6.154297 3.36914,-9.658203 3.3916,-3.503907 8.93945,-3.503907 2.15625,0 4.22266,0.606446 2.08886,0.606445 3.81836,1.482422 v 4.694336 h -0.22461 q -1.93164,-1.504883 -3.99805,-2.313477 -2.04394,-0.808594 -3.99805,-0.808594 -3.59375,0 -5.68261,2.425782 -2.06641,2.40332 -2.06641,7.075195 0,4.5371092 2.02148,6.9853514 2.04395,2.4257812 5.72754,2.4257812 1.28028,0 2.60547,-0.336914 1.3252,-0.3369141 2.38086,-0.8759766 0.9209,-0.4716797 1.72949,-0.9882812 0.8086,-0.5390625 1.28028,-0.9208985 h 0.22461 z M 177.98047,-25.088867 163.33594,9.2539063 h -4.51465 l 4.67187,-10.4667969 -9.99511,-23.8759764 h 4.58203 l 7.7041,18.5976561 7.77148,-18.5976561 z M 201.6543,-1.5722656 Q 199.54297,-0.56152344 197.63379,0 q -1.88672,0.56152344 -4.02051,0.56152344 -2.71777,0 -4.98633,-0.78613282 -2.26855,-0.80859372 -3.88574,-2.42578122 -1.63965,-1.6171875 -2.53809,-4.0878906 -0.89843,-2.4707032 -0.89843,-5.7724608 0,-6.154297 3.36914,-9.658203 3.3916,-3.503907 8.93945,-3.503907 2.15625,0 4.22266,0.606446 2.08886,0.606445 3.81836,1.482422 v 4.694336 h -0.22461 q -1.93164,-1.504883 -3.99805,-2.313477 -2.04394,-0.808594 -3.99805,-0.808594 -3.59375,0 -5.68261,2.425782 -2.06641,2.40332 -2.06641,7.075195 0,4.5371092 2.02148,6.9853514 2.04395,2.4257812 5.72754,2.4257812 1.28028,0 2.60547,-0.336914 1.3252,-0.3369141 2.38086,-0.8759766 0.9209,-0.4716797 1.72949,-0.9882812 0.8086,-0.5390625 1.28028,-0.9208985 h 0.22461 z M 211.33496,0 h -4.22266 v -34.949219 h 4.22266 z m 29.35645,-12.106445 h -18.48536 q 0,2.3134762 0.69629,4.0429684 0.69629,1.7070313 1.90918,2.8076172 1.16797,1.078125 2.7627,1.6171875 1.61719,0.5390625 3.54883,0.5390625 2.56054,0 5.14355,-1.0107422 2.60547,-1.0332031 3.70606,-2.0214843 h 0.22461 v 4.6044922 q -2.13379,0.89843745 -4.35743,1.50488276 -2.22363,0.60644531 -4.67187,0.60644531 -6.24414,0 -9.74805,-3.36914067 -3.5039,-3.3916015 -3.5039,-9.6132817 0,-6.154296 3.34668,-9.770507 3.36914,-3.616211 8.8496,-3.616211 5.07618,0 7.81641,2.964844 2.7627,2.964843 2.7627,8.422851 z m -4.11036,-3.234375 q -0.0225,-3.324219 -1.68457,-5.143555 -1.63964,-1.819336 -5.00878,-1.819336 -3.39161,0 -5.41309,1.999024 -1.99902,1.999023 -2.26856,4.963867 z m 42.33887,-5.143555 h -0.22461 q -0.94336,-0.224609 -1.84179,-0.314453 -0.87598,-0.112305 -2.08887,-0.112305 -1.9541,0 -3.77344,0.875977 -1.81934,0.853515 -3.50391,2.223633 V 0 h -4.22265 v -25.088867 h 4.22265 v 3.706055 q 2.51563,-2.021485 4.42481,-2.85254 1.93164,-0.853515 3.93066,-0.853515 1.10059,0 1.59473,0.06738 0.49414,0.04492 1.48242,0.202148 z M 301.58301,0 h -4.2002 v -2.6728516 q -0.56152,0.381836 -1.52734,1.078125 -0.94336,0.67382816 -1.8418,1.07812504 Q 292.95801,0 291.58789,0.33691406 q -1.37012,0.359375 -3.21191,0.359375 -3.39161,0 -5.75,-2.24609376 -2.3584,-2.2460937 -2.3584,-5.727539 0,-2.8525393 1.21289,-4.6044923 1.23535,-1.774414 3.5039,-2.785156 2.29102,-1.010742 5.50293,-1.370117 3.21192,-0.359375 6.89551,-0.539063 v -0.651367 q 0,-1.4375 -0.5166,-2.380859 -0.49414,-0.94336 -1.4375,-1.482422 -0.89844,-0.516602 -2.15625,-0.696289 -1.25781,-0.179688 -2.62793,-0.179688 -1.66211,0 -3.70605,0.449219 -2.04395,0.426758 -4.22266,1.257812 h -0.22461 v -4.290039 q 1.23535,-0.336914 3.57129,-0.741211 2.33594,-0.404296 4.60449,-0.404296 2.65039,0 4.60449,0.449218 1.97657,0.426758 3.41407,1.482422 1.41504,1.033203 2.15625,2.672852 0.74121,1.639648 0.74121,4.065429 z m -4.2002,-6.1767578 v -6.9853512 q -1.93164,0.112304 -4.55957,0.336914 -2.60547,0.224609 -4.13281,0.651367 -1.81934,0.516601 -2.94238,1.617187 -1.12305,1.0781254 -1.12305,2.9873051 0,2.15625 1.30273,3.2568359 1.30274,1.078125 3.97559,1.078125 2.22363,0 4.06543,-0.8535156 1.8418,-0.8759766 3.41406,-2.0888672 z m 25.3584,5.95214842 q -1.19043,0.31445313 -2.60547,0.51660157 -1.39258,0.20214844 -2.49316,0.20214844 -3.84082,0 -5.83985,-2.06640623 -1.99902,-2.0664063 -1.99902,-6.6259766 V -21.540039 h -2.85254 v -3.548828 h 2.85254 v -7.209961 h 4.22266 v 7.209961 h 8.71484 v 3.548828 h -8.71484 v 11.432617 q 0,1.9765626 0.0898,3.0996095 0.0898,1.1005859 0.62891,2.0664063 0.49414,0.8984375 1.34765,1.3251953 0.87598,0.4042968 2.65039,0.4042968 1.03321,0 2.15625,-0.2919922 1.12305,-0.3144531 1.61719,-0.5166015 h 0.22461 z M 348.84082,-12.106445 h -18.48535 q 0,2.3134762 0.69629,4.0429684 0.69629,1.7070313 1.90918,2.8076172 1.16797,1.078125 2.76269,1.6171875 1.61719,0.5390625 3.54883,0.5390625 2.56055,0 5.14356,-1.0107422 2.60546,-1.0332031 3.70605,-2.0214843 h 0.22461 v 4.6044922 q -2.13379,0.89843745 -4.35742,1.50488276 -2.22364,0.60644531 -4.67188,0.60644531 -6.24414,0 -9.74804,-3.36914067 -3.50391,-3.3916015 -3.50391,-9.6132817 0,-6.154296 3.34668,-9.770507 3.36914,-3.616211 8.84961,-3.616211 5.07617,0 7.8164,2.964844 2.7627,2.964843 2.7627,8.422851 z m -4.11035,-3.234375 q -0.0225,-3.324219 -1.68457,-5.143555 -1.63965,-1.819336 -5.00879,-1.819336 -3.3916,0 -5.41309,1.999024 -1.99902,1.999023 -2.26855,4.963867 z"
         id="text20"
         style="font-stretch:semi-condensed;font-size:46px;font-family:'Aptos Narrow', 'Aptos Narrow_MSFontService', sans-serif;fill:#595959"
         transform="matrix(1 0 0 1 3861.64 4209)"
         aria-label="PWM cycle rate" /></g><path
       id="rect21"
       style="fill:none;stroke:#d9d9d9;stroke-width:3.4375;stroke-linejoin:round;stroke-miterlimit:10"
       d="m 3094.5,3290.5 h 1659 v 990 h -1659 z" /></g></svg>
