<svg width="2725" height="1701" xmlns="http://www.w3.org/2000/svg" xmlns:xlink="http://www.w3.org/1999/xlink" xml:space="preserve" overflow="hidden"><g transform="translate(-600 -571)"><path d="M2573.47 662.219 3320.41 662.219 3320.41 1045.74 2573.47 1045.74Z" fill="#C2F1C8" fill-rule="evenodd"/><path d="M1079.59 1045.74 1826.53 1045.74 1826.53 1429.26 1079.59 1429.26Z" fill="#FCD6D6" fill-rule="evenodd"/><path d="M1826.53 1045.74 2573.47 1045.74 2573.47 1429.26 1826.53 1429.26Z" fill="#C2F1C8" fill-rule="evenodd"/><path d="M2573.47 1045.74 3320.41 1045.74 3320.41 1429.26 2573.47 1429.26Z" fill="#FCD6D6" fill-rule="evenodd"/><path d="M1079.59 1429.26 1826.53 1429.26 1826.53 1812.78 1079.59 1812.78Z" fill="#C2F1C8" fill-rule="evenodd"/><path d="M1826.53 1429.26 2573.47 1429.26 2573.47 1812.78 1826.53 1812.78Z" fill="#FCD6D6" fill-rule="evenodd"/><path d="M1826.53 659.928 1826.53 1815.07" stroke="#000000" stroke-width="4.58333" stroke-linejoin="round" stroke-miterlimit="10" fill="none" fill-rule="evenodd"/><path d="M2573.47 659.928 2573.47 1815.07" stroke="#000000" stroke-width="4.58333" stroke-linejoin="round" stroke-miterlimit="10" fill="none" fill-rule="evenodd"/><path d="M1077.3 1045.74 3322.7 1045.74" stroke="#000000" stroke-width="4.58333" stroke-linejoin="round" stroke-miterlimit="10" fill="none" fill-rule="evenodd"/><path d="M1077.3 1429.26 3322.7 1429.26" stroke="#000000" stroke-width="4.58333" stroke-linejoin="round" stroke-miterlimit="10" fill="none" fill-rule="evenodd"/><path d="M1079.59 659.928 1079.59 1815.07" stroke="#000000" stroke-width="4.58333" stroke-linejoin="round" stroke-miterlimit="10" fill="none" fill-rule="evenodd"/><path d="M3320.41 659.928 3320.41 1815.07" stroke="#000000" stroke-width="4.58333" stroke-linejoin="round" stroke-miterlimit="10" fill="none" fill-rule="evenodd"/><path d="M1077.3 662.219 3322.7 662.219" stroke="#000000" stroke-width="4.58333" stroke-linejoin="round" stroke-miterlimit="10" fill="none" fill-rule="evenodd"/><path d="M1077.3 1812.78 3322.7 1812.78" stroke="#000000" stroke-width="4.58333" stroke-linejoin="round" stroke-miterlimit="10" fill="none" fill-rule="evenodd"/><text font-family="Aptos Narrow,Aptos Narrow_MSFontService,sans-serif" font-weight="400" font-stretch="semi-condensed" font-size="147" transform="matrix(1 0 0 1 2872.46 903)">26</text><text font-family="Aptos Narrow,Aptos Narrow_MSFontService,sans-serif" font-weight="400" font-stretch="semi-condensed" font-size="147" transform="matrix(1 0 0 1 2162.76 903)">0</text><text font-family="Aptos Narrow,Aptos Narrow_MSFontService,sans-serif" font-weight="400" font-stretch="semi-condensed" font-size="147" transform="matrix(1 0 0 1 1415.82 903)">0</text><text font-family="Aptos Narrow,Aptos Narrow_MSFontService,sans-serif" font-weight="400" font-stretch="semi-condensed" font-size="147" transform="matrix(1 0 0 1 2909.7 1286)">4</text><text font-family="Aptos Narrow,Aptos Narrow_MSFontService,sans-serif" font-weight="400" font-stretch="semi-condensed" font-size="147" transform="matrix(1 0 0 1 2125.52 1286)">24</text><text font-family="Aptos Narrow,Aptos Narrow_MSFontService,sans-serif" font-weight="400" font-stretch="semi-condensed" font-size="147" transform="matrix(1 0 0 1 1415.82 1286)">7</text><text font-family="Aptos Narrow,Aptos Narrow_MSFontService,sans-serif" font-weight="400" font-stretch="semi-condensed" font-size="147" transform="matrix(1 0 0 1 2909.7 1670)">0</text><text font-family="Aptos Narrow,Aptos Narrow_MSFontService,sans-serif" font-weight="400" font-stretch="semi-condensed" font-size="147" transform="matrix(1 0 0 1 2162.76 1670)">6</text><text font-family="Aptos Narrow,Aptos Narrow_MSFontService,sans-serif" font-weight="400" font-stretch="semi-condensed" font-size="147" transform="matrix(1 0 0 1 1378.58 1670)">23</text><text font-family="Aptos,Aptos_MSFontService,sans-serif" font-weight="400" font-size="147" transform="matrix(1 0 0 1 844.162 885)">1.0</text><text font-family="Aptos,Aptos_MSFontService,sans-serif" font-weight="400" font-size="147" transform="matrix(1 0 0 1 844.162 1283)">0.5</text><text font-family="Aptos,Aptos_MSFontService,sans-serif" font-weight="400" font-size="147" transform="matrix(1 0 0 1 844.162 1682)">0.2</text><text font-family="Aptos,Aptos_MSFontService,sans-serif" font-weight="400" font-size="147" transform="matrix(1 0 0 1 1353.69 1964)">0.2</text><text font-family="Aptos,Aptos_MSFontService,sans-serif" font-weight="400" font-size="147" transform="matrix(1 0 0 1 2098.79 1964)">0.5</text><text font-family="Aptos,Aptos_MSFontService,sans-serif" font-weight="400" font-size="147" transform="matrix(1 0 0 1 2843.88 1964)">1.0</text><text font-family="Aptos,Aptos_MSFontService,sans-serif" font-weight="400" font-size="128" transform="matrix(1 0 0 1 1726.78 2158)">Given Cycle Rate</text><text font-family="Aptos,Aptos_MSFontService,sans-serif" font-weight="400" font-size="128" transform="matrix(-1.83697e-16 -1 1 -1.83697e-16 756.834 1816)">Answered Cycle Rate</text></g></svg>