<svg width="1637" height="948" xmlns="http://www.w3.org/2000/svg" xmlns:xlink="http://www.w3.org/1999/xlink" xml:space="preserve" overflow="hidden"><defs><clipPath id="clip0"><rect x="1720" y="976" width="1637" height="948"/></clipPath></defs><g clip-path="url(#clip0)" transform="translate(-1720 -976)"><rect x="1721" y="977" width="1634" height="945" fill="#FFFFFF"/><g><path d="M1927.5 1636.55 3304.5 1636.55M1927.5 1554.55 3304.5 1554.55M1927.5 1472.55 3304.5 1472.55M1927.5 1389.55 3304.5 1389.55M1927.5 1307.54 3304.5 1307.54M1927.5 1225.54 3304.5 1225.54M1927.5 1142.54 3304.5 1142.54M1927.5 1060.5 3304.5 1060.5" stroke="#D9D9D9" stroke-width="3.4375" stroke-linejoin="round" stroke-miterlimit="10" fill="none"/></g><g><rect x="1967" y="1390" width="36.0001" height="329" fill="#FF0000"/></g><g><rect x="2082" y="1242" width="35.9998" height="477" fill="#C04F15"/></g><g><rect x="2196" y="1357" width="36" height="362" fill="#660033"/></g><g><rect x="2311" y="1308" width="36" height="411" fill="#FF00FF"/></g><g><rect x="2426" y="1406" width="36" height="313" fill="#FFCC99"/></g><g><rect x="2541" y="1242" width="36" height="477" fill="#0070C0"/></g><g><rect x="2655" y="1225" width="35.9998" height="494" fill="#FF9999"/></g><g><rect x="2770" y="1406" width="36" height="313" fill="#33CCFF"/></g><g><rect x="2885" y="1341" width="35.9998" height="378" fill="#D86ECC"/></g><g><rect x="3114" y="1308" width="36" height="411" fill="#84E291"/></g><g><rect x="3229" y="1242" width="36" height="477" fill="#FFC000"/></g><g><path d="M2999.1 1192.04 3035.1 1192.04 3035.1 1719 2999.1 1719Z" fill="#156082"/></g><g><path d="M1984.57 1389.55 1984.57 1411.5M1984.57 1389.55 1984.57 1368.5M1974.5 1411.5 1995.5 1411.5M1974.5 1368.5 1995.5 1368.5" stroke="#595959" stroke-width="3.4375" stroke-linejoin="round" stroke-miterlimit="10" fill="none"/></g><g><path d="M2099.57 1241.54 2099.57 1263.5M2099.57 1241.54 2099.57 1219.5M2089.5 1263.5 2109.5 1263.5M2089.5 1219.5 2109.5 1219.5" stroke="#595959" stroke-width="3.4375" stroke-linejoin="round" stroke-miterlimit="10" fill="none"/></g><g><path d="M2214.57 1356.54 2214.57 1378.5M2214.57 1356.54 2214.57 1335.5M2204.5 1378.5 2224.5 1378.5M2204.5 1335.5 2224.5 1335.5" stroke="#595959" stroke-width="3.4375" stroke-linejoin="round" stroke-miterlimit="10" fill="none"/></g><g><path d="M2328.58 1307.54 2328.58 1329.5M2328.58 1307.54 2328.58 1285.5M2318.5 1329.5 2339.5 1329.5M2318.5 1285.5 2339.5 1285.5" stroke="#595959" stroke-width="3.4375" stroke-linejoin="round" stroke-miterlimit="10" fill="none"/></g><g><path d="M2443.58 1406.55 2443.58 1428.5M2443.58 1406.55 2443.58 1384.5M2433.5 1428.5 2454.5 1428.5M2433.5 1384.5 2454.5 1384.5" stroke="#595959" stroke-width="3.4375" stroke-linejoin="round" stroke-miterlimit="10" fill="none"/></g><g><path d="M2558.58 1241.54 2558.58 1263.5M2558.58 1241.54 2558.58 1219.5M2548.5 1263.5 2568.5 1263.5M2548.5 1219.5 2568.5 1219.5" stroke="#595959" stroke-width="3.4375" stroke-linejoin="round" stroke-miterlimit="10" fill="none"/></g><g><path d="M2673.59 1225.54 2673.59 1247.5M2673.59 1225.54 2673.59 1203.5M2662.5 1247.5 2683.5 1247.5M2662.5 1203.5 2683.5 1203.5" stroke="#595959" stroke-width="3.4375" stroke-linejoin="round" stroke-miterlimit="10" fill="none"/></g><g><path d="M2787.59 1406.55 2787.59 1428.5M2787.59 1406.55 2787.59 1384.5M2777.5 1428.5 2798.5 1428.5M2777.5 1384.5 2798.5 1384.5" stroke="#595959" stroke-width="3.4375" stroke-linejoin="round" stroke-miterlimit="10" fill="none"/></g><g><path d="M2902.6 1340.54 2902.6 1362.5M2902.6 1340.54 2902.6 1318.5M2892.5 1362.5 2913.5 1362.5M2892.5 1318.5 2913.5 1318.5" stroke="#595959" stroke-width="3.4375" stroke-linejoin="round" stroke-miterlimit="10" fill="none"/></g><g><path d="M3017.6 1192.54 3017.6 1214.5M3017.6 1192.54 3017.6 1170.5M3007.5 1214.5 3027.5 1214.5M3007.5 1170.5 3027.5 1170.5" stroke="#595959" stroke-width="3.4375" stroke-linejoin="round" stroke-miterlimit="10" fill="none"/></g><g><path d="M3132.6 1307.54 3132.6 1329.5M3132.6 1307.54 3132.6 1285.5M3121.5 1329.5 3142.5 1329.5M3121.5 1285.5 3142.5 1285.5" stroke="#595959" stroke-width="3.4375" stroke-linejoin="round" stroke-miterlimit="10" fill="none"/></g><g><path d="M3246.61 1241.54 3246.61 1263.5M3246.61 1241.54 3246.61 1219.5M3236.5 1263.5 3257.5 1263.5M3236.5 1219.5 3257.5 1219.5" stroke="#595959" stroke-width="3.4375" stroke-linejoin="round" stroke-miterlimit="10" fill="none"/></g><g><path d="M1927.5 1719.5 3304.5 1719.5" stroke="#D9D9D9" stroke-width="3.4375" stroke-linejoin="round" stroke-miterlimit="10" fill="none" fill-rule="evenodd"/></g><g><text fill="#404040" font-family="Aptos Narrow,Aptos Narrow_MSFontService,sans-serif" font-weight="400" font-stretch="semi-condensed" font-size="41" transform="matrix(1 0 0 1 1963.97 1358)">20</text></g><g><text fill="#404040" font-family="Aptos Narrow,Aptos Narrow_MSFontService,sans-serif" font-weight="400" font-stretch="semi-condensed" font-size="41" transform="matrix(1 0 0 1 2078.7 1210)">29</text></g><g><text fill="#404040" font-family="Aptos Narrow,Aptos Narrow_MSFontService,sans-serif" font-weight="400" font-stretch="semi-condensed" font-size="41" transform="matrix(1 0 0 1 2193.44 1325)">22</text></g><g><text fill="#404040" font-family="Aptos Narrow,Aptos Narrow_MSFontService,sans-serif" font-weight="400" font-stretch="semi-condensed" font-size="41" transform="matrix(1 0 0 1 2308.17 1276)">25</text></g><g><text fill="#404040" font-family="Aptos Narrow,Aptos Narrow_MSFontService,sans-serif" font-weight="400" font-stretch="semi-condensed" font-size="41" transform="matrix(1 0 0 1 2422.9 1374)">19</text></g><g><text fill="#404040" font-family="Aptos Narrow,Aptos Narrow_MSFontService,sans-serif" font-weight="400" font-stretch="semi-condensed" font-size="41" transform="matrix(1 0 0 1 2537.63 1210)">29</text></g><g><text fill="#404040" font-family="Aptos Narrow,Aptos Narrow_MSFontService,sans-serif" font-weight="400" font-stretch="semi-condensed" font-size="41" transform="matrix(1 0 0 1 2652.36 1193)">30</text></g><g><text fill="#404040" font-family="Aptos Narrow,Aptos Narrow_MSFontService,sans-serif" font-weight="400" font-stretch="semi-condensed" font-size="41" transform="matrix(1 0 0 1 2767.09 1374)">19</text></g><g><text fill="#404040" font-family="Aptos Narrow,Aptos Narrow_MSFontService,sans-serif" font-weight="400" font-stretch="semi-condensed" font-size="41" transform="matrix(1 0 0 1 2881.82 1309)">23</text></g><g><text fill="#404040" font-family="Aptos Narrow,Aptos Narrow_MSFontService,sans-serif" font-weight="400" font-stretch="semi-condensed" font-size="41" transform="matrix(1 0 0 1 2996.56 1160)">32</text></g><g><text fill="#404040" font-family="Aptos Narrow,Aptos Narrow_MSFontService,sans-serif" font-weight="400" font-stretch="semi-condensed" font-size="41" transform="matrix(1 0 0 1 3111.29 1276)">25</text></g><g><text fill="#404040" font-family="Aptos Narrow,Aptos Narrow_MSFontService,sans-serif" font-weight="400" font-stretch="semi-condensed" font-size="41" transform="matrix(1 0 0 1 3226.02 1210)">29</text></g><g><text fill="#595959" font-family="Aptos Narrow,Aptos Narrow_MSFontService,sans-serif" font-weight="400" font-stretch="semi-condensed" font-size="41" transform="matrix(1 0 0 1 1868.52 1731)">0</text></g><g><text fill="#595959" font-family="Aptos Narrow,Aptos Narrow_MSFontService,sans-serif" font-weight="400" font-stretch="semi-condensed" font-size="41" transform="matrix(1 0 0 1 1868.52 1648)">5</text></g><g><text fill="#595959" font-family="Aptos Narrow,Aptos Narrow_MSFontService,sans-serif" font-weight="400" font-stretch="semi-condensed" font-size="41" transform="matrix(1 0 0 1 1847.62 1566)">10</text></g><g><text fill="#595959" font-family="Aptos Narrow,Aptos Narrow_MSFontService,sans-serif" font-weight="400" font-stretch="semi-condensed" font-size="41" transform="matrix(1 0 0 1 1847.62 1484)">15</text></g><g><text fill="#595959" font-family="Aptos Narrow,Aptos Narrow_MSFontService,sans-serif" font-weight="400" font-stretch="semi-condensed" font-size="41" transform="matrix(1 0 0 1 1847.62 1401)">20</text></g><g><text fill="#595959" font-family="Aptos Narrow,Aptos Narrow_MSFontService,sans-serif" font-weight="400" font-stretch="semi-condensed" font-size="41" transform="matrix(1 0 0 1 1847.62 1319)">25</text></g><g><text fill="#595959" font-family="Aptos Narrow,Aptos Narrow_MSFontService,sans-serif" font-weight="400" font-stretch="semi-condensed" font-size="41" transform="matrix(1 0 0 1 1847.62 1237)">30</text></g><g><text fill="#595959" font-family="Aptos Narrow,Aptos Narrow_MSFontService,sans-serif" font-weight="400" font-stretch="semi-condensed" font-size="41" transform="matrix(1 0 0 1 1847.62 1154)">35</text></g><g><text fill="#595959" font-family="Aptos Narrow,Aptos Narrow_MSFontService,sans-serif" font-weight="400" font-stretch="semi-condensed" font-size="41" transform="matrix(1 0 0 1 1847.62 1072)">40</text></g><g><text fill="#595959" font-family="Aptos Narrow,Aptos Narrow_MSFontService,sans-serif" font-weight="400" font-stretch="semi-condensed" font-size="41" transform="matrix(1 0 0 1 1960.66 1784)">Q1</text></g><g><text fill="#595959" font-family="Aptos Narrow,Aptos Narrow_MSFontService,sans-serif" font-weight="400" font-stretch="semi-condensed" font-size="41" transform="matrix(1 0 0 1 2075.39 1784)">Q2</text></g><g><text fill="#595959" font-family="Aptos Narrow,Aptos Narrow_MSFontService,sans-serif" font-weight="400" font-stretch="semi-condensed" font-size="41" transform="matrix(1 0 0 1 2190.12 1784)">Q3</text></g><g><text fill="#595959" font-family="Aptos Narrow,Aptos Narrow_MSFontService,sans-serif" font-weight="400" font-stretch="semi-condensed" font-size="41" transform="matrix(1 0 0 1 2304.86 1784)">Q4</text></g><g><text fill="#595959" font-family="Aptos Narrow,Aptos Narrow_MSFontService,sans-serif" font-weight="400" font-stretch="semi-condensed" font-size="41" transform="matrix(1 0 0 1 2419.59 1784)">Q5</text></g><g><text fill="#595959" font-family="Aptos Narrow,Aptos Narrow_MSFontService,sans-serif" font-weight="400" font-stretch="semi-condensed" font-size="41" transform="matrix(1 0 0 1 2534.32 1784)">Q6</text></g><g><text fill="#595959" font-family="Aptos Narrow,Aptos Narrow_MSFontService,sans-serif" font-weight="400" font-stretch="semi-condensed" font-size="41" transform="matrix(1 0 0 1 2649.05 1784)">Q7</text></g><g><text fill="#595959" font-family="Aptos Narrow,Aptos Narrow_MSFontService,sans-serif" font-weight="400" font-stretch="semi-condensed" font-size="41" transform="matrix(1 0 0 1 2763.78 1784)">Q8</text></g><g><text fill="#595959" font-family="Aptos Narrow,Aptos Narrow_MSFontService,sans-serif" font-weight="400" font-stretch="semi-condensed" font-size="41" transform="matrix(1 0 0 1 2878.51 1784)">Q9</text></g><g><text fill="#595959" font-family="Aptos Narrow,Aptos Narrow_MSFontService,sans-serif" font-weight="400" font-stretch="semi-condensed" font-size="41" transform="matrix(1 0 0 1 2982.79 1784)">Q10</text></g><g><text fill="#595959" font-family="Aptos Narrow,Aptos Narrow_MSFontService,sans-serif" font-weight="400" font-stretch="semi-condensed" font-size="41" transform="matrix(1 0 0 1 3097.53 1784)">Q11</text></g><g><text fill="#595959" font-family="Aptos Narrow,Aptos Narrow_MSFontService,sans-serif" font-weight="400" font-stretch="semi-condensed" font-size="41" transform="matrix(1 0 0 1 3212.26 1784)">Q12</text></g><g><text fill="#595959" font-family="Aptos Narrow,Aptos Narrow_MSFontService,sans-serif" font-weight="400" font-stretch="semi-condensed" font-size="46" transform="matrix(6.12323e-17 -1 1 6.12323e-17 1806.82 1707)">Score's Summarization</text></g><g><text fill="#595959" font-family="Aptos Narrow,Aptos Narrow_MSFontService,sans-serif" font-weight="400" font-stretch="semi-condensed" font-size="46" transform="matrix(1 0 0 1 2509.51 1870)">Question</text></g><rect x="1721.5" y="977.5" width="1634" height="945" stroke="#D9D9D9" stroke-width="3.4375" stroke-linejoin="round" stroke-miterlimit="10" fill="none"/></g></svg>